<?xml version="1.0" encoding="UTF-8"?>
<svg version="1.1" xmlns="http://www.w3.org/2000/svg" width="512" height="512">
<path d="M0 0 C0.78177738 -0.00581376 1.56355476 -0.01162753 2.36902237 -0.01761746 C4.99266607 -0.03223318 7.61537655 -0.0183252 10.23901367 -0.00457001 C12.13732889 -0.0091783 14.03564053 -0.01553074 15.9339447 -0.02347898 C21.15362574 -0.04020519 26.37301494 -0.03191092 31.59269714 -0.01953411 C37.22059119 -0.01049944 42.84843436 -0.02444549 48.47631836 -0.0354538 C59.5026231 -0.0532605 70.52881906 -0.04938943 81.5551281 -0.03780323 C90.51470713 -0.02877766 99.47425562 -0.02754112 108.43383789 -0.0318985 C109.70795878 -0.03251143 110.98207968 -0.03312436 112.2948103 -0.03375587 C114.88298671 -0.03503474 117.47116312 -0.03633159 120.05933952 -0.03764623 C143.64856533 -0.04873288 167.23771817 -0.03722649 190.82693172 -0.01627585 C212.36406376 0.00270679 233.9011012 0.00100829 255.43823242 -0.01811981 C279.631778 -0.03953534 303.82525631 -0.04795965 328.01881409 -0.03567076 C330.59758503 -0.03439653 333.17635599 -0.03313905 335.75512695 -0.0318985 C337.02400348 -0.0312814 338.29288 -0.03066429 339.60020733 -0.03002849 C348.55127417 -0.02657165 357.50230749 -0.03241114 366.45336914 -0.04181671 C377.35850801 -0.05302346 388.26353167 -0.05002449 399.1686573 -0.02869374 C404.73493924 -0.01816555 410.30102896 -0.01409168 415.86730957 -0.02729034 C420.95988286 -0.03918332 426.05208521 -0.03270273 431.14462471 -0.01138014 C432.98975825 -0.00690094 434.83492293 -0.00920973 436.68003654 -0.01888329 C439.18346151 -0.03100445 441.68560722 -0.01861646 444.18896484 0 C444.90948658 -0.00936466 445.63000832 -0.01872933 446.37236404 -0.02837777 C451.39605653 0.04656079 454.20994479 1.37993388 458.09448242 4.50336456 C462.63730318 9.59556732 462.68340158 14.00310365 462.62573242 20.50336456 C462.62955933 21.45727081 462.63338623 22.41117706 462.6373291 23.39398956 C462.64004278 25.40441701 462.63271979 27.41488009 462.6159668 29.42523956 C462.59454951 32.49375243 462.61578708 35.55992409 462.64135742 38.62836456 C462.63871405 40.58670304 462.63358888 42.54504006 462.62573242 44.50336456 C462.63382935 45.41602081 462.64192627 46.32867706 462.65026855 47.26898956 C462.56858361 52.84757559 461.82463204 56.08599215 458.09448242 60.50336456 C454.33360606 63.90606223 451.82044874 64.70962486 446.88354492 64.60492706 C445.98587402 64.59026398 445.08820313 64.57560089 444.16333008 64.56049347 C443.48061035 64.54164093 442.79789062 64.52278839 442.09448242 64.50336456 C442.63975586 66.0230484 442.63975586 66.0230484 443.19604492 67.57343292 C444.55217162 71.36482915 445.88947257 75.16264768 447.22143555 78.96259308 C447.79841982 80.60044749 448.38036773 82.23656268 448.9675293 83.8707962 C449.81491777 86.23209894 450.6437368 88.59926315 451.46948242 90.96820831 C451.73196777 91.68733902 451.99445313 92.40646973 452.26489258 93.14739227 C454.01744801 98.25405347 454.76631522 103.10401505 454.09448242 108.50336456 C452.59448242 111.06586456 452.59448242 111.06586456 450.09448242 112.50336456 C447.41458742 112.69202025 444.78489323 112.56625018 442.09448242 112.50336456 C442.63975586 114.0230484 442.63975586 114.0230484 443.19604492 115.57343292 C444.55217162 119.36482915 445.88947257 123.16264768 447.22143555 126.96259308 C447.79841982 128.60044749 448.38036773 130.23656268 448.9675293 131.8707962 C449.81491777 134.23209894 450.6437368 136.59926315 451.46948242 138.96820831 C451.73196777 139.68733902 451.99445313 140.40646973 452.26489258 141.14739227 C454.01744801 146.25405347 454.76631522 151.10401505 454.09448242 156.50336456 C452.59448242 159.06586456 452.59448242 159.06586456 450.09448242 160.50336456 C447.41458742 160.69202025 444.78489323 160.56625018 442.09448242 160.50336456 C442.63975586 162.0230484 442.63975586 162.0230484 443.19604492 163.57343292 C444.55217162 167.36482915 445.88947257 171.16264768 447.22143555 174.96259308 C447.79841982 176.60044749 448.38036773 178.23656268 448.9675293 179.8707962 C449.81491777 182.23209894 450.6437368 184.59926315 451.46948242 186.96820831 C451.73196777 187.68733902 451.99445313 188.40646973 452.26489258 189.14739227 C454.01744801 194.25405347 454.76631522 199.10401505 454.09448242 204.50336456 C452.59448242 207.06586456 452.59448242 207.06586456 450.09448242 208.50336456 C447.41458742 208.69202025 444.78489323 208.56625018 442.09448242 208.50336456 C442.63975586 210.0230484 442.63975586 210.0230484 443.19604492 211.57343292 C444.55217162 215.36482915 445.88947257 219.16264768 447.22143555 222.96259308 C447.79841982 224.60044749 448.38036773 226.23656268 448.9675293 227.8707962 C449.81491777 230.23209894 450.6437368 232.59926315 451.46948242 234.96820831 C451.73196777 235.68733902 451.99445313 236.40646973 452.26489258 237.14739227 C454.01744801 242.25405347 454.76631522 247.10401505 454.09448242 252.50336456 C452.59448242 255.06586456 452.59448242 255.06586456 450.09448242 256.50336456 C447.41458742 256.69202025 444.78489323 256.56625018 442.09448242 256.50336456 C442.63975586 258.0230484 442.63975586 258.0230484 443.19604492 259.57343292 C444.55217162 263.36482915 445.88947257 267.16264768 447.22143555 270.96259308 C447.79841982 272.60044749 448.38036773 274.23656268 448.9675293 275.8707962 C449.81491777 278.23209894 450.6437368 280.59926315 451.46948242 282.96820831 C451.73196777 283.68733902 451.99445313 284.40646973 452.26489258 285.14739227 C453.95119432 290.061001 455.3057357 295.33812407 454.09448242 300.50336456 C451.86672051 303.39183811 450.72623544 304.40850982 447.07006836 304.95746613 C445.34191895 304.92604523 445.34191895 304.92604523 443.57885742 304.89398956 C442.3284668 304.88109894 441.07807617 304.86820831 439.78979492 304.85492706 C437.83686523 304.80465363 437.83686523 304.80465363 435.84448242 304.75336456 C434.52706055 304.73531769 433.20963867 304.71727081 431.85229492 304.69867706 C428.59895935 304.65152727 425.34708617 304.585725 422.09448242 304.50336456 C422.09816959 305.38611935 422.10185677 306.26887413 422.10565567 307.17837906 C422.19393816 328.64360255 422.26015864 350.1087948 422.30173111 371.57416153 C422.32236888 381.95460016 422.35051268 392.33491771 422.39624023 402.71527863 C422.43607081 411.76130065 422.46190639 420.80723501 422.4708364 429.85334229 C422.47605756 434.64458711 422.48835435 439.43558108 422.51740265 444.22674561 C422.54451207 448.73455255 422.55293651 453.24200484 422.54691315 457.74988556 C422.54801539 459.4059339 422.55599599 461.06199385 422.57130432 462.7179718 C422.5911631 464.97660647 422.58643781 467.23389653 422.57550049 469.49256134 C422.57918766 470.75726131 422.58287483 472.02196129 422.58667374 473.3249855 C421.98556939 477.20668236 421.17456953 478.13334282 418.09448242 480.50336456 C415.08877563 481.00476122 415.08877563 481.00476122 411.49145508 481.00672913 C410.8261956 481.01254289 410.16093613 481.01835665 409.47551727 481.02434659 C407.23616163 481.03899756 404.99789339 481.02503886 402.75854492 481.01129913 C401.14101601 481.01590607 399.52349128 481.02225759 397.90597534 481.03020811 C393.45320491 481.04695321 389.00077604 481.03863168 384.54800415 481.02626324 C379.74901987 481.01723618 374.95009553 481.03117079 370.15112305 481.04218292 C360.7468197 481.05999785 351.34264383 481.05611494 341.93833542 481.04453236 C334.2973399 481.03550999 326.65638018 481.03426885 319.01538086 481.03862762 C317.9291361 481.03924056 316.84289135 481.03985349 315.72373009 481.04048499 C313.51725514 481.04176386 311.3107802 481.04306071 309.10430527 481.04437536 C288.39935227 481.05578987 267.69447004 481.0426538 246.98952866 481.02117389 C229.21197779 481.00330213 211.4345314 481.006406 193.65698242 481.02484894 C173.02766193 481.04624027 152.39840352 481.05469115 131.76907349 481.04239988 C129.570577 481.04112565 127.37208049 481.03986816 125.17358398 481.03862762 C123.55090135 481.03770197 123.55090135 481.03770197 121.89543724 481.03675762 C114.26092416 481.0332995 106.62645036 481.03914299 98.99194336 481.04854584 C89.69187102 481.05974792 80.39193378 481.05676356 71.09187698 481.03542286 C66.34405326 481.02488828 61.59645502 481.02083147 56.84863281 481.03401947 C52.50609897 481.04589954 48.16400058 481.03945378 43.8215065 481.01810926 C42.24687253 481.0136245 40.67220211 481.01595125 39.0975914 481.02561241 C36.96370133 481.03770528 34.83131988 481.02537669 32.69750977 481.00672913 C31.51039398 481.00607972 30.3232782 481.00543031 29.10018921 481.00476122 C25.46338806 480.39808862 24.27821677 479.42817976 22.09448242 476.50336456 C21.60229111 473.3249855 21.60229111 473.3249855 21.61346436 469.49256134 C21.61004666 468.78677263 21.60662896 468.08098393 21.60310769 467.35380769 C21.59651904 464.98885874 21.61851957 462.62504486 21.64038086 460.2602005 C21.64150913 458.56505103 21.64087587 456.86989961 21.63861084 455.17475128 C21.63746197 450.57165827 21.66099921 445.96898117 21.68890667 441.36598492 C21.71389151 436.55602559 21.71626002 431.74605699 21.7210083 426.93604279 C21.73344666 417.82709713 21.76627992 408.71834322 21.80640626 399.60948205 C21.8510972 389.23960157 21.87310427 378.86971199 21.893188 368.4997592 C21.93501178 347.16752058 22.00538057 325.83545464 22.09448242 304.50336456 C21.26722656 304.52431183 20.4399707 304.54525909 19.58764648 304.56684113 C15.84004872 304.64998076 12.09264493 304.70201987 8.34448242 304.75336456 C7.0425293 304.78688019 5.74057617 304.82039581 4.39916992 304.85492706 C3.1487793 304.86781769 1.89838867 304.88070831 0.61010742 304.89398956 C-0.54199219 304.91493683 -1.6940918 304.93588409 -2.88110352 304.95746613 C-6.53727059 304.40850982 -7.67775566 303.39183811 -9.90551758 300.50336456 C-11.30510817 294.5349828 -9.31927895 288.55379966 -7.28051758 282.96820831 C-7.01416504 282.20408127 -6.7478125 281.43995422 -6.47338867 280.65267181 C-5.63043586 278.24391996 -4.76841074 275.8425356 -3.90551758 273.44086456 C-3.32611072 271.79613328 -2.7479737 270.15095408 -2.17114258 268.50531769 C-0.76387985 264.49934381 0.66051391 260.49985261 2.09448242 256.50336456 C0.19182617 256.54783722 0.19182617 256.54783722 -1.74926758 256.59320831 C-4.7407372 256.66313088 -5.72838808 256.60521403 -8.40551758 255.06586456 C-10.88318848 250.83317676 -10.46891747 246.0751524 -9.43383789 241.35025787 C-8.78137976 239.19414296 -8.05288793 237.08427016 -7.28051758 234.96820831 C-6.88098877 233.82201775 -6.88098877 233.82201775 -6.47338867 232.65267181 C-5.63043586 230.24391996 -4.76841074 227.8425356 -3.90551758 225.44086456 C-3.32611072 223.79613328 -2.7479737 222.15095408 -2.17114258 220.50531769 C-0.76387985 216.49934381 0.66051391 212.49985261 2.09448242 208.50336456 C0.82604492 208.533013 -0.44239258 208.56266144 -1.74926758 208.59320831 C-4.7407372 208.66313088 -5.72838808 208.60521403 -8.40551758 207.06586456 C-10.88318848 202.83317676 -10.46891747 198.0751524 -9.43383789 193.35025787 C-8.78137976 191.19414296 -8.05288793 189.08427016 -7.28051758 186.96820831 C-6.88098877 185.82201775 -6.88098877 185.82201775 -6.47338867 184.65267181 C-5.63043586 182.24391996 -4.76841074 179.8425356 -3.90551758 177.44086456 C-3.32611072 175.79613328 -2.7479737 174.15095408 -2.17114258 172.50531769 C-0.76387985 168.49934381 0.66051391 164.49985261 2.09448242 160.50336456 C0.82604492 160.533013 -0.44239258 160.56266144 -1.74926758 160.59320831 C-4.7407372 160.66313088 -5.72838808 160.60521403 -8.40551758 159.06586456 C-10.88318848 154.83317676 -10.46891747 150.0751524 -9.43383789 145.35025787 C-8.78137976 143.19414296 -8.05288793 141.08427016 -7.28051758 138.96820831 C-6.88098877 137.82201775 -6.88098877 137.82201775 -6.47338867 136.65267181 C-5.63043586 134.24391996 -4.76841074 131.8425356 -3.90551758 129.44086456 C-3.32611072 127.79613328 -2.7479737 126.15095408 -2.17114258 124.50531769 C-0.76387985 120.49934381 0.66051391 116.49985261 2.09448242 112.50336456 C0.82604492 112.533013 -0.44239258 112.56266144 -1.74926758 112.59320831 C-4.7407372 112.66313088 -5.72838808 112.60521403 -8.40551758 111.06586456 C-10.88318848 106.83317676 -10.46891747 102.0751524 -9.43383789 97.35025787 C-8.78137976 95.19414296 -8.05288793 93.08427016 -7.28051758 90.96820831 C-6.88098877 89.82201775 -6.88098877 89.82201775 -6.47338867 88.65267181 C-5.63043586 86.24391996 -4.76841074 83.8425356 -3.90551758 81.44086456 C-3.32611072 79.79613328 -2.7479737 78.15095408 -2.17114258 76.50531769 C-0.76387985 72.49934381 0.66051391 68.49985261 2.09448242 64.50336456 C1.4117627 64.5222171 0.72904297 64.54106964 0.02563477 64.56049347 C-0.87203613 64.57515656 -1.76970703 64.58981964 -2.69458008 64.60492706 C-3.5835498 64.6237796 -4.47251953 64.64263214 -5.38842773 64.66205597 C-9.1863493 64.42261378 -11.12144558 63.02228685 -13.90551758 60.50336456 C-18.34175478 55.24981876 -18.49506913 51.07490666 -18.43676758 44.50336456 C-18.44059448 43.54945831 -18.44442139 42.59555206 -18.44836426 41.61273956 C-18.45107794 39.60231212 -18.44375495 37.59184904 -18.42700195 35.58148956 C-18.40558467 32.51297669 -18.42682224 29.44680504 -18.45239258 26.37836456 C-18.44974921 24.42002609 -18.44462403 22.46168906 -18.43676758 20.50336456 C-18.4448645 19.59070831 -18.45296143 18.67805206 -18.46130371 17.73773956 C-18.37996158 12.18256584 -17.74751232 8.80998752 -13.90551758 4.50336456 C-9.30614868 0.80516125 -5.76110676 -0.07487745 0 0 Z M-1.90551758 16.50336456 C-1.90551758 27.06336456 -1.90551758 37.62336456 -1.90551758 48.50336456 C145.93448242 48.50336456 293.77448242 48.50336456 446.09448242 48.50336456 C446.09448242 37.94336456 446.09448242 27.38336456 446.09448242 16.50336456 C298.25448242 16.50336456 150.41448242 16.50336456 -1.90551758 16.50336456 Z M20.09448242 64.50336456 C18.6675473 68.73830417 17.24244545 72.97376907 15.82202148 77.21088409 C15.33807551 78.65265333 14.85305403 80.09406202 14.36694336 81.53510284 C13.6691353 83.60431735 12.97518244 85.67478999 12.28198242 87.74555206 C11.86303711 88.99191437 11.4440918 90.23827667 11.01245117 91.52240753 C9.99638047 94.30208535 9.99638047 94.30208535 10.09448242 96.50336456 C21.97448242 96.50336456 33.85448242 96.50336456 46.09448242 96.50336456 C46.09448242 85.94336456 46.09448242 75.38336456 46.09448242 64.50336456 C37.51448242 64.50336456 28.93448242 64.50336456 20.09448242 64.50336456 Z M62.09448242 64.50336456 C62.09448242 75.06336456 62.09448242 85.62336456 62.09448242 96.50336456 C167.69448242 96.50336456 273.29448242 96.50336456 382.09448242 96.50336456 C382.09448242 85.94336456 382.09448242 75.38336456 382.09448242 64.50336456 C276.49448242 64.50336456 170.89448242 64.50336456 62.09448242 64.50336456 Z M398.09448242 64.50336456 C398.09448242 75.06336456 398.09448242 85.62336456 398.09448242 96.50336456 C409.97448242 96.50336456 421.85448242 96.50336456 434.09448242 96.50336456 C431.8421971 88.09988919 431.8421971 88.09988919 429.27026367 79.83539581 C428.85514526 78.59753326 428.85514526 78.59753326 428.43164062 77.33466339 C428.09350342 76.33845978 427.75536621 75.34225616 427.40698242 74.31586456 C426.31385742 71.07773956 425.22073242 67.83961456 424.09448242 64.50336456 C415.51448242 64.50336456 406.93448242 64.50336456 398.09448242 64.50336456 Z M20.09448242 112.50336456 C18.6675473 116.73830417 17.24244545 120.97376907 15.82202148 125.21088409 C15.33807551 126.65265333 14.85305403 128.09406202 14.36694336 129.53510284 C13.6691353 131.60431735 12.97518244 133.67478999 12.28198242 135.74555206 C11.86303711 136.99191437 11.4440918 138.23827667 11.01245117 139.52240753 C9.99638047 142.30208535 9.99638047 142.30208535 10.09448242 144.50336456 C21.97448242 144.50336456 33.85448242 144.50336456 46.09448242 144.50336456 C46.09448242 133.94336456 46.09448242 123.38336456 46.09448242 112.50336456 C37.51448242 112.50336456 28.93448242 112.50336456 20.09448242 112.50336456 Z M62.09448242 112.50336456 C62.09448242 123.06336456 62.09448242 133.62336456 62.09448242 144.50336456 C167.69448242 144.50336456 273.29448242 144.50336456 382.09448242 144.50336456 C382.09448242 133.94336456 382.09448242 123.38336456 382.09448242 112.50336456 C276.49448242 112.50336456 170.89448242 112.50336456 62.09448242 112.50336456 Z M398.09448242 112.50336456 C398.09448242 123.06336456 398.09448242 133.62336456 398.09448242 144.50336456 C409.97448242 144.50336456 421.85448242 144.50336456 434.09448242 144.50336456 C431.8421971 136.09988919 431.8421971 136.09988919 429.27026367 127.83539581 C428.85514526 126.59753326 428.85514526 126.59753326 428.43164062 125.33466339 C428.09350342 124.33845978 427.75536621 123.34225616 427.40698242 122.31586456 C426.31385742 119.07773956 425.22073242 115.83961456 424.09448242 112.50336456 C415.51448242 112.50336456 406.93448242 112.50336456 398.09448242 112.50336456 Z M20.09448242 160.50336456 C18.6675473 164.73830417 17.24244545 168.97376907 15.82202148 173.21088409 C15.33807551 174.65265333 14.85305403 176.09406202 14.36694336 177.53510284 C13.6691353 179.60431735 12.97518244 181.67478999 12.28198242 183.74555206 C11.86303711 184.99191437 11.4440918 186.23827667 11.01245117 187.52240753 C9.99638047 190.30208535 9.99638047 190.30208535 10.09448242 192.50336456 C21.97448242 192.50336456 33.85448242 192.50336456 46.09448242 192.50336456 C46.09448242 181.94336456 46.09448242 171.38336456 46.09448242 160.50336456 C37.51448242 160.50336456 28.93448242 160.50336456 20.09448242 160.50336456 Z M62.09448242 160.50336456 C62.09448242 171.06336456 62.09448242 181.62336456 62.09448242 192.50336456 C167.69448242 192.50336456 273.29448242 192.50336456 382.09448242 192.50336456 C382.09448242 181.94336456 382.09448242 171.38336456 382.09448242 160.50336456 C276.49448242 160.50336456 170.89448242 160.50336456 62.09448242 160.50336456 Z M398.09448242 160.50336456 C398.09448242 171.06336456 398.09448242 181.62336456 398.09448242 192.50336456 C409.97448242 192.50336456 421.85448242 192.50336456 434.09448242 192.50336456 C431.8421971 184.09988919 431.8421971 184.09988919 429.27026367 175.83539581 C428.85514526 174.59753326 428.85514526 174.59753326 428.43164062 173.33466339 C428.09350342 172.33845978 427.75536621 171.34225616 427.40698242 170.31586456 C426.31385742 167.07773956 425.22073242 163.83961456 424.09448242 160.50336456 C415.51448242 160.50336456 406.93448242 160.50336456 398.09448242 160.50336456 Z M20.09448242 208.50336456 C18.6675473 212.73830417 17.24244545 216.97376907 15.82202148 221.21088409 C15.33807551 222.65265333 14.85305403 224.09406202 14.36694336 225.53510284 C13.6691353 227.60431735 12.97518244 229.67478999 12.28198242 231.74555206 C11.86303711 232.99191437 11.4440918 234.23827667 11.01245117 235.52240753 C9.99638047 238.30208535 9.99638047 238.30208535 10.09448242 240.50336456 C21.97448242 240.50336456 33.85448242 240.50336456 46.09448242 240.50336456 C46.09448242 229.94336456 46.09448242 219.38336456 46.09448242 208.50336456 C37.51448242 208.50336456 28.93448242 208.50336456 20.09448242 208.50336456 Z M62.09448242 208.50336456 C62.09448242 219.06336456 62.09448242 229.62336456 62.09448242 240.50336456 C167.69448242 240.50336456 273.29448242 240.50336456 382.09448242 240.50336456 C382.09448242 229.94336456 382.09448242 219.38336456 382.09448242 208.50336456 C276.49448242 208.50336456 170.89448242 208.50336456 62.09448242 208.50336456 Z M398.09448242 208.50336456 C398.09448242 219.06336456 398.09448242 229.62336456 398.09448242 240.50336456 C409.97448242 240.50336456 421.85448242 240.50336456 434.09448242 240.50336456 C431.8421971 232.09988919 431.8421971 232.09988919 429.27026367 223.83539581 C428.85514526 222.59753326 428.85514526 222.59753326 428.43164062 221.33466339 C428.09350342 220.33845978 427.75536621 219.34225616 427.40698242 218.31586456 C426.31385742 215.07773956 425.22073242 211.83961456 424.09448242 208.50336456 C415.51448242 208.50336456 406.93448242 208.50336456 398.09448242 208.50336456 Z M20.09448242 256.50336456 C18.6675473 260.73830417 17.24244545 264.97376907 15.82202148 269.21088409 C15.33807551 270.65265333 14.85305403 272.09406202 14.36694336 273.53510284 C13.6691353 275.60431735 12.97518244 277.67478999 12.28198242 279.74555206 C11.86303711 280.99191437 11.4440918 282.23827667 11.01245117 283.52240753 C9.99638047 286.30208535 9.99638047 286.30208535 10.09448242 288.50336456 C21.97448242 288.50336456 33.85448242 288.50336456 46.09448242 288.50336456 C46.09448242 277.94336456 46.09448242 267.38336456 46.09448242 256.50336456 C37.51448242 256.50336456 28.93448242 256.50336456 20.09448242 256.50336456 Z M62.09448242 256.50336456 C62.09448242 267.06336456 62.09448242 277.62336456 62.09448242 288.50336456 C167.69448242 288.50336456 273.29448242 288.50336456 382.09448242 288.50336456 C382.09448242 277.94336456 382.09448242 267.38336456 382.09448242 256.50336456 C276.49448242 256.50336456 170.89448242 256.50336456 62.09448242 256.50336456 Z M398.09448242 256.50336456 C398.09448242 267.06336456 398.09448242 277.62336456 398.09448242 288.50336456 C409.97448242 288.50336456 421.85448242 288.50336456 434.09448242 288.50336456 C431.8421971 280.09988919 431.8421971 280.09988919 429.27026367 271.83539581 C428.85514526 270.59753326 428.85514526 270.59753326 428.43164062 269.33466339 C428.09350342 268.33845978 427.75536621 267.34225616 427.40698242 266.31586456 C426.31385742 263.07773956 425.22073242 259.83961456 424.09448242 256.50336456 C415.51448242 256.50336456 406.93448242 256.50336456 398.09448242 256.50336456 Z M38.09448242 304.50336456 C38.09448242 341.46336456 38.09448242 378.42336456 38.09448242 416.50336456 C48.65448242 416.50336456 59.21448242 416.50336456 70.09448242 416.50336456 C70.09448242 379.54336456 70.09448242 342.58336456 70.09448242 304.50336456 C59.53448242 304.50336456 48.97448242 304.50336456 38.09448242 304.50336456 Z M86.09448242 304.50336456 C86.09448242 341.46336456 86.09448242 378.42336456 86.09448242 416.50336456 C175.85448242 416.50336456 265.61448242 416.50336456 358.09448242 416.50336456 C358.09448242 379.54336456 358.09448242 342.58336456 358.09448242 304.50336456 C347.53448242 304.50336456 336.97448242 304.50336456 326.09448242 304.50336456 C325.91069519 311.39283303 325.75152069 318.27379675 325.6550293 325.16376495 C325.61481335 327.50650601 325.56023055 329.84904647 325.4909668 332.1911087 C325.39383474 335.5600197 325.34853692 338.92627708 325.31323242 342.29633331 C325.27194214 343.34234207 325.23065186 344.38835083 325.18811035 345.46605682 C325.18632831 348.35814446 325.26009163 350.73258949 326.09448242 353.50336456 C327.97867324 355.35029756 329.70731829 356.39651732 332.09118652 357.51064301 C336.01404641 359.45459326 338.29760197 362.87873858 340.20385742 366.76508331 C342.31911908 373.26858516 342.37015648 381.70578522 339.53198242 388.00336456 C335.476106 394.60299623 330.09992252 398.19857072 322.64135742 400.09711456 C315.51541959 401.23376722 309.00091689 399.64408599 303.09448242 395.50336456 C298.37203926 391.09505288 295.43135435 386.78199022 294.75854492 380.23383331 C294.66753144 371.97891016 294.88381547 365.86057445 300.77807617 359.76117706 C303.78557684 357.05766034 306.43213019 355.33454068 310.09448242 353.50336456 C310.09448242 337.33336456 310.09448242 321.16336456 310.09448242 304.50336456 C236.17448242 304.50336456 162.25448242 304.50336456 86.09448242 304.50336456 Z M374.09448242 304.50336456 C374.09448242 341.46336456 374.09448242 378.42336456 374.09448242 416.50336456 C384.65448242 416.50336456 395.21448242 416.50336456 406.09448242 416.50336456 C406.09448242 379.54336456 406.09448242 342.58336456 406.09448242 304.50336456 C395.53448242 304.50336456 384.97448242 304.50336456 374.09448242 304.50336456 Z M312.71948242 371.12836456 C310.60741736 374.21522888 310.48253097 375.83165587 311.09448242 379.50336456 C312.59448242 382.00336456 312.59448242 382.00336456 315.09448242 383.50336456 C318.76619112 384.11531601 320.38261811 383.99042962 323.46948242 381.87836456 C325.58154748 378.79150025 325.70643387 377.17507326 325.09448242 373.50336456 C323.59448242 371.00336456 323.59448242 371.00336456 321.09448242 369.50336456 C317.42277372 368.89141311 315.80634674 369.0162995 312.71948242 371.12836456 Z M38.09448242 432.50336456 C38.09448242 443.06336456 38.09448242 453.62336456 38.09448242 464.50336456 C159.53448242 464.50336456 280.97448242 464.50336456 406.09448242 464.50336456 C406.09448242 453.94336456 406.09448242 443.38336456 406.09448242 432.50336456 C284.65448242 432.50336456 163.21448242 432.50336456 38.09448242 432.50336456 Z " fill="#000000" transform="translate(33.905517578125,15.496635437011719)"/>
</svg>
