<?xml version="1.0" encoding="UTF-8"?>
<svg version="1.1" xmlns="http://www.w3.org/2000/svg" width="512" height="512">
<path d="M0 0 C0.82781322 -0.00235223 1.65562643 -0.00470446 2.50852489 -0.00712797 C5.31255677 -0.01384239 8.11654256 -0.01335902 10.92058182 -0.01294994 C12.93918467 -0.01624705 14.95778687 -0.01997229 16.97638822 -0.02409142 C22.54705799 -0.03413696 28.11771699 -0.03783231 33.68839455 -0.04048073 C39.68717154 -0.04437622 45.68593993 -0.05395503 51.68471146 -0.0626936 C65.49762841 -0.08154361 79.31054602 -0.09171708 93.12347218 -0.10015428 C99.94656956 -0.10435846 106.76966606 -0.10958075 113.59276269 -0.11483881 C136.9404205 -0.13273013 160.28807855 -0.14772709 183.63574219 -0.155159 C185.10195421 -0.15563376 186.56816623 -0.15610965 188.03437825 -0.15658666 C189.12506259 -0.15694122 189.12506259 -0.15694122 190.23778096 -0.15730295 C193.92186318 -0.15850417 197.6059454 -0.15971961 201.29002762 -0.16094494 C202.38671151 -0.16130516 202.38671151 -0.16130516 203.50555063 -0.16167267 C227.21615642 -0.16956753 250.92671221 -0.19300262 274.63729617 -0.22550088 C299.69447068 -0.25978223 324.75161593 -0.27950856 349.80881429 -0.28280324 C352.55840382 -0.28322079 355.30799334 -0.28370036 358.05758286 -0.28422642 C359.07315215 -0.28441121 359.07315215 -0.28441121 360.109238 -0.28459973 C371.01491196 -0.28693385 381.92052795 -0.30260564 392.82618124 -0.32306826 C403.78392485 -0.34330276 414.74160816 -0.34848084 425.69936845 -0.33929763 C431.6382785 -0.33473807 437.57699995 -0.3367351 443.5158844 -0.35605907 C448.94906842 -0.37358544 454.38192479 -0.37277905 459.81511179 -0.35716178 C461.78419409 -0.35476963 463.75329846 -0.3591917 465.72234687 -0.37099043 C468.39294703 -0.386006 471.06237064 -0.37650894 473.73294067 -0.36076355 C474.50273616 -0.37098576 475.27253165 -0.38120796 476.06565428 -0.39173993 C481.23122862 -0.3249781 484.13224617 0.88957887 488.11815262 4.13422108 C492.40087759 8.99569266 493.24463158 11.42657854 493.29515457 17.87543201 C493.30501137 18.91479908 493.30501137 18.91479908 493.31506729 19.97516346 C493.3348098 22.27297541 493.34646613 24.57072191 493.35643387 26.86859608 C493.3605094 27.65361752 493.36458492 28.43863895 493.36878395 29.24744892 C493.38965071 33.40403957 493.40394867 37.56059717 493.41331863 41.71722889 C493.42437263 46.00577205 493.45875861 50.29379484 493.49849033 54.58215427 C493.52467001 57.88335588 493.53301174 61.18443389 493.53660011 64.48573017 C493.54146416 66.06614406 493.55307307 67.64655249 493.57163811 69.22686481 C493.59605529 71.44346942 493.59506047 73.65873337 493.58812332 75.87543201 C493.59398956 77.1351482 493.5998558 78.39486439 493.60589981 79.69275379 C492.86118605 84.9473367 490.40810595 87.99783362 486.49315262 91.44672108 C482.51734522 94.27163686 479.2488615 94.42910277 474.49315262 94.69672108 C473.78674637 94.73990467 473.08034012 94.78308826 472.35252762 94.82758045 C470.60796725 94.93366858 468.86308565 95.03444997 467.11815262 95.13422108 C468.57398083 97.74295875 470.03077694 100.35114867 471.48875809 102.95868397 C472.75016869 105.21588468 474.00958342 107.47420185 475.2670784 109.73358631 C478.35132702 115.26027684 481.46622682 120.75921014 484.71971512 126.18890858 C485.27240067 127.12065907 485.82508621 128.05240955 486.39451981 129.01239491 C487.43554452 130.76041976 488.49026391 132.50038432 489.56053543 134.23065662 C492.66019383 139.46810204 494.1559762 143.02899965 493.11815262 149.13422108 C491.29393387 152.08343983 491.29393387 152.08343983 488.11815262 154.13422108 C484.51020855 154.8540344 480.97686973 154.92453105 477.30565262 154.94672108 C476.32660965 154.9718578 475.34756668 154.99699451 474.33885574 155.02289295 C471.93155065 155.08160771 469.526057 155.11800088 467.11815262 155.13422108 C468.84484259 158.16638649 470.57249058 161.19800089 472.30174637 164.2287035 C473.7681663 166.79885509 475.23123624 169.37087637 476.69237137 171.94403553 C479.85346186 177.50039751 483.01732244 183.04108103 486.40721512 188.46234608 C486.87337234 189.21523914 487.33952957 189.96813221 487.81981277 190.74384022 C488.65420876 192.07921898 489.50429493 193.40498971 490.37352371 194.71796131 C493.2932243 199.41965971 494.01292102 203.72849732 493.11815262 209.13422108 C491.24194649 211.63582925 489.87923959 212.75367759 487.11815262 214.13422108 C485.59857621 214.28545939 484.0734276 214.38303801 482.54784012 214.45062733 C481.65194168 214.49252186 480.75604324 214.53441639 479.83299637 214.57758045 C478.89584793 214.61689686 477.95869949 214.65621326 476.99315262 214.69672108 C476.04826981 214.73990467 475.10338699 214.78308826 474.12987137 214.82758045 C471.7927817 214.9338118 469.45558432 215.03585284 467.11815262 215.13422108 C467.66004227 216.05980824 467.66004227 216.05980824 468.21287918 217.00409412 C471.21893827 222.14126491 474.21647926 227.2831722 477.20409012 232.43109608 C479.67033377 236.67464757 482.17273037 240.8918138 484.71971512 245.08734608 C485.81088651 246.91545582 486.90203356 248.74358009 487.99315262 250.57172108 C488.51038895 251.40340809 489.02762527 252.2350951 489.56053543 253.09198475 C492.69862342 258.40726916 494.28030673 262.92178806 493.11815262 269.13422108 C490.81320658 272.42700113 488.96278459 273.38988552 485.11815262 274.13422108 C483.67716831 274.21188191 482.23306633 274.24218475 480.79002762 274.23187733 C479.99080887 274.22865467 479.19159012 274.22543201 478.36815262 274.2221117 C477.54315262 274.2137328 476.71815262 274.20535389 475.86815262 274.19672108 C475.02768387 274.19220936 474.18721512 274.18769764 473.32127762 274.1830492 C471.2535386 274.17130068 469.18583638 274.1533663 467.11815262 274.13422108 C469.04376955 277.62066295 470.9722009 281.10553398 472.90254593 284.58936024 C473.93004577 286.44562475 474.95488965 288.3033399 475.97972488 290.16107655 C479.0861711 295.77805366 482.21555503 301.36312335 485.56346512 306.84125233 C486.07288651 307.68196278 486.58230789 308.52267323 487.10716629 309.38885975 C488.043736 310.92150011 488.99607974 312.44466007 489.96702957 313.95575428 C492.97423382 318.90197336 494.44090348 323.33965412 493.11815262 329.13422108 C490.96828856 332.09891584 489.3343956 332.93571187 485.73680496 333.52289295 C482.92008515 333.7530787 480.13128409 333.84247232 477.30565262 333.88422108 C475.83708817 333.92869373 475.83708817 333.92869373 474.33885574 333.97406483 C471.93187309 334.0445131 469.52584472 334.09733133 467.11815262 334.13422108 C468.57398083 336.74295875 470.03077694 339.35114867 471.48875809 341.95868397 C472.75016869 344.21588468 474.00958342 346.47420185 475.2670784 348.73358631 C478.35132702 354.26027684 481.46622682 359.75921014 484.71971512 365.18890858 C485.27240067 366.12065907 485.82508621 367.05240955 486.39451981 368.01239491 C487.43554452 369.76041976 488.49026391 371.50038432 489.56053543 373.23065662 C492.66019383 378.46810204 494.1559762 382.02899965 493.11815262 388.13422108 C491.29393387 391.08343983 491.29393387 391.08343983 488.11815262 393.13422108 C484.51020855 393.8540344 480.97686973 393.92453105 477.30565262 393.94672108 C475.83708817 393.98442616 475.83708817 393.98442616 474.33885574 394.02289295 C471.93155065 394.08160771 469.526057 394.11800088 467.11815262 394.13422108 C468.84484259 397.16638649 470.57249058 400.19800089 472.30174637 403.2287035 C473.7681663 405.79885509 475.23123624 408.37087637 476.69237137 410.94403553 C479.85346186 416.50039751 483.01732244 422.04108103 486.40721512 427.46234608 C486.87337234 428.21523914 487.33952957 428.96813221 487.81981277 429.74384022 C488.65420876 431.07921898 489.50429493 432.40498971 490.37352371 433.71796131 C493.2932243 438.41965971 494.01292102 442.72849732 493.11815262 448.13422108 C491.24194649 450.63582925 489.87923959 451.75367759 487.11815262 453.13422108 C485.59857621 453.28545939 484.0734276 453.38303801 482.54784012 453.45062733 C481.65194168 453.49252186 480.75604324 453.53441639 479.83299637 453.57758045 C478.89584793 453.61689686 477.95869949 453.65621326 476.99315262 453.69672108 C476.04826981 453.73990467 475.10338699 453.78308826 474.12987137 453.82758045 C471.7927817 453.9338118 469.45558432 454.03585284 467.11815262 454.13422108 C467.66004227 455.05980824 467.66004227 455.05980824 468.21287918 456.00409412 C471.21893827 461.14126491 474.21647926 466.2831722 477.20409012 471.43109608 C479.67033377 475.67464757 482.17273037 479.8918138 484.71971512 484.08734608 C485.81088651 485.91545582 486.90203356 487.74358009 487.99315262 489.57172108 C488.51038895 490.40340809 489.02762527 491.2350951 489.56053543 492.09198475 C492.36825769 496.84769664 493.68768222 500.56802929 493.6889534 506.11102772 C492.83636339 509.13301807 491.61537935 510.22086579 489.11815262 512.13422108 C486.20744781 512.52613162 483.67598247 512.67178049 480.76597977 512.63758564 C479.91162244 512.6433994 479.05726511 512.64921317 478.17701817 512.6552031 C475.29448397 512.6698808 472.41279095 512.65588174 469.53026199 512.64215565 C467.45075671 512.64676149 465.37125467 512.65311226 463.29175949 512.66106462 C457.56203818 512.67782455 451.83258199 512.66948133 446.1028595 512.65711975 C439.92963452 512.64809879 433.75645631 512.66202428 427.58324051 512.67303944 C416.18376577 512.68982994 404.78439959 512.68833009 393.38492751 512.67739356 C382.85483133 512.66734042 372.32476628 512.66470028 361.79466629 512.66948414 C361.09680297 512.66978968 360.39893965 512.67009522 359.67992896 512.67041002 C356.84723772 512.67165533 354.0145465 512.67292892 351.18185529 512.67424907 C324.59657322 512.6864914 298.01134525 512.67538122 271.42607152 512.65386149 C247.79475707 512.63487835 224.16352882 512.63657683 200.53221512 512.65570545 C173.99627484 512.67711333 147.46038238 512.68562326 120.92443466 512.6732564 C118.0968361 512.67197348 115.26923753 512.67072213 112.44163895 512.66948414 C111.7453868 512.66916783 111.04913465 512.66885152 110.33178395 512.66852563 C99.80702851 512.66397133 89.28230758 512.66930502 78.75755692 512.67940235 C66.79317952 512.69082345 54.82890399 512.68762797 42.86453056 512.66627938 C36.7557446 512.65573979 30.64713397 512.6516966 24.53834915 512.66487598 C18.95236628 512.67674552 13.36672219 512.67032747 7.7807703 512.64896578 C5.75391763 512.64447656 3.72703666 512.6468175 1.70020199 512.65646893 C-1.04350389 512.66853747 -3.78603143 512.65625569 -6.52967453 512.63758564 C-7.72508252 512.65163264 -7.72508252 512.65163264 -8.94464016 512.66596341 C-12.43247398 512.61814425 -14.4948345 512.41341146 -17.35942459 510.34690142 C-19.2826688 507.55166958 -19.6394941 505.20527158 -19.47852707 501.83734608 C-18.16617185 495.89201178 -14.6337613 490.78465555 -11.50684738 485.63422108 C-10.77198199 484.39211575 -10.03891787 483.14894303 -9.30762863 481.90472889 C-7.85747518 479.44422064 -6.39705101 476.99037023 -4.92579269 474.5424242 C-2.64905338 470.74604571 -0.41180742 466.92791408 1.81981277 463.1049242 C3.57269479 460.10676421 5.34388595 457.11976595 7.11815262 454.13422108 C6.53847733 454.11963856 5.95880203 454.10505604 5.36156082 454.09003162 C2.71727709 454.01523579 0.0742126 453.9186821 -2.56934738 453.82172108 C-3.4813591 453.79916248 -4.39337082 453.77660389 -5.33301926 453.7533617 C-10.2526627 453.55657596 -13.92702248 453.39634752 -17.88184738 450.13422108 C-19.6683853 446.56114524 -19.49537115 442.97801884 -18.88184738 439.13422108 C-17.18663265 435.13941071 -14.93875188 431.55225317 -12.63184738 427.88422108 C-11.35208405 425.77552388 -10.07346174 423.66613383 -8.79590988 421.55609608 C-8.14525558 420.49455311 -7.49460129 419.43301014 -6.82423019 418.3392992 C-3.78653978 413.32688093 -0.89608137 408.23318076 1.99315262 403.13422108 C2.9903035 401.38408149 3.98767471 399.6340674 4.98534012 397.88422108 C5.69644506 396.63431632 6.40745366 395.38435672 7.11815262 394.13422108 C6.50818436 394.13011219 5.89821609 394.1260033 5.26976395 394.12176991 C2.48909469 394.08874533 -0.28940895 394.0180954 -3.06934738 393.94672108 C-4.50890793 393.93801991 -4.50890793 393.93801991 -5.97755051 393.92914295 C-10.51057243 393.78797618 -13.1865642 393.58320468 -17.05762863 391.08343983 C-18.89848554 388.10732213 -19.71778132 386.05709078 -19.47803879 382.53509998 C-18.10518189 377.00656815 -14.92949357 372.19396216 -12.06934738 367.32172108 C-11.38482956 366.12750768 -10.70181684 364.93243036 -10.02027512 363.736516 C-8.64853435 361.33677563 -7.26693561 358.9432092 -5.87501144 356.55511951 C-4.05062827 353.42390235 -2.24057467 350.28500083 -0.43653488 347.14203358 C2.06326722 342.79515329 4.58334917 338.46077748 7.11815262 334.13422108 C6.20320023 334.12020252 6.20320023 334.12020252 5.26976395 334.10590076 C2.48925775 334.05200782 -0.28960001 333.96840039 -3.06934738 333.88422108 C-4.02905441 333.87004139 -4.98876144 333.8558617 -5.97755051 333.84125233 C-10.15429312 333.69672836 -13.24172926 333.43341528 -17.05762863 331.64984608 C-19.34614797 328.49394361 -19.67192319 326.57770212 -19.44239426 322.72601795 C-18.29595832 317.42524968 -15.39523194 312.99022098 -12.63184738 308.38422108 C-12.00520187 307.3047118 -11.37855637 306.22520252 -10.7329216 305.11298084 C-9.43763182 302.88336494 -8.1346733 300.65818721 -6.82423019 298.43744373 C-4.37728137 294.27615444 -1.98986303 290.08254561 0.39451981 285.88519764 C2.6240039 281.96146906 4.87040131 278.04750493 7.11815262 274.13422108 C5.87678543 274.1574242 4.63541824 274.18062733 3.35643387 274.20453358 C1.71451282 274.22329839 0.07258524 274.24149783 -1.56934738 274.25922108 C-2.38596848 274.27597889 -3.20258957 274.2927367 -4.04395676 274.31000233 C-9.19476688 274.35170929 -13.35024378 274.25599779 -17.47291183 270.80072498 C-19.53887641 268.35708017 -19.55512908 265.98164234 -19.44337082 262.87250233 C-18.21910677 256.9023521 -14.63457068 251.78598871 -11.50684738 246.63422108 C-10.77198199 245.39211575 -10.03891787 244.14894303 -9.30762863 242.90472889 C-7.85747518 240.44422064 -6.39705101 237.99037023 -4.92579269 235.5424242 C-2.64905338 231.74604571 -0.41180742 227.92791408 1.81981277 224.1049242 C3.57269479 221.10676421 5.34388595 218.11976595 7.11815262 215.13422108 C6.53847733 215.11963856 5.95880203 215.10505604 5.36156082 215.09003162 C2.71727709 215.01523579 0.0742126 214.9186821 -2.56934738 214.82172108 C-3.93736496 214.78788319 -3.93736496 214.78788319 -5.33301926 214.7533617 C-10.2526627 214.55657596 -13.92702248 214.39634752 -17.88184738 211.13422108 C-19.6683853 207.56114524 -19.49537115 203.97801884 -18.88184738 200.13422108 C-17.18663265 196.13941071 -14.93875188 192.55225317 -12.63184738 188.88422108 C-11.35208405 186.77552388 -10.07346174 184.66613383 -8.79590988 182.55609608 C-8.14525558 181.49455311 -7.49460129 180.43301014 -6.82423019 179.3392992 C-3.78653978 174.32688093 -0.89608137 169.23318076 1.99315262 164.13422108 C2.9903035 162.38408149 3.98767471 160.6340674 4.98534012 158.88422108 C5.69644506 157.63431632 6.40745366 156.38435672 7.11815262 155.13422108 C6.50818436 155.13011219 5.89821609 155.1260033 5.26976395 155.12176991 C2.48909469 155.08874533 -0.28940895 155.0180954 -3.06934738 154.94672108 C-4.50890793 154.93801991 -4.50890793 154.93801991 -5.97755051 154.92914295 C-10.51057243 154.78797618 -13.1865642 154.58320468 -17.05762863 152.08343983 C-18.89848554 149.10732213 -19.71778132 147.05709078 -19.47803879 143.53509998 C-18.10518189 138.00656815 -14.92949357 133.19396216 -12.06934738 128.32172108 C-11.38482956 127.12750768 -10.70181684 125.93243036 -10.02027512 124.736516 C-8.64853435 122.33677563 -7.26693561 119.9432092 -5.87501144 117.55511951 C-4.05062827 114.42390235 -2.24057467 111.28500083 -0.43653488 108.14203358 C2.06326722 103.79515329 4.58334917 99.46077748 7.11815262 95.13422108 C6.10494949 95.10843983 5.09174637 95.08265858 4.04784012 95.05609608 C2.69623665 94.99977927 1.34467581 94.94243275 -0.00684738 94.88422108 C-0.67200363 94.87004139 -1.33715988 94.8558617 -2.02247238 94.84125233 C-7.06150236 94.59424105 -9.96913958 93.25747237 -13.88184738 90.13422108 C-18.16457235 85.27274949 -19.00832634 82.84186361 -19.05884933 76.39301014 C-19.06542053 75.70009876 -19.07199173 75.00718739 -19.07876205 74.29327869 C-19.09850456 71.99546675 -19.1101609 69.69772024 -19.12012863 67.39984608 C-19.12420416 66.61482464 -19.12827969 65.8298032 -19.13247871 65.02099323 C-19.15334548 60.86440258 -19.16764343 56.70784498 -19.1770134 52.55121326 C-19.18806739 48.2626701 -19.22245338 43.97464732 -19.2621851 39.68628788 C-19.28836477 36.38508628 -19.2967065 33.08400826 -19.30029488 29.78271198 C-19.30515892 28.2022981 -19.31676783 26.62188966 -19.33533287 25.04157734 C-19.35975005 22.82497274 -19.35875524 20.60970879 -19.35181808 18.39301014 C-19.35768433 17.13329395 -19.36355057 15.87357777 -19.36959457 14.57568836 C-18.62488081 9.32110546 -16.17180071 6.27060853 -12.25684738 2.82172108 C-8.11820335 -0.11889442 -4.93914651 -0.00940479 0 0 Z M-0.88184738 18.13422108 C-0.88184738 37.27422108 -0.88184738 56.41422108 -0.88184738 76.13422108 C156.19815262 76.13422108 313.27815262 76.13422108 475.11815262 76.13422108 C475.11815262 56.99422108 475.11815262 37.85422108 475.11815262 18.13422108 C318.03815262 18.13422108 160.95815262 18.13422108 -0.88184738 18.13422108 Z M21.40037918 101.91107655 C19.35925274 106.20472716 17.64671918 110.50320884 16.19334793 115.02972889 C14.62423995 119.56033223 12.24689131 123.4447352 9.74315262 127.50922108 C7.12724644 131.57189075 7.12724644 131.57189075 6.11815262 136.13422108 C28.55815262 136.13422108 50.99815262 136.13422108 74.11815262 136.13422108 C74.11815262 122.27422108 74.11815262 108.41422108 74.11815262 94.13422108 C44.9261698 89.59177225 44.9261698 89.59177225 21.40037918 101.91107655 Z M92.11815262 94.13422108 C92.11815262 107.99422108 92.11815262 121.85422108 92.11815262 136.13422108 C97.72815262 136.13422108 103.33815262 136.13422108 109.11815262 136.13422108 C109.11815262 122.27422108 109.11815262 108.41422108 109.11815262 94.13422108 C103.50815262 94.13422108 97.89815262 94.13422108 92.11815262 94.13422108 Z M127.11815262 94.13422108 C127.11815262 107.99422108 127.11815262 121.85422108 127.11815262 136.13422108 C199.71815262 136.13422108 272.31815262 136.13422108 347.11815262 136.13422108 C347.11815262 122.27422108 347.11815262 108.41422108 347.11815262 94.13422108 C274.51815262 94.13422108 201.91815262 94.13422108 127.11815262 94.13422108 Z M365.11815262 94.13422108 C365.11815262 107.99422108 365.11815262 121.85422108 365.11815262 136.13422108 C370.72815262 136.13422108 376.33815262 136.13422108 382.11815262 136.13422108 C382.11815262 122.27422108 382.11815262 108.41422108 382.11815262 94.13422108 C376.50815262 94.13422108 370.89815262 94.13422108 365.11815262 94.13422108 Z M400.11815262 94.13422108 C400.11815262 107.99422108 400.11815262 121.85422108 400.11815262 136.13422108 C405.39815262 136.13422108 410.67815262 136.13422108 416.11815262 136.13422108 C416.11815262 122.27422108 416.11815262 108.41422108 416.11815262 94.13422108 C410.83815262 94.13422108 405.55815262 94.13422108 400.11815262 94.13422108 Z M434.11815262 94.13422108 C434.11815262 107.99422108 434.11815262 121.85422108 434.11815262 136.13422108 C445.33815262 136.13422108 456.55815262 136.13422108 468.11815262 136.13422108 C466.63773662 131.69297308 465.41692689 128.62246467 463.10643387 124.72015858 C462.21601395 123.20615467 462.21601395 123.20615467 461.30760574 121.66156483 C460.68821121 120.62129139 460.06881668 119.58101795 459.43065262 118.50922108 C458.21841304 116.45453358 457.00617345 114.39984608 455.79393387 112.34515858 C454.87281815 110.82680408 454.87281815 110.82680408 453.93309402 109.27777576 C452.11815262 106.13422108 452.11815262 106.13422108 450.48680496 102.68597889 C449.94620438 101.58866444 449.40560379 100.49134998 448.84862137 99.36078358 C448.39253494 98.35869862 447.93644852 97.35661366 447.46654129 96.32416248 C444.31252025 92.88388051 444.31252025 92.88388051 434.11815262 94.13422108 Z M22.03972244 164.21355152 C21.35960251 165.77218835 20.69936731 167.33966541 20.06010818 168.91550159 C18.68562077 172.15302373 16.92023729 175.01188404 15.07909012 178.00922108 C13.8834992 180.05072471 12.68817943 182.09238718 11.49315262 184.13422108 C10.55922684 185.72363514 10.55922684 185.72363514 9.60643387 187.34515858 C9.01991043 188.3480492 8.43338699 189.35093983 7.82909012 190.38422108 C7.30621414 191.27625233 6.78333817 192.16828358 6.24461746 193.08734608 C5.03779539 194.89084162 5.03779539 194.89084162 5.11815262 196.13422108 C27.88815262 196.13422108 50.65815262 196.13422108 74.11815262 196.13422108 C74.11815262 182.27422108 74.11815262 168.41422108 74.11815262 154.13422108 C67.87903778 153.74138792 61.68308783 153.40475295 55.44139481 153.20038319 C53.32565695 153.11526915 51.21090865 152.99951209 49.09862137 152.85175037 C36.27840736 151.97791975 27.9809634 151.76320252 22.03972244 164.21355152 Z M92.11815262 154.13422108 C92.11815262 167.99422108 92.11815262 181.85422108 92.11815262 196.13422108 C97.72815262 196.13422108 103.33815262 196.13422108 109.11815262 196.13422108 C109.11815262 182.27422108 109.11815262 168.41422108 109.11815262 154.13422108 C103.50815262 154.13422108 97.89815262 154.13422108 92.11815262 154.13422108 Z M127.11815262 154.13422108 C127.11815262 167.99422108 127.11815262 181.85422108 127.11815262 196.13422108 C199.71815262 196.13422108 272.31815262 196.13422108 347.11815262 196.13422108 C347.11815262 182.27422108 347.11815262 168.41422108 347.11815262 154.13422108 C274.51815262 154.13422108 201.91815262 154.13422108 127.11815262 154.13422108 Z M365.11815262 154.13422108 C365.11815262 167.99422108 365.11815262 181.85422108 365.11815262 196.13422108 C370.72815262 196.13422108 376.33815262 196.13422108 382.11815262 196.13422108 C382.11815262 182.27422108 382.11815262 168.41422108 382.11815262 154.13422108 C376.50815262 154.13422108 370.89815262 154.13422108 365.11815262 154.13422108 Z M400.11815262 154.13422108 C400.11815262 167.99422108 400.11815262 181.85422108 400.11815262 196.13422108 C405.39815262 196.13422108 410.67815262 196.13422108 416.11815262 196.13422108 C416.11815262 182.27422108 416.11815262 168.41422108 416.11815262 154.13422108 C410.83815262 154.13422108 405.55815262 154.13422108 400.11815262 154.13422108 Z M434.11815262 154.13422108 C434.11815262 167.99422108 434.11815262 181.85422108 434.11815262 196.13422108 C445.66815262 196.13422108 457.21815262 196.13422108 469.11815262 196.13422108 C464.12421748 186.77059268 459.11825384 177.51838002 453.74315262 168.38422108 C453.12826981 167.33234608 452.51338699 166.28047108 451.87987137 165.19672108 C448.60576838 159.59913217 448.60576838 159.59913217 445.11815262 154.13422108 C441.48815262 154.13422108 437.85815262 154.13422108 434.11815262 154.13422108 Z M24.14159012 219.86859608 C23.07827338 222.2666207 22.07052172 224.69001207 21.11815262 227.13422108 C19.89278609 229.35168185 18.63513494 231.55163145 17.34471512 233.73187733 C16.14133335 235.88522893 14.94079921 238.04017443 13.74315262 240.19672108 C12.8208284 241.84704334 12.8208284 241.84704334 11.87987137 243.53070545 C9.55297783 247.70332964 7.2551225 251.86028131 5.11815262 256.13422108 C27.88815262 256.13422108 50.65815262 256.13422108 74.11815262 256.13422108 C74.11815262 242.27422108 74.11815262 228.41422108 74.11815262 214.13422108 C67.84811544 213.83455018 61.60304719 213.57653666 55.33153152 213.42010975 C53.20274462 213.3549296 51.07453557 213.26634974 48.94774246 213.15350819 C34.6183655 211.77825247 34.6183655 211.77825247 24.14159012 219.86859608 Z M92.11815262 214.13422108 C92.11815262 227.99422108 92.11815262 241.85422108 92.11815262 256.13422108 C97.72815262 256.13422108 103.33815262 256.13422108 109.11815262 256.13422108 C109.11815262 242.27422108 109.11815262 228.41422108 109.11815262 214.13422108 C103.50815262 214.13422108 97.89815262 214.13422108 92.11815262 214.13422108 Z M127.11815262 214.13422108 C127.11815262 227.99422108 127.11815262 241.85422108 127.11815262 256.13422108 C199.71815262 256.13422108 272.31815262 256.13422108 347.11815262 256.13422108 C347.11815262 242.27422108 347.11815262 228.41422108 347.11815262 214.13422108 C274.51815262 214.13422108 201.91815262 214.13422108 127.11815262 214.13422108 Z M365.11815262 214.13422108 C365.11815262 227.99422108 365.11815262 241.85422108 365.11815262 256.13422108 C370.72815262 256.13422108 376.33815262 256.13422108 382.11815262 256.13422108 C382.11815262 242.27422108 382.11815262 228.41422108 382.11815262 214.13422108 C376.50815262 214.13422108 370.89815262 214.13422108 365.11815262 214.13422108 Z M400.11815262 214.13422108 C400.11815262 227.99422108 400.11815262 241.85422108 400.11815262 256.13422108 C405.39815262 256.13422108 410.67815262 256.13422108 416.11815262 256.13422108 C416.11815262 242.27422108 416.11815262 228.41422108 416.11815262 214.13422108 C410.83815262 214.13422108 405.55815262 214.13422108 400.11815262 214.13422108 Z M434.11815262 214.13422108 C434.11815262 227.99422108 434.11815262 241.85422108 434.11815262 256.13422108 C445.66815262 256.13422108 457.21815262 256.13422108 469.11815262 256.13422108 C464.90412211 248.40849847 460.68419314 240.68733956 456.42161942 232.98846912 C455.75440863 231.78209811 455.08841567 230.57505284 454.42357254 229.36737537 C453.44572576 227.59144182 452.46399974 225.81770333 451.48143387 224.04437733 C450.90691483 223.00418446 450.33239578 221.96399158 449.74046707 220.89227772 C448.01563069 217.84257565 448.01563069 217.84257565 445.11815262 214.13422108 C441.48815262 214.13422108 437.85815262 214.13422108 434.11815262 214.13422108 Z M23.11815262 283.13422108 C22.11510086 284.8275658 22.11510086 284.8275658 21.09178543 286.55511951 C20.50751785 287.60731678 19.92325027 288.65951405 19.32127762 289.74359608 C19.00156998 290.31829639 18.68186234 290.89299671 18.35246658 291.48511219 C17.68868746 292.68043525 17.02675825 293.87678748 16.36668777 295.07416248 C15.36061943 296.89787658 14.34723102 298.71738204 13.33299637 300.53656483 C12.68282281 301.70950146 12.03306797 302.88267031 11.38377762 304.05609608 C10.80402176 305.10378162 10.2242659 306.15146717 9.62694168 307.23090076 C7.90680746 310.42430488 7.90680746 310.42430488 6.11815262 315.13422108 C28.55815262 315.13422108 50.99815262 315.13422108 74.11815262 315.13422108 C74.11815262 301.60422108 74.11815262 288.07422108 74.11815262 274.13422108 C67.81561386 273.92720338 61.52490315 273.74826352 55.22166824 273.63983631 C53.07965983 273.59464421 50.93792802 273.53327453 48.79686356 273.455266 C45.71316246 273.34574737 42.63313443 273.29498814 39.54784012 273.25531483 C38.59448776 273.20886326 37.64113541 273.16241169 36.65889359 273.1145525 C28.73108432 273.10856774 26.55260322 276.34479971 23.11815262 283.13422108 Z M92.11815262 274.13422108 C92.11815262 287.66422108 92.11815262 301.19422108 92.11815262 315.13422108 C97.72815262 315.13422108 103.33815262 315.13422108 109.11815262 315.13422108 C109.11815262 301.60422108 109.11815262 288.07422108 109.11815262 274.13422108 C103.50815262 274.13422108 97.89815262 274.13422108 92.11815262 274.13422108 Z M127.11815262 274.13422108 C127.11815262 287.66422108 127.11815262 301.19422108 127.11815262 315.13422108 C199.71815262 315.13422108 272.31815262 315.13422108 347.11815262 315.13422108 C347.11815262 301.60422108 347.11815262 288.07422108 347.11815262 274.13422108 C274.51815262 274.13422108 201.91815262 274.13422108 127.11815262 274.13422108 Z M365.11815262 274.13422108 C365.11815262 287.66422108 365.11815262 301.19422108 365.11815262 315.13422108 C370.72815262 315.13422108 376.33815262 315.13422108 382.11815262 315.13422108 C382.11815262 301.60422108 382.11815262 288.07422108 382.11815262 274.13422108 C376.50815262 274.13422108 370.89815262 274.13422108 365.11815262 274.13422108 Z M400.11815262 274.13422108 C400.11815262 287.66422108 400.11815262 301.19422108 400.11815262 315.13422108 C422.55815262 315.13422108 444.99815262 315.13422108 468.11815262 315.13422108 C466.54328545 311.19705315 464.89384647 307.74499412 462.85252762 304.05609608 C462.53664688 303.48522266 462.22076614 302.91434925 461.89531326 302.32617664 C461.22775582 301.12187887 460.55868028 299.91842148 459.88817215 298.71576405 C458.88037341 296.90616468 457.87983207 295.0926919 456.87987137 293.27875233 C454.99635355 289.87561987 453.06596242 286.50103169 451.11815262 283.13422108 C450.58496414 282.19521961 450.05177567 281.25621815 449.50242996 280.28876209 C446.79993416 275.56787502 446.79993416 275.56787502 442.12596512 273.25531483 C440.69897293 273.41193592 440.69897293 273.41193592 439.24315262 273.57172108 C438.27635574 273.65293201 437.30955887 273.73414295 436.31346512 273.81781483 C435.58901199 273.92222889 434.86455887 274.02664295 434.11815262 274.13422108 C434.10397293 275.44777576 434.08979324 276.76133045 434.07518387 278.11468983 C434.02827274 279.85040159 433.98002541 281.58607759 433.93065262 283.32172108 C433.92485184 284.18603748 433.91905106 285.05035389 433.91307449 285.9408617 C433.75860212 290.4205605 433.56411547 292.54459234 430.79002762 296.21234608 C428.11815262 298.13422108 428.11815262 298.13422108 424.55565262 298.69672108 C421.11815262 298.13422108 421.11815262 298.13422108 418.95018387 296.73968983 C416.11977494 292.71435346 416.44226863 288.69502415 416.36815262 283.88422108 C416.33850418 282.9483617 416.30885574 282.01250233 416.27830887 281.04828358 C416.20777133 278.74405726 416.1606787 276.43913453 416.11815262 274.13422108 C410.83815262 274.13422108 405.55815262 274.13422108 400.11815262 274.13422108 Z M21.40037918 340.91107655 C19.35925274 345.20472716 17.64671918 349.50320884 16.19334793 354.02972889 C14.62423995 358.56033223 12.24689131 362.4447352 9.74315262 366.50922108 C7.12724644 370.57189075 7.12724644 370.57189075 6.11815262 375.13422108 C28.55815262 375.13422108 50.99815262 375.13422108 74.11815262 375.13422108 C74.11815262 361.27422108 74.11815262 347.41422108 74.11815262 333.13422108 C44.9261698 328.59177225 44.9261698 328.59177225 21.40037918 340.91107655 Z M92.11815262 333.13422108 C92.11815262 346.99422108 92.11815262 360.85422108 92.11815262 375.13422108 C97.72815262 375.13422108 103.33815262 375.13422108 109.11815262 375.13422108 C109.11815262 361.27422108 109.11815262 347.41422108 109.11815262 333.13422108 C103.50815262 333.13422108 97.89815262 333.13422108 92.11815262 333.13422108 Z M127.11815262 333.13422108 C127.11815262 346.99422108 127.11815262 360.85422108 127.11815262 375.13422108 C199.71815262 375.13422108 272.31815262 375.13422108 347.11815262 375.13422108 C347.11815262 361.27422108 347.11815262 347.41422108 347.11815262 333.13422108 C274.51815262 333.13422108 201.91815262 333.13422108 127.11815262 333.13422108 Z M365.11815262 333.13422108 C365.11815262 346.99422108 365.11815262 360.85422108 365.11815262 375.13422108 C370.72815262 375.13422108 376.33815262 375.13422108 382.11815262 375.13422108 C382.11815262 361.27422108 382.11815262 347.41422108 382.11815262 333.13422108 C376.50815262 333.13422108 370.89815262 333.13422108 365.11815262 333.13422108 Z M400.11815262 333.13422108 C400.11815262 346.99422108 400.11815262 360.85422108 400.11815262 375.13422108 C422.55815262 375.13422108 444.99815262 375.13422108 468.11815262 375.13422108 C466.63773662 370.69297308 465.41692689 367.62246467 463.10643387 363.72015858 C462.21601395 362.20615467 462.21601395 362.20615467 461.30760574 360.66156483 C460.68821121 359.62129139 460.06881668 358.58101795 459.43065262 357.50922108 C458.21841304 355.45453358 457.00617345 353.39984608 455.79393387 351.34515858 C455.16446854 350.33195545 454.5350032 349.31875233 453.88646317 348.27484608 C452.11815262 345.13422108 452.11815262 345.13422108 450.9064827 341.71234608 C449.38647755 337.88305338 448.29669921 335.79165265 445.11815262 333.13422108 C437.73426793 331.11704672 429.7346064 332.01576379 422.18065262 332.38422108 C420.04473389 332.44444709 417.90865319 332.49919425 415.77244949 332.54828358 C410.54712057 332.67003881 405.34427518 332.9045014 400.11815262 333.13422108 Z M22.03972244 403.21355152 C21.35960251 404.77218835 20.69936731 406.33966541 20.06010818 407.91550159 C18.68562077 411.15302373 16.92023729 414.01188404 15.07909012 417.00922108 C13.8834992 419.05072471 12.68817943 421.09238718 11.49315262 423.13422108 C10.55922684 424.72363514 10.55922684 424.72363514 9.60643387 426.34515858 C9.01991043 427.3480492 8.43338699 428.35093983 7.82909012 429.38422108 C7.30621414 430.27625233 6.78333817 431.16828358 6.24461746 432.08734608 C5.03779539 433.89084162 5.03779539 433.89084162 5.11815262 435.13422108 C27.88815262 435.13422108 50.65815262 435.13422108 74.11815262 435.13422108 C74.11815262 421.27422108 74.11815262 407.41422108 74.11815262 393.13422108 C67.87903778 392.74138792 61.68308783 392.40475295 55.44139481 392.20038319 C53.32565695 392.11526915 51.21090865 391.99951209 49.09862137 391.85175037 C36.27840736 390.97791975 27.9809634 390.76320252 22.03972244 403.21355152 Z M92.11815262 393.13422108 C92.11815262 406.99422108 92.11815262 420.85422108 92.11815262 435.13422108 C97.72815262 435.13422108 103.33815262 435.13422108 109.11815262 435.13422108 C109.11815262 421.27422108 109.11815262 407.41422108 109.11815262 393.13422108 C103.50815262 393.13422108 97.89815262 393.13422108 92.11815262 393.13422108 Z M127.11815262 393.13422108 C127.11815262 406.99422108 127.11815262 420.85422108 127.11815262 435.13422108 C199.71815262 435.13422108 272.31815262 435.13422108 347.11815262 435.13422108 C347.11815262 421.27422108 347.11815262 407.41422108 347.11815262 393.13422108 C274.51815262 393.13422108 201.91815262 393.13422108 127.11815262 393.13422108 Z M365.11815262 393.13422108 C365.11815262 406.99422108 365.11815262 420.85422108 365.11815262 435.13422108 C370.72815262 435.13422108 376.33815262 435.13422108 382.11815262 435.13422108 C382.11815262 421.27422108 382.11815262 407.41422108 382.11815262 393.13422108 C376.50815262 393.13422108 370.89815262 393.13422108 365.11815262 393.13422108 Z M400.11815262 393.13422108 C400.11815262 406.99422108 400.11815262 420.85422108 400.11815262 435.13422108 C422.88815262 435.13422108 445.65815262 435.13422108 469.11815262 435.13422108 C464.12421748 425.77059268 459.11825384 416.51838002 453.74315262 407.38422108 C453.12826981 406.33234608 452.51338699 405.28047108 451.87987137 404.19672108 C448.60576838 398.59913217 448.60576838 398.59913217 445.11815262 393.13422108 C443.10477897 392.69760481 443.10477897 392.69760481 440.76024246 392.79364491 C439.85945969 392.7938715 438.95867691 392.79409809 438.03059769 392.79433155 C437.05660019 392.80981541 436.08260269 392.82529926 435.07909012 392.84125233 C433.58510193 392.84761959 433.58510193 392.84761959 432.06093216 392.85411549 C428.87140037 392.87094427 425.68249429 392.90860432 422.49315262 392.94672108 C420.33430756 392.96176248 418.17545262 392.97545182 416.01659012 392.9877367 C410.7166744 393.01831314 405.41811605 393.07702723 400.11815262 393.13422108 Z M24.14549637 458.86468983 C23.08164183 461.26433833 22.07268226 463.6890273 21.11815262 466.13422108 C19.88139293 468.36365592 18.61198357 470.57531185 17.30955887 472.76703358 C16.09707073 474.92949903 14.88742209 477.0935591 13.68065262 479.25922108 C13.0573909 480.36781483 12.43412918 481.47640858 11.79198074 482.61859608 C8.58241848 488.20786447 8.58241848 488.20786447 6.11815262 494.13422108 C28.55815262 494.13422108 50.99815262 494.13422108 74.11815262 494.13422108 C74.11815262 480.60422108 74.11815262 467.07422108 74.11815262 453.13422108 C67.84811544 452.83455018 61.60304719 452.57653666 55.33153152 452.42010975 C53.20274462 452.3549296 51.07453557 452.26634974 48.94774246 452.15350819 C34.62083946 450.77790792 34.62083946 450.77790792 24.14549637 458.86468983 Z M92.11815262 453.13422108 C92.11815262 466.66422108 92.11815262 480.19422108 92.11815262 494.13422108 C97.72815262 494.13422108 103.33815262 494.13422108 109.11815262 494.13422108 C109.11815262 480.60422108 109.11815262 467.07422108 109.11815262 453.13422108 C103.50815262 453.13422108 97.89815262 453.13422108 92.11815262 453.13422108 Z M127.11815262 453.13422108 C127.11815262 466.66422108 127.11815262 480.19422108 127.11815262 494.13422108 C199.71815262 494.13422108 272.31815262 494.13422108 347.11815262 494.13422108 C347.11815262 480.60422108 347.11815262 467.07422108 347.11815262 453.13422108 C274.51815262 453.13422108 201.91815262 453.13422108 127.11815262 453.13422108 Z M365.11815262 453.13422108 C365.11815262 466.66422108 365.11815262 480.19422108 365.11815262 494.13422108 C370.72815262 494.13422108 376.33815262 494.13422108 382.11815262 494.13422108 C382.11815262 480.60422108 382.11815262 467.07422108 382.11815262 453.13422108 C376.50815262 453.13422108 370.89815262 453.13422108 365.11815262 453.13422108 Z M400.11815262 453.13422108 C400.11815262 466.66422108 400.11815262 480.19422108 400.11815262 494.13422108 C422.55815262 494.13422108 444.99815262 494.13422108 468.11815262 494.13422108 C466.54328545 490.19705315 464.89384647 486.74499412 462.85252762 483.05609608 C462.53664688 482.48522266 462.22076614 481.91434925 461.89531326 481.32617664 C461.22775582 480.12187887 460.55868028 478.91842148 459.88817215 477.71576405 C458.88037341 475.90616468 457.87983207 474.0926919 456.87987137 472.27875233 C456.2253625 471.10012299 455.57042744 469.92173021 454.91502762 468.74359608 C454.03862625 467.16530018 454.03862625 467.16530018 453.14451981 465.55511951 C452.47581863 464.42622303 451.80711746 463.29732655 451.11815262 462.13422108 C450.72018478 461.34749516 450.32221695 460.56076923 449.91218948 459.75020313 C447.33202561 455.00910722 447.33202561 455.00910722 442.84984207 452.35556507 C440.08559125 452.09141715 437.46194428 452.12017858 434.68846512 452.25531483 C433.69813278 452.26804935 432.70780045 452.28078388 431.68745804 452.2939043 C428.53682183 452.34412832 425.39203442 452.45699326 422.24315262 452.57172108 C420.10261106 452.61688223 417.96197883 452.65794396 415.82127762 452.69476795 C410.58286057 452.78613569 405.35701531 452.96214165 400.11815262 453.13422108 Z " fill="#000000" transform="translate(18.881847381591797,-0.13422107696533203)"/>
<path d="M0 0 C1.86723976 -0.00361794 1.86723976 -0.00361794 3.77220154 -0.00730896 C7.07016189 -0.0060812 10.36692146 0.01892563 13.66467285 0.0524292 C15.68354423 0.06640591 17.70157421 0.06281998 19.72045898 0.05249023 C23.60569661 0.03372097 27.48978312 0.04313879 31.375 0.0625 C32.57717667 0.05754013 33.77935333 0.05258026 35.01795959 0.04747009 C43.33562062 0.16492744 43.33562062 0.16492744 47.35522461 2.53930664 C49.66139725 5.26826166 50.08671282 6.32520808 50.49609375 9.94140625 C50.1275788 13.56513659 49.70167659 15.13692296 47.03540039 17.60101318 C42.51277137 20.02945328 36.89678955 19.33343879 31.90234375 19.29296875 C29.96639343 19.3001442 29.96639343 19.3001442 27.99133301 19.3074646 C25.26426145 19.31482055 22.53801095 19.3041741 19.81103516 19.28076172 C16.32356669 19.25227182 12.83802203 19.26868308 9.35062408 19.29862404 C6.01354498 19.32108525 2.67697744 19.30533757 -0.66015625 19.29296875 C-1.90921753 19.3030899 -3.15827881 19.31321106 -4.44519043 19.32363892 C-14.06767651 19.19342767 -14.06767651 19.19342767 -17.16137695 16.21630859 C-18.79420624 13.75650408 -19.58401644 12.54045693 -19.56640625 9.62890625 C-19.59089844 8.98953125 -19.61539063 8.35015625 -19.640625 7.69140625 C-16.42953933 -1.00322573 -7.72438892 -0.08533213 0 0 Z " fill="#000000" transform="translate(103.87890625,41.37109375)"/>
<path d="M0 0 C0.99837891 -0.020625 1.99675781 -0.04125 3.02539062 -0.0625 C12.20814579 -0.11144207 12.20814579 -0.11144207 16.1875 3.25 C18.28851595 5.9240203 18.18596976 7.29284685 18.0625 10.75 C17.08402817 14.66388731 16.30321568 15.78963277 13.1875 18.25 C9.08111524 19.0705259 4.92923603 18.85279893 0.75 18.8125 C-0.38244141 18.83634766 -1.51488281 18.86019531 -2.68164062 18.88476562 C-10.92894759 18.87018582 -10.92894759 18.87018582 -15.0625 15.96875 C-17.72374777 11.83431149 -17.50478742 10.09601196 -16.8125 5.25 C-12.15294049 -0.80742736 -7.07661876 0.03612824 0 0 Z " fill="#000000" transform="translate(50.8125,41.75)"/>
</svg>
