<?xml version="1.0" encoding="UTF-8"?>
<svg version="1.1" xmlns="http://www.w3.org/2000/svg" width="512" height="512">
<path d="M0 0 C0.57715136 0.51118771 1.15430272 1.02237542 1.74894351 1.54905367 C4.61946846 3.39928606 6.4117983 3.37793861 9.81377888 3.38311005 C11.00874747 3.39216669 12.20371606 3.40122333 13.43489581 3.41055441 C14.74917393 3.40522648 16.06345204 3.39989856 17.41755676 3.39440918 C18.82670682 3.39929682 20.23585286 3.40548604 21.64499205 3.41286707 C25.52183862 3.4293063 29.39848236 3.42694061 33.27535164 3.4214921 C37.45475725 3.41882675 41.63410819 3.43334445 45.81349182 3.44558716 C54.00357156 3.46666512 62.19358054 3.47118063 70.3836842 3.46939927 C77.04019344 3.46809271 83.69668057 3.47189038 90.35318565 3.47932434 C92.2691012 3.4814235 94.18501675 3.4835211 96.1009323 3.48561716 C97.5312612 3.48718245 97.5312612 3.48718245 98.99048563 3.48877937 C117.03445072 3.50769164 135.07837517 3.50662866 153.12234607 3.49981004 C169.6329352 3.49423516 186.14336914 3.51505588 202.653922 3.54817051 C219.60089179 3.58189696 236.54778722 3.59707706 253.49479121 3.59245348 C263.01163317 3.59020756 272.52833172 3.59546968 282.04514503 3.62034607 C290.14803825 3.64134583 298.25070945 3.64496452 306.35361174 3.62604648 C310.48822449 3.61687997 314.62242314 3.61577316 318.75700378 3.63640213 C322.54281996 3.65508207 326.32788205 3.65064301 330.11366924 3.62785631 C332.13042208 3.6216777 334.14720407 3.64008675 336.16387397 3.65939283 C343.55240892 3.58687475 347.46831706 2.98199955 353 -2 C361.09281729 -5.53257897 372.26824086 -5.43279139 380.5625 -2.375 C389.12475298 1.73373214 394.55763971 7.98009788 398.109375 16.734375 C400.32516217 24.85892795 400.49757202 35.0553842 396.8125 42.75 C394.64474302 46.35275104 392.21773501 49.26492524 389 52 C387.9171875 53.0209375 387.9171875 53.0209375 386.8125 54.0625 C377.86673873 60.22513554 368.58583418 61.27243865 358 60 C353.33735313 58.44769373 349.48297246 56.48297246 346 53 C342.37 52.67 338.74 52.34 335 52 C335 134.17 335 216.34 335 301 C336.65 301.66 338.3 302.32 340 303 C345.31992715 306.47288383 349.33975359 310.79126787 351 317 C351.789232 323.96476902 352.13211054 331.07571681 348.40625 337.25 C344.70293995 341.85856362 340.85032892 345.70272003 335 347 C335.00888245 348.15622864 335.01776489 349.31245728 335.0269165 350.50372314 C335.10795223 361.39236951 335.16794138 372.28095481 335.20724869 383.16983414 C335.22813628 388.76813561 335.25647564 394.36619394 335.30175781 399.96435547 C335.34517327 405.36544947 335.36912828 410.76630938 335.37950897 416.16756439 C335.38690804 418.22970007 335.40135647 420.29182274 335.42292023 422.35385895 C335.45189678 425.23911876 335.45595838 428.12340749 335.45410156 431.00878906 C335.47567322 432.29164543 335.47567322 432.29164543 335.49768066 433.60041809 C335.47258919 437.19628831 335.35718682 439.39471893 333.50665283 442.53059387 C329.89553696 444.64743898 326.5075485 444.55017205 322.43945312 444.50170898 C321.14611305 444.50981346 321.14611305 444.50981346 319.8266449 444.51808167 C316.97783026 444.53058431 314.13002321 444.51406785 311.28125 444.49609375 C309.30114692 444.4962487 307.32104353 444.49773706 305.34094238 444.50050354 C301.19151397 444.50188822 297.04243091 444.4893178 292.89306641 444.46655273 C287.57311844 444.43816801 282.2537444 444.44090456 276.93375397 444.45364285 C272.84510391 444.46059641 268.7565866 444.45281441 264.66795349 444.44038582 C262.70633961 444.43586819 260.74471149 444.43553724 258.78309631 444.43945122 C256.04194912 444.44236025 253.30159401 444.42587123 250.56054688 444.40405273 C249.74899643 444.40855438 248.93744598 444.41305603 248.1013031 444.41769409 C244.79454812 444.37394153 242.42500695 444.24002268 239.51452637 442.59632874 C237.70045286 440.68427377 237.27960184 439.45562202 236.8125 436.875 C236.60560547 435.81925781 236.60560547 435.81925781 236.39453125 434.7421875 C231.82406036 402.97515219 237.20069517 373.13962772 250 344 C249.39414062 343.72800781 248.78828125 343.45601563 248.1640625 343.17578125 C243.39308561 340.58360788 240.62000165 336.04804085 239 331 C238.18171476 323.03599129 238.05669282 315.59637453 243 309 C245.625 306 245.625 306 248 304 C248.66 304 249.32 304 250 304 C249.66379639 303.41847168 249.32759277 302.83694336 248.98120117 302.23779297 C219.16519796 250.50138407 198.94277869 195.28631772 191.75 135.8125 C191.66682526 135.12484558 191.58365051 134.43719116 191.49795532 133.72869873 C189.56283624 117.50502219 188.83679975 101.57273257 188.86962891 85.24780273 C188.87502999 82.04471189 188.86963319 78.8417587 188.86328125 75.63867188 C188.86394142 73.58333303 188.86522131 71.52799426 188.8671875 69.47265625 C188.86516327 68.52463638 188.86313904 67.57661652 188.86105347 66.59986877 C188.86578171 65.25698036 188.86578171 65.25698036 188.87060547 63.88696289 C188.87140106 63.10978409 188.87219666 62.33260529 188.87301636 61.53187561 C189.0332787 58.33646938 189.54753332 55.16726678 190 52 C179.77 52 169.54 52 159 52 C159.01110306 56.62571014 159.02220612 61.25142029 159.03364563 66.01730347 C159.1331448 108.43783285 159.20778706 150.85834842 159.25532665 193.27896898 C159.26158017 198.83897434 159.26805178 204.39897943 159.2746582 209.95898438 C159.27662553 211.61932684 159.27662553 211.61932684 159.2786326 213.31321158 C159.30038801 231.23494311 159.33981032 249.15659445 159.38576398 267.07827841 C159.43252478 285.4681435 159.46029461 303.85796658 159.47044247 322.24788868 C159.47730239 333.59510592 159.49896735 344.94209644 159.53958233 356.28924389 C159.566016 364.07084736 159.57399955 371.85233366 159.56750689 379.63397877 C159.56430499 384.12336384 159.56920658 388.6123528 159.59602737 393.1016674 C159.62042369 397.21527409 159.62154661 401.32821962 159.60449447 405.44185723 C159.60238811 406.92656089 159.60867701 408.4113064 159.62441591 409.89592813 C159.72227603 419.70044774 158.88931997 427.62431516 152.08804208 435.10214984 C145.35840149 441.59310263 138.81716989 444.21145628 129.5 444.5 C121.43384953 444.28155861 115.14083456 442.33985614 109 437 C106.91487715 438.00499164 104.93604444 439.04090181 102.984375 440.2890625 C95.30478821 444.88070355 87.64791737 445.12037796 79 444 C75.33067388 442.74615992 72.25426861 441.0812183 69 439 C67.67406246 438.31874244 66.34287117 437.64723971 65 437 C64.38511719 437.42152344 63.77023438 437.84304688 63.13671875 438.27734375 C62.32847656 438.82519531 61.52023438 439.37304688 60.6875 439.9375 C59.48673828 440.75541016 59.48673828 440.75541016 58.26171875 441.58984375 C52.19685567 445.37121779 43.92052571 444.89090694 37 444 C27.29429451 441.0446672 20.85669562 435.3324985 16.125 426.5 C13.38320652 417.96997585 13.86060728 409.12295005 13.87974548 400.25708008 C13.87930904 398.75287292 13.8784328 397.24866583 13.87715632 395.74445915 C13.87492564 391.62375288 13.87891309 387.50307271 13.88393438 383.38236976 C13.8882592 378.9339344 13.88679101 374.48550047 13.8860321 370.0370636 C13.88550816 362.33405204 13.88864147 354.63104897 13.89426994 346.92803955 C13.90240244 335.79082743 13.90500196 324.6536194 13.90625793 313.51640463 C13.9084457 295.44631821 13.91509833 277.37623631 13.92456055 259.30615234 C13.93374178 241.75439476 13.94081914 224.20263841 13.94506836 206.65087891 C13.94533108 205.5687013 13.94559381 204.48652369 13.94586449 203.37155282 C13.94716954 197.94250004 13.94843325 192.51344725 13.94967639 187.08439445 C13.96004044 142.05625984 13.97765128 97.02813015 14 52 C12.41056302 52.10287923 10.82216734 52.22192026 9.234375 52.34765625 C8.34975586 52.41218994 7.46513672 52.47672363 6.55371094 52.54321289 C3.20580755 53.14205871 1.27404296 54.53472529 -1.234375 56.74609375 C-7.9941176 61.54670741 -17.13346712 60.60927068 -25 60 C-32.22966292 58.4196941 -38.21088258 54.62987359 -43 49 C-49.0515294 39.23024233 -50.7449613 29.29382206 -48.3515625 17.91796875 C-45.25609531 8.45959678 -39.86492686 2.49583201 -31.11328125 -2.08984375 C-21.75085604 -6.12208973 -8.56714886 -5.56864676 0 0 Z M-30.375 19.625 C-32.57907893 24.20270239 -32.7971639 28.00552411 -32 33 C-29.67031069 37.83858548 -26.83858548 40.67031069 -22 43 C-17.00552411 43.7971639 -13.20270239 43.57907893 -8.625 41.375 C-5.04092287 38.13226355 -2.40464759 35.53524104 -1.6171875 30.6015625 C-1.36116081 24.91777006 -2.06373068 21.35061345 -6 17 C-10.35061345 13.06373068 -13.91777006 12.36116081 -19.6015625 12.6171875 C-24.53524104 13.40464759 -27.13226355 16.04092287 -30.375 19.625 Z M353.625 19.625 C351.42092107 24.20270239 351.2028361 28.00552411 352 33 C354.32968931 37.83858548 357.16141452 40.67031069 362 43 C366.99447589 43.7971639 370.79729761 43.57907893 375.375 41.375 C378.95907713 38.13226355 381.59535241 35.53524104 382.3828125 30.6015625 C382.63883919 24.91777006 381.93626932 21.35061345 378 17 C373.64938655 13.06373068 370.08222994 12.36116081 364.3984375 12.6171875 C359.46475896 13.40464759 356.86773645 16.04092287 353.625 19.625 Z M15 20 C15 25.28 15 30.56 15 36 C17.34861649 36.00586624 19.69723297 36.01173248 22.11701965 36.01777649 C44.20509118 36.07436559 66.29306416 36.14740503 88.38103199 36.23571491 C99.73781724 36.28072241 111.09457079 36.32012557 122.45141602 36.34643555 C132.3475167 36.36937558 142.24351745 36.40272863 152.13953894 36.44870156 C157.38169995 36.47268781 162.62376166 36.49138111 167.86597633 36.49761391 C172.79650214 36.50364041 177.7267737 36.5235515 182.65720558 36.55427551 C184.47005451 36.56309496 186.2829366 36.56677029 188.09580612 36.56500816 C190.56484443 36.56336547 193.03309834 36.57996767 195.50202942 36.60127258 C196.22478917 36.59642501 196.94754893 36.59157743 197.6922105 36.58658296 C200.58410116 36.62796485 202.53680996 36.67669604 204.94733715 38.35923004 C206.55584574 40.8663885 206.33637152 42.93722873 206.29296875 45.89135742 C206.28305908 47.10921432 206.27314941 48.32707123 206.26293945 49.58183289 C206.24440414 50.56203179 206.24440414 50.56203179 206.22549438 51.5620327 C206.18681963 53.64206104 206.16754565 55.72150463 206.15307617 57.80183411 C206.11313607 62.99569141 206.04252199 68.18903293 205.96887207 73.38250732 C205.10872256 134.78992828 215.737831 195.69596122 241.89013672 251.61865234 C242.93303134 253.85631053 243.94208512 256.10590003 244.94140625 258.36328125 C251.42493041 272.81613719 259.21703354 286.82555032 268 300 C284.5 300 301 300 318 300 C318 218.16 318 136.32 318 52 C290.61 51.67 263.22 51.34 235 51 C232 48 232 48 231.6015625 46.0625 C231.60929688 45.381875 231.61703125 44.70125 231.625 44 C231.61726562 43.319375 231.60953125 42.63875 231.6015625 41.9375 C232.12226616 39.40545083 233.00435744 38.61479323 235 37 C236.93088055 36.61523914 236.93088055 36.61523914 239.15715027 36.60127258 C240.00268967 36.58873444 240.84822906 36.57619629 241.71939087 36.5632782 C242.64367889 36.56471329 243.56796692 36.56614838 244.52026367 36.56762695 C245.49605881 36.5574353 246.47185394 36.54724365 247.47721863 36.53674316 C250.7075263 36.50651174 253.93753795 36.49733163 257.16796875 36.48828125 C259.40571588 36.47144211 261.6434535 36.45329292 263.88117981 36.43388367 C269.77482128 36.38629461 275.66842423 36.3565428 281.56219482 36.33044434 C287.57474375 36.30068375 293.58715983 36.254138 299.59960938 36.20898438 C311.39967022 36.12284991 323.19975833 36.05554973 335 36 C335 30.72 335 25.44 335 20 C229.4 20 123.8 20 15 20 Z M31 52 C30.93156593 97.96345322 30.87847288 143.92689972 30.84680401 189.89039388 C30.84305188 195.31649639 30.83916891 200.74259881 30.83520508 206.16870117 C30.83441815 207.24894293 30.83363122 208.32918468 30.83282044 209.44216103 C30.81976563 226.93451724 30.79611136 244.42684387 30.76854161 261.91918253 C30.74048952 279.8672111 30.72382415 297.81522418 30.71773452 315.76327378 C30.71361768 326.83865275 30.7006137 337.91394814 30.6762506 348.98930139 C30.66039585 356.58352756 30.65559906 364.1777105 30.65949587 371.77195203 C30.66141781 376.15377589 30.65846624 380.53545368 30.64238358 384.91725159 C30.62775815 388.93136738 30.62706473 392.94523918 30.63730332 396.95936633 C30.63856828 398.40905072 30.63478509 399.85875049 30.62535045 401.30840474 C30.48934937 412.50748015 30.48934937 412.50748015 34 423 C37.25573115 426.17821374 39.98868963 427.26879202 44.4375 427.625 C49.00615825 427.43174034 51.41982347 425.6689155 54.6875 422.60546875 C57.25200328 419.46853171 57.1323786 416.36706139 57.15771484 412.49047852 C57.17310806 410.79841026 57.17310806 410.79841026 57.18881226 409.07215881 C57.19611359 407.85338547 57.20341492 406.63461212 57.2109375 405.37890625 C57.23899893 402.80923834 57.26766334 400.23957696 57.296875 397.66992188 C57.33934635 393.60997938 57.37613335 389.55007805 57.40136719 385.48999023 C57.42633448 381.57774259 57.47477291 377.66593255 57.5234375 373.75390625 C57.52669037 372.53715714 57.52994324 371.32040802 57.53329468 370.06678772 C57.54986115 368.93559006 57.56642761 367.8043924 57.58349609 366.63891602 C57.59158295 365.6442482 57.5996698 364.64958038 57.60800171 363.62477112 C58.06136654 360.58909738 58.8908692 359.20069384 61 357 C63.15625 356.50390625 63.15625 356.50390625 65.5 356.5625 C66.2734375 356.56378906 67.046875 356.56507813 67.84375 356.56640625 C70.56561436 357.11373767 71.31960794 357.80436867 73 360 C73.37854004 362.48432922 73.37854004 362.48432922 73.38476562 365.4777832 C73.39487671 366.59937332 73.40498779 367.72096344 73.41540527 368.87654114 C73.41238403 370.08904037 73.40936279 371.30153961 73.40625 372.55078125 C73.41708618 373.79748093 73.42792236 375.0441806 73.43908691 376.32865906 C73.47343801 380.32333255 73.48956693 384.31771282 73.5 388.3125 C73.51374125 393.55881594 73.54825583 398.80464018 73.59375 404.05078125 C73.59072876 405.25720779 73.58770752 406.46363434 73.58459473 407.70661926 C73.6455931 414.5300221 74.00167596 419.37702512 78.5 424.8125 C82.10824144 427.66902448 86.62245679 427.47973076 91 427 C94.71194997 425.35024446 96.85325399 423.43479361 99 420 C99.95585778 417.13242666 100.12657042 415.35147516 100.13028526 412.37569427 C100.13572178 410.94305921 100.13572178 410.94305921 100.14126813 409.48148203 C100.13966576 407.90431603 100.13966576 407.90431603 100.13803101 406.29528809 C100.14226293 404.62240353 100.14226293 404.62240353 100.14658034 402.91572332 C100.15494793 399.1593034 100.15626642 395.40291287 100.15771484 391.64648438 C100.16238136 388.96128638 100.16745787 386.27609238 100.17311096 383.59089661 C100.18464045 377.79927228 100.19288263 372.00765086 100.19923019 366.21601868 C100.20954879 357.06598995 100.23010955 347.91599762 100.25234985 338.76599121 C100.25982958 335.63687909 100.26724328 332.50776681 100.27463722 329.37865448 C100.27648779 328.5966574 100.27833835 327.81466032 100.280245 327.00896636 C100.30117493 318.10607876 100.3200028 309.20318716 100.33789062 300.30029297 C100.33952881 299.48633857 100.34116699 298.67238418 100.34285481 297.83376449 C100.36915674 284.63457413 100.38779103 271.43538097 100.40448253 258.23617548 C100.42188627 244.69283436 100.45071174 231.14954835 100.4893719 217.60625124 C100.51280349 209.24769311 100.52676929 200.8892248 100.52869953 192.53063357 C100.53080445 186.80624969 100.54369609 181.08195528 100.56517886 175.35761154 C100.57723923 172.05192096 100.58271574 168.74644462 100.57846642 165.44072914 C100.57459944 161.86185973 100.58893646 158.28352155 100.60800171 154.70471191 C100.60247201 153.65326791 100.59694232 152.60182391 100.59124506 151.51851797 C100.60450482 150.08588291 100.60450482 150.08588291 100.61803246 148.62430573 C100.61938898 147.7977619 100.62074551 146.97121808 100.62214315 146.11962748 C101.09043364 143.49270304 101.90752696 142.60820776 104 141 C106.15625 140.56640625 106.15625 140.56640625 108.5 140.5625 C109.2734375 140.54316406 110.046875 140.52382812 110.84375 140.50390625 C113 141 113 141 114.61124182 142.73464543 C116.20647827 145.33680917 116.37538193 146.71572885 116.37638092 149.74176693 C116.38398736 150.69761462 116.39159381 151.65346231 116.39943075 152.63827509 C116.39253682 153.68544201 116.38564288 154.73260893 116.37854004 155.81150818 C116.38307017 156.92620784 116.3876003 158.04090751 116.3922677 159.18938595 C116.40392874 162.93814236 116.3942295 166.6865445 116.38476562 170.43530273 C116.38886901 173.11741336 116.39417369 175.79949561 116.40104675 178.4815979 C116.41361953 184.26394701 116.4155841 190.04622134 116.41069031 195.82858086 C116.40388724 204.19436048 116.41639077 212.56002718 116.43419749 220.92578662 C116.46285538 234.50561387 116.48036251 248.08542893 116.48876953 261.6652832 C116.4895303 262.88457961 116.4895303 262.88457961 116.49030644 264.12850828 C116.49383354 269.89817203 116.49696284 275.66783597 116.5 281.4375 C116.50346871 288.02644875 116.50711782 294.61539732 116.51123047 301.2043457 C116.51173308 302.01591759 116.5122357 302.82748947 116.51275355 303.66365444 C116.52149468 317.19120702 116.54192507 330.7187177 116.57071257 344.24624211 C116.58790301 352.59182476 116.59447272 360.93728895 116.58740652 369.28288699 C116.58323049 375.00025501 116.58956625 380.71754829 116.60420525 386.43489891 C116.61227171 389.73477825 116.61372058 393.03443392 116.60538292 396.33431816 C116.59704008 399.91022611 116.60694794 403.48563081 116.62145996 407.06150818 C116.61456603 408.10644438 116.60767209 409.15138058 116.60056925 410.22798151 C116.65326447 416.86787985 117.55528608 420.33957603 122.125 425.3125 C126.13751351 427.66767097 129.45313931 427.80050364 134 427 C138.06776669 424.92913696 140.38018056 423.25845717 142 419 C142.29754469 416.06662383 142.29754469 416.06662383 142.24609566 412.77623367 C142.25007775 411.4898633 142.25405985 410.20349293 142.25816262 408.87814164 C142.25245648 407.44750793 142.24656529 406.01687495 142.24050903 404.58624268 C142.24138091 403.06898799 142.24313156 401.55173359 142.24568737 400.03448081 C142.25016846 395.85910222 142.24214677 391.68382585 142.23213124 387.50846028 C142.22351 383.00814771 142.22641596 378.50784109 142.22793579 374.00752258 C142.22898548 366.20839314 142.22270009 358.40929712 142.21146011 350.61017609 C142.19521948 339.33390218 142.18999858 328.05764446 142.18748413 316.78136012 C142.18310477 298.48720618 142.16978913 280.19307005 142.15087891 261.89892578 C142.13252635 244.12581471 142.11836679 226.35270847 142.10986328 208.57958984 C142.10933783 207.48441336 142.10881239 206.38923688 142.10827102 205.26087323 C142.10566098 199.76680165 142.10313355 194.27273003 142.10064721 188.77865839 C142.0799072 143.1857598 142.04452664 97.5928811 142 52 C133.75 52 125.5 52 117 52 C116.9906543 53.76633789 116.98130859 55.53267578 116.97167969 57.35253906 C116.93614184 63.1921216 116.88233725 69.03138262 116.81609726 74.87068558 C116.77660745 78.41071665 116.74442683 81.95049844 116.72900391 85.49072266 C116.71094629 89.56192943 116.66100275 93.63220454 116.609375 97.703125 C116.60814636 98.97303284 116.60691772 100.24294067 116.60565186 101.55133057 C116.58593323 102.73225281 116.5662146 103.91317505 116.54589844 105.12988281 C116.53257477 106.68875214 116.53257477 106.68875214 116.51898193 108.27911377 C115.87031016 111.67992982 114.6758858 112.87250966 112 115 C109.09215119 115.70882303 107.057461 115.33971789 104 115 C102.28092957 113.83818054 102.28092957 113.83818054 101 112 C100.60127258 109.36140442 100.60127258 109.36140442 100.56762695 106.15161133 C100.54783279 104.9505928 100.52803864 103.74957428 100.50764465 102.51216125 C100.50125473 101.21521835 100.49486481 99.91827545 100.48828125 98.58203125 C100.47143541 97.24108734 100.45328529 95.90015924 100.43388367 94.55924988 C100.38636642 91.03297869 100.35656867 87.50677156 100.33044434 83.98028564 C100.3006472 80.3806086 100.25411406 76.78115232 100.20898438 73.18164062 C100.12293189 66.12120603 100.05714256 59.06073636 100 52 C91.42 52 82.84 52 74 52 C73.99413376 55.45108719 73.98826752 58.90217438 73.98222351 62.45783997 C73.92708511 94.08164071 73.85715107 125.70537884 73.77101372 157.32911061 C73.75974512 161.47111576 73.74860674 165.61312124 73.73754883 169.75512695 C73.73534514 170.5797497 73.73314146 171.40437244 73.730871 172.25398376 C73.6954677 185.61825742 73.67062071 198.98253101 73.64965298 212.34683422 C73.62791504 226.05280675 73.59488383 239.75871825 73.55129844 253.46463889 C73.52474702 261.92663551 73.5070774 270.38855604 73.50065396 278.85059228 C73.49541071 284.64789666 73.47922975 290.44510518 73.45433434 296.24235824 C73.44028245 299.59058458 73.43277942 302.93849163 73.43499184 306.28676987 C73.4366315 309.91178643 73.42005697 313.53626588 73.39872742 317.16120911 C73.40357499 318.22637231 73.40842257 319.29153552 73.41341704 320.3889764 C73.4039605 321.35636672 73.39450396 322.32375704 73.38476086 323.32046223 C73.38286225 324.15774556 73.38096365 324.99502888 73.37900752 325.85768443 C72.90408423 328.54215771 72.20242364 329.42065056 70 331 C63.17760061 331.75804438 63.17760061 331.75804438 59.90523911 329.65156174 C56.8709242 325.42864122 57.44381403 321.15277533 57.48101807 316.07891846 C57.47351681 314.95252386 57.46601556 313.82612926 57.458287 312.66560149 C57.43792831 308.87746851 57.44612893 305.08992941 57.45410156 301.30175781 C57.44758829 298.59182381 57.43506277 295.88192548 57.42277527 293.17201233 C57.39944361 287.33071531 57.39071558 281.4895425 57.39188385 275.64820099 C57.3935519 267.20261528 57.37323061 258.75719534 57.34752855 250.31165382 C57.30642738 236.60963276 57.28312953 222.90764148 57.27099609 209.20556641 C57.25917099 195.89466488 57.23898083 182.58381944 57.20751953 169.27294922 C57.20558343 168.45257633 57.20364733 167.63220344 57.20165256 166.78697076 C57.1918881 162.67143337 57.18195897 158.55589639 57.17194796 154.44035959 C57.08909927 120.29359509 57.03622657 86.14684447 57 52 C48.42 52 39.84 52 31 52 Z M258 318 C255.67250655 321.49124017 255.49700684 322.89222251 256 327 C258.23206431 329.84780619 259.54992999 330.84997666 263 332 C265.03817133 332.10408607 267.07957243 332.14860396 269.12036133 332.16113281 C271.0129644 332.17554413 271.0129644 332.17554413 272.94380188 332.19024658 C274.32320983 332.19509503 275.70261988 332.19937374 277.08203125 332.203125 C278.4982656 332.20887949 279.91449993 332.21463719 281.33073425 332.22039795 C284.30065269 332.23090001 287.27054413 332.23674766 290.24047852 332.24023438 C294.0367954 332.2457132 297.83275256 332.26973108 301.62895679 332.29820633 C304.55528285 332.31687798 307.48152309 332.32204073 310.40790367 332.32357025 C311.80688122 332.32658782 313.20585757 332.33458605 314.60477638 332.34775543 C316.5669298 332.36490646 318.52923218 332.36107783 320.49145508 332.35644531 C322.16332634 332.36191376 322.16332634 332.36191376 323.86897278 332.36749268 C327.48370646 331.94322675 329.89603529 330.87323989 333 329 C334.42041821 326.15916359 334.31452272 324.14522722 334 321 C331.76793569 318.15219381 330.45007001 317.15002334 327 316 C324.95641915 315.90088062 322.9097408 315.86172948 320.86376953 315.85473633 C318.96632492 315.84516655 318.96632492 315.84516655 317.0305481 315.83540344 C315.64796995 315.83387462 314.2653913 315.83276074 312.8828125 315.83203125 C311.46418219 315.82881741 310.04555222 315.82545324 308.62692261 315.82194519 C305.65280387 315.81595746 302.67871418 315.8141049 299.70458984 315.81469727 C295.89928679 315.81479882 292.09417061 315.80115247 288.28891182 315.78392506 C285.35833893 315.77278908 282.42781097 315.77077856 279.49721909 315.77130699 C278.09463736 315.77012906 276.6920544 315.76571777 275.28949356 315.75797462 C273.32469345 315.74814396 271.35983848 315.75232497 269.39501953 315.75708008 C268.27821808 315.75565506 267.16141663 315.75423004 266.01077271 315.75276184 C262.89710874 316.00844921 260.7584538 316.54681738 258 318 Z M268 348 C255.86301019 373.79110335 248.22765518 399.36593105 253 428 C274.45 428 295.9 428 318 428 C318 401.6 318 375.2 318 348 C301.5 348 285 348 268 348 Z " fill="#000000" transform="translate(81,36)"/>
</svg>
