<?xml version="1.0" encoding="UTF-8"?>
<svg version="1.1" xmlns="http://www.w3.org/2000/svg" width="512" height="512">
<path d="M0 0 C1.47683969 1.12187997 2.93575209 2.26778397 4.375 3.4375 C5.19742188 4.05625 6.01984375 4.675 6.8671875 5.3125 C16.27673573 13.28569975 21.77345782 24.53054619 24.375 36.4375 C24.45878506 39.34709378 24.49117895 42.23171241 24.47265625 45.140625 C24.4712413 45.97841492 24.46982635 46.81620483 24.46836853 47.67938232 C24.46278197 50.34879157 24.45023194 53.0181162 24.4375 55.6875 C24.43248326 57.49999879 24.42792066 59.31249889 24.42382812 61.125 C24.41281694 65.56253248 24.39556155 70.00000191 24.375 74.4375 C25.28813965 74.1792041 26.2012793 73.9209082 27.14208984 73.65478516 C36.03822568 71.20126706 44.88148173 69.28855408 54 67.8125 C55.78083984 67.50699219 55.78083984 67.50699219 57.59765625 67.1953125 C77.04786149 63.98448497 96.30031979 63.08825398 116.00097656 63.12182617 C119.84208967 63.12497304 123.68241951 63.10147405 127.5234375 63.07617188 C150.68175742 63.01556714 173.61711692 64.76725612 196.3125 69.5 C197.62282579 69.75958206 198.93337523 70.01803758 200.24414062 70.27539062 C205.76174165 71.38346848 211.05717414 72.5737923 216.375 74.4375 C216.35405273 73.38473877 216.33310547 72.33197754 216.31152344 71.24731445 C216.23821679 67.27952087 216.19287676 63.31178489 216.15527344 59.34350586 C216.13536163 57.63767375 216.10822187 55.93190802 216.07324219 54.22631836 C215.71060531 36.06780998 219.16958925 20.9198178 231.9375 7.1875 C244.40327828 -4.57731506 258.46430276 -9.11129548 275.38818359 -9.05297852 C288.13864261 -8.67930125 298.41667975 -4.65589845 308.375 3.4375 C309.20773437 4.06398438 310.04046875 4.69046875 310.8984375 5.3359375 C320.12152217 13.16246676 327.40572377 26.72479372 328.61230469 38.81542969 C329.50010961 56.00773954 327.53237485 69.70918642 316.375 83.4375 C315.75238281 84.26894531 315.12976563 85.10039062 314.48828125 85.95703125 C306.65580526 95.15041804 294.95659086 100.72210037 283.375 103.4375 C282.385 103.4375 281.395 103.4375 280.375 103.4375 C280.39594727 104.6020874 280.41689453 105.7666748 280.43847656 106.96655273 C280.51133507 111.32189449 280.55696518 115.67718328 280.59472656 120.03295898 C280.6147382 121.91163213 280.64195637 123.7902438 280.67675781 125.66870117 C280.7257397 128.38215373 280.74807329 131.09477696 280.765625 133.80859375 C280.78627014 134.63709335 280.80691528 135.46559296 280.82818604 136.31919861 C280.83169634 145.61596109 276.74793753 153.74299223 270.375 160.4375 C263.41976475 165.91822537 257.07402103 167.53554225 248.375 167.4375 C248.39594727 168.26475586 248.41689453 169.09201172 248.43847656 169.94433594 C248.52161619 173.6919337 248.57365531 177.43933749 248.625 181.1875 C248.67527344 183.14042969 248.67527344 183.14042969 248.7265625 185.1328125 C248.73945313 186.38320313 248.75234375 187.63359375 248.765625 188.921875 C248.78657227 190.07397461 248.80751953 191.22607422 248.82910156 192.41308594 C248.375 195.4375 248.375 195.4375 246.80371094 197.81152344 C243.47397887 200.0407168 241.115156 199.95484009 237.125 199.96875 C236.42987305 199.9725769 235.73474609 199.97640381 235.01855469 199.98034668 C233.55271959 199.9830618 232.08683572 199.97572835 230.62109375 199.95898438 C228.38171025 199.93756419 226.14553413 199.95879443 223.90625 199.984375 C222.47915961 199.98173165 221.05207121 199.9766065 219.625 199.96875 C218.33078125 199.96423828 217.0365625 199.95972656 215.703125 199.95507812 C211.75152195 199.34053892 210.73905966 198.60343919 208.375 195.4375 C207.22441093 193.4756331 206.15140642 191.46711183 205.140625 189.4296875 C204.56699219 188.27855469 203.99335938 187.12742187 203.40234375 185.94140625 C202.96510986 185.04832764 202.96510986 185.04832764 202.51904297 184.13720703 C201.62220131 182.30678799 200.71253983 180.48318348 199.80078125 178.66015625 C195.375 169.71827168 195.375 169.71827168 195.375 167.4375 C145.875 167.4375 96.375 167.4375 45.375 167.4375 C44.385 170.4075 44.385 170.4075 43.375 173.4375 C41.51505339 177.57922217 39.46584616 181.62598402 37.4375 185.6875 C36.89931641 186.78835938 36.36113281 187.88921875 35.80664062 189.0234375 C35.28392578 190.07273437 34.76121094 191.12203125 34.22265625 192.203125 C33.74836182 193.15993164 33.27406738 194.11673828 32.78540039 195.10253906 C31.375 197.4375 31.375 197.4375 28.375 199.4375 C23.82408945 199.84879973 19.26375177 199.80910322 14.6965332 199.80810547 C12.4486107 199.81247839 10.20265321 199.84880369 7.95507812 199.88671875 C6.5234442 199.89258737 5.09180097 199.89655646 3.66015625 199.8984375 C2.35957275 199.90665527 1.05898926 199.91487305 -0.28100586 199.92333984 C-3.625 199.4375 -3.625 199.4375 -6.0559082 197.81591797 C-8.12637793 194.67751497 -8.08368663 192.66526485 -8.015625 188.921875 C-8.00273438 187.67148437 -7.98984375 186.42109375 -7.9765625 185.1328125 C-7.94304687 183.83085937 -7.90953125 182.52890625 -7.875 181.1875 C-7.85695313 179.87007812 -7.83890625 178.55265625 -7.8203125 177.1953125 C-7.77316271 173.94197692 -7.70736044 170.69010375 -7.625 167.4375 C-8.8521875 167.47101563 -10.079375 167.50453125 -11.34375 167.5390625 C-19.49454683 167.5283 -26.81855352 162.96503421 -32.625 157.4375 C-38.34232462 150.18201191 -39.93124638 143.17162478 -39.8203125 134.1015625 C-39.8174826 133.22221039 -39.81465271 132.34285828 -39.81173706 131.43685913 C-39.80059712 128.64526406 -39.77550411 125.8539971 -39.75 123.0625 C-39.7399622 121.16276507 -39.73083775 119.26302508 -39.72265625 117.36328125 C-39.70067806 112.72122893 -39.6661911 108.07941998 -39.625 103.4375 C-40.29394287 103.31342773 -40.96288574 103.18935547 -41.65209961 103.06152344 C-42.98253296 102.80677246 -42.98253296 102.80677246 -44.33984375 102.546875 C-45.21503662 102.38155273 -46.09022949 102.21623047 -46.99194336 102.04589844 C-61.47565714 98.69926749 -72.64978849 88.4505812 -80.625 76.4375 C-85.93703984 67.65343412 -88.18209423 58.33606929 -88.0625 48.125 C-88.05492676 47.20928223 -88.04735352 46.29356445 -88.03955078 45.35009766 C-87.8584071 37.85445128 -86.64605081 31.34411616 -83.625 24.4375 C-83.23570313 23.51066406 -82.84640625 22.58382813 -82.4453125 21.62890625 C-75.74808918 7.65984578 -63.86567584 -1.24321526 -49.625 -6.5625 C-33.30910135 -11.9955712 -14.15461674 -9.64426163 0 0 Z M244.31640625 19.28515625 C232.3093208 31.86031886 232.04822873 48.31357133 232.25 64.6875 C232.26006151 66.12629577 232.26918169 67.56509845 232.27734375 69.00390625 C232.2990794 72.48191753 232.33342967 75.95966245 232.375 79.4375 C233.19919434 79.77740967 234.02338867 80.11731934 234.87255859 80.4675293 C236.49411865 81.13909058 236.49411865 81.13909058 238.1484375 81.82421875 C239.22013184 82.26725342 240.29182617 82.71028809 241.39599609 83.16674805 C243.65018286 84.12831518 245.82832105 85.12098331 248 86.25 C250.23058728 87.5865712 250.23058728 87.5865712 252.375 87.4375 C250.065 92.0575 247.755 96.6775 245.375 101.4375 C241.85330508 100.73316102 239.17081919 100.07842215 235.91796875 98.80078125 C164.95050701 71.55620287 71.22836826 70.02412142 1.10546875 100.37109375 C-1.625 101.4375 -1.625 101.4375 -4.625 101.4375 C-6.935 96.8175 -9.245 92.1975 -11.625 87.4375 C-8.655 86.4475 -8.655 86.4475 -5.625 85.4375 C-3.34913945 84.59681964 -1.07828412 83.74247164 1.1875 82.875 C2.89873047 82.22337891 2.89873047 82.22337891 4.64453125 81.55859375 C7.2451823 80.69583285 7.2451823 80.69583285 8.375 79.4375 C8.59635347 75.07851071 8.56078458 70.71342442 8.56030273 66.34936523 C8.56245342 64.17215346 8.58049659 61.99547888 8.59960938 59.81835938 C8.6683777 43.24032261 6.67356522 30.16111815 -5.015625 17.70703125 C-14.70521216 9.27941128 -25.31762399 7.69216473 -37.63769531 8.26269531 C-48.30615767 9.2011006 -56.74635378 15.74620332 -63.4375 23.6875 C-70.52772125 33.49838754 -71.78884364 43.6565521 -70.625 55.4375 C-68.2217566 66.45461582 -61.64462206 74.87777486 -52.625 81.4375 C-46.60997699 85.19839615 -40.03473128 86.29984895 -33.12109375 87.31152344 C-29.29374531 87.91301678 -27.00448073 88.31600138 -24.625 91.4375 C-24.24645996 93.40811157 -24.24645996 93.40811157 -24.24023438 95.67431641 C-24.23012329 96.52595367 -24.22001221 97.37759094 -24.20959473 98.2550354 C-24.21261597 99.17376434 -24.21563721 100.09249329 -24.21875 101.0390625 C-24.20791382 101.99009857 -24.19707764 102.94113464 -24.18591309 103.92098999 C-24.1516019 106.96822847 -24.13606049 110.01509371 -24.125 113.0625 C-24.11035664 117.05504279 -24.07646568 121.04676165 -24.03125 125.0390625 C-24.03427124 125.94564606 -24.03729248 126.85222961 -24.04040527 127.7862854 C-23.9672858 134.08177043 -23.43432008 140.92921259 -19.35021973 146.02944946 C-12.94163656 151.87472957 -5.27224723 151.72995429 2.87496948 151.69819641 C4.44249991 151.70393473 4.44249991 151.70393473 6.04169762 151.70978898 C9.53680168 151.72009221 13.03174065 151.71613186 16.52685547 151.7121582 C19.03542228 151.71650615 21.54398776 151.72168958 24.05255127 151.72764587 C30.15538653 151.73964768 36.25816112 151.74218832 42.36100589 151.73984561 C47.32310482 151.73806066 52.28519041 151.73981588 57.24728775 151.74407005 C58.30770606 151.74496284 58.30770606 151.74496284 59.38954697 151.74587366 C60.82583665 151.74708544 62.26212633 151.74829958 63.69841601 151.74951603 C77.16046325 151.76038619 90.62248542 151.7582316 104.08453406 151.75213119 C116.39030694 151.74696284 128.69600063 151.75821621 141.00175785 151.77722941 C153.64799918 151.79661835 166.29420308 151.80486193 178.94045937 151.80110615 C186.03607611 151.79919567 193.13162548 151.80166676 200.22723007 151.81582069 C206.90031691 151.82899747 213.57321978 151.82646015 220.246315 151.81340981 C222.69362822 151.81104325 225.14095257 151.81378151 227.58825302 151.82203293 C230.93270687 151.832495 234.27662839 151.82440345 237.62106323 151.8117218 C238.58615559 151.81909609 239.55124794 151.82647037 240.54558551 151.83406812 C246.90854673 151.78341935 253.80680398 151.29756818 258.96556079 147.16259462 C264.73090205 140.8487062 264.66483128 133.2731902 264.68359375 125.234375 C264.70872849 123.26562172 264.73412683 121.29687178 264.75976562 119.328125 C264.78861633 116.24479874 264.81265701 113.16153016 264.83129883 110.078125 C264.85287861 107.08825842 264.89227998 104.09902428 264.93359375 101.109375 C264.93370956 100.18437195 264.93382538 99.2593689 264.9339447 98.30633545 C264.94728348 97.4482428 264.96062225 96.59015015 264.97436523 95.70605469 C264.97943588 94.95217468 264.98450653 94.19829468 264.98973083 93.42156982 C265.48605237 90.86559943 266.31728151 89.99785772 268.375 88.4375 C270.92079194 87.86534699 273.36362676 87.42722849 275.9375 87.0625 C288.01228683 85.0416888 297.80397206 80.04845465 305.19921875 69.9453125 C311.67551916 59.62713896 313.23681686 48.11187401 310.6875 36.234375 C307.27632028 26.05768882 300.48852661 17.77864456 291.3203125 12.18359375 C274.99100541 4.07875452 257.65776069 7.31084761 244.31640625 19.28515625 Z M8.375 167.4375 C8.375 172.7175 8.375 177.9975 8.375 183.4375 C12.005 183.4375 15.635 183.4375 19.375 183.4375 C20.54654293 181.14820947 21.71238074 178.85631638 22.875 176.5625 C23.20886719 175.91152344 23.54273437 175.26054687 23.88671875 174.58984375 C25.74343717 171.1850529 25.74343717 171.1850529 26.375 167.4375 C20.435 167.4375 14.495 167.4375 8.375 167.4375 Z M214.375 167.4375 C215.75722624 171.58417871 217.04064202 174.99690815 219 178.8125 C220.175625 181.101875 220.175625 181.101875 221.375 183.4375 C225.005 183.4375 228.635 183.4375 232.375 183.4375 C232.375 178.1575 232.375 172.8775 232.375 167.4375 C226.435 167.4375 220.495 167.4375 214.375 167.4375 Z " fill="#000000" transform="translate(103.625,304.5625)"/>
<path d="M0 0 C0.97812346 -0.00453111 1.95624691 -0.00906223 2.96401048 -0.01373065 C6.23877078 -0.02638225 9.51336494 -0.02475376 12.78814697 -0.02310181 C15.13731093 -0.02908661 17.48647292 -0.03589204 19.83563232 -0.04345703 C26.21592079 -0.06112994 32.59615561 -0.06581299 38.97646618 -0.0670886 C43.63272544 -0.06874866 48.28897277 -0.07454809 52.94522782 -0.08076156 C65.47105775 -0.09736719 77.99685927 -0.10484666 90.5226998 -0.10342209 C91.23355909 -0.10334218 91.94441837 -0.10326227 92.67681885 -0.10317993 C93.744416 -0.10305729 93.744416 -0.10305729 94.83358076 -0.10293217 C106.36278305 -0.10211963 117.89185457 -0.12125039 129.42101905 -0.14945666 C141.27057663 -0.17821704 153.12007051 -0.1919952 164.96966386 -0.19026911 C171.61766058 -0.18960625 178.26553684 -0.19544412 184.91350555 -0.21662521 C191.168021 -0.23600845 197.42224735 -0.23613113 203.67677307 -0.22159195 C205.96886366 -0.21950283 208.26097233 -0.22421081 210.55303192 -0.23631287 C213.68933832 -0.25179639 216.8246518 -0.24243595 219.9609375 -0.22705078 C221.31184719 -0.24248147 221.31184719 -0.24248147 222.69004798 -0.25822389 C231.42692654 -0.16393163 239.25614393 2.5430065 245.70318604 8.56430054 C251.76423502 15.30567135 254.48152908 22.40155457 254.49170494 31.47739887 C254.49521102 32.18398902 254.49871709 32.89057917 254.50232941 33.61858115 C254.51163324 35.98625263 254.50672277 38.3536776 254.50186157 40.72135925 C254.50559834 42.43604234 254.51019997 44.15072372 254.51559222 45.8654024 C254.52783426 50.57754501 254.52756033 55.28961668 254.52520347 60.00177157 C254.52479561 65.08369647 254.53583148 70.16559854 254.5453186 75.24751282 C254.56193603 85.20396878 254.56742848 95.16040106 254.56854336 105.11686973 C254.56949345 113.20923563 254.57360181 121.30159371 254.57994461 129.39395714 C254.59755881 152.33333306 254.60678317 175.27269027 254.60528366 198.21207301 C254.60520375 199.44890624 254.60512384 200.68573947 254.6050415 201.96005249 C254.60495974 203.19839443 254.60487798 204.43673637 254.60479374 205.71260383 C254.60398072 225.78473918 254.62312194 245.85679951 254.65131824 265.92891315 C254.68003632 286.53492804 254.69385913 307.14090633 254.69213068 327.74694175 C254.69146643 339.31724095 254.69697447 350.8874615 254.71848679 362.45774269 C254.73668438 372.30840521 254.74105756 382.15895343 254.72746794 392.00962547 C254.72093123 397.0355485 254.72084656 402.06125214 254.73817444 407.08715439 C254.75387891 411.68952223 254.75106835 416.29149626 254.73360617 420.89385434 C254.73053051 422.55735211 254.73419001 424.22087908 254.74532633 425.88434241 C254.79824815 434.35128223 254.82656274 441.81814101 250.23443604 449.26742554 C249.76521729 450.07695679 249.29599854 450.88648804 248.81256104 451.72055054 C244.0563232 458.15546055 238.13174594 462.45762535 230.23443604 464.26742554 C227.56429919 464.35517502 224.90698772 464.29754651 222.23443604 464.26742554 C222.2553833 465.0946814 222.27633057 465.92193726 222.2979126 466.77426147 C222.38105223 470.52185924 222.43309134 474.26926303 222.48443604 478.01742554 C222.51795166 479.31937866 222.55146729 480.62133179 222.58599854 481.96273804 C222.59888916 483.21312866 222.61177979 484.46351929 222.62506104 485.75180054 C222.6460083 486.90390015 222.66695557 488.05599976 222.6885376 489.24301147 C222.23443604 492.26742554 222.23443604 492.26742554 220.66314697 494.64144897 C217.33341491 496.87064233 214.97459203 496.78476563 210.98443604 496.79867554 C210.28930908 496.80250244 209.59418213 496.80632935 208.87799072 496.81027222 C207.41215563 496.81298734 205.94627176 496.80565389 204.48052979 496.78890991 C202.24114629 496.76748972 200.00497017 496.78871996 197.76568604 496.81430054 C196.33859565 496.81165718 194.91150725 496.80653204 193.48443604 496.79867554 C192.19021729 496.79416382 190.89599854 496.7896521 189.56256104 496.78500366 C185.61095798 496.17046445 184.5984957 495.43336473 182.23443604 492.26742554 C181.08384696 490.30555863 180.01084245 488.29703736 179.00006104 486.25961304 C178.13961182 484.53291382 178.13961182 484.53291382 177.26177979 482.77133179 C176.97029053 482.17594604 176.67880127 481.5805603 176.378479 480.96713257 C175.48163735 479.13671353 174.57197587 477.31310902 173.66021729 475.49008179 C169.23443604 466.54819722 169.23443604 466.54819722 169.23443604 464.26742554 C162.96443604 464.26742554 156.69443604 464.26742554 150.23443604 464.26742554 C150.23443604 458.98742554 150.23443604 453.70742554 150.23443604 448.26742554 C152.36839844 448.25284302 154.50236084 448.2382605 156.70098877 448.22323608 C163.77781214 448.17273777 170.85441899 448.10611642 177.93102932 448.03171062 C182.21858756 447.98711909 186.50605324 447.94783877 190.79376221 447.92098999 C194.93718077 447.89484441 199.08024096 447.8543639 203.22343636 447.80423927 C204.79849833 447.78764624 206.37362219 447.77608511 207.94875908 447.76981163 C221.77609536 448.09773547 221.77609536 448.09773547 233.67193604 442.01742554 C236.74350196 436.61146951 237.48450066 431.32950672 237.48891163 425.1842823 C237.49211811 424.50355229 237.49532458 423.82282227 237.49862823 423.12146407 C237.5069083 420.84777556 237.50101104 418.57435185 237.49513245 416.30065918 C237.49815404 414.65111012 237.50204356 413.00156247 237.50672501 411.35201728 C237.51701272 406.82455456 237.51482122 402.29717096 237.51054442 397.76970172 C237.50807861 392.88479936 237.51708956 387.99991612 237.52458191 383.11502075 C237.53733494 373.54705616 237.53912185 363.97911963 237.53678165 354.41114797 C237.534999 346.63440507 237.53674697 338.85767068 237.54100609 331.0809288 C237.54189887 329.42103246 237.54189887 329.42103246 237.54280969 327.72760286 C237.54402144 325.47958518 237.54523557 323.2315675 237.54645207 320.98354982 C237.55732993 299.89884766 237.55516394 278.8141615 237.54906722 257.72945844 C237.54389783 238.43984844 237.55515365 219.15028894 237.57416544 199.86068894 C237.59353656 180.05469174 237.60180112 160.24871844 237.59804219 140.44271171 C237.59612905 129.32292702 237.59862875 118.20318532 237.61275673 107.08340836 C237.62466224 97.61705909 237.62608472 88.15077927 237.61396656 78.68442906 C237.60807207 73.85498483 237.60699425 69.02566766 237.61896896 64.19623184 C237.6298079 59.77344795 237.62674808 55.35089753 237.61270728 50.92812465 C237.61005487 49.32993412 237.61244395 47.7317254 237.62044314 46.13355269 C238.02154532 32.52198196 238.02154532 32.52198196 231.98443604 20.82992554 C225.46706901 17.12687609 219.216561 16.96533872 211.8928833 16.94857788 C210.86117225 16.93842463 209.82946119 16.92827137 208.76648617 16.91781044 C205.44460818 16.88730567 202.12281533 16.87005568 198.80084229 16.85336304 C196.74285148 16.83641816 194.68486766 16.81860038 192.62689209 16.79989624 C185.01698699 16.73683502 177.40694965 16.69064442 169.79693604 16.64242554 C144.27349854 16.45680054 144.27349854 16.45680054 118.23443604 16.26742554 C118.23443604 71.70742554 118.23443604 127.14742554 118.23443604 184.26742554 C112.95443604 184.26742554 107.67443604 184.26742554 102.23443604 184.26742554 C102.23443604 128.82742554 102.23443604 73.38742554 102.23443604 16.26742554 C85.26006104 16.37055054 68.28568604 16.47367554 50.79693604 16.57992554 C42.77554321 16.61726807 42.77554321 16.61726807 34.59210205 16.65536499 C29.77292561 16.69195565 29.77292561 16.69195565 24.95378113 16.73243713 C22.81754372 16.74852207 20.68125804 16.75885397 18.54496765 16.76454163 C15.29739812 16.77432868 12.05045287 16.80272227 8.80303955 16.83505249 C7.86111283 16.83362653 6.91918612 16.83220057 5.94871616 16.83073139 C-1.00375564 16.92908738 -7.9243098 17.64472939 -13.20306396 22.51742554 C-16.3856627 28.11879932 -17.10265799 33.96981882 -17.76556396 40.26742554 C-23.04556396 40.26742554 -28.32556396 40.26742554 -33.76556396 40.26742554 C-34.17959449 28.05352506 -34.27441953 18.22703351 -25.46868896 8.79867554 C-17.82305805 1.92462206 -10.0635786 -0.03426932 0 0 Z M188.23443604 464.26742554 C189.61666227 468.41410425 190.90007806 471.82683369 192.85943604 475.64242554 C194.03506104 477.93180054 194.03506104 477.93180054 195.23443604 480.26742554 C198.86443604 480.26742554 202.49443604 480.26742554 206.23443604 480.26742554 C206.23443604 474.98742554 206.23443604 469.70742554 206.23443604 464.26742554 C200.29443604 464.26742554 194.35443604 464.26742554 188.23443604 464.26742554 Z " fill="#000000" transform="translate(241.76556396484375,7.732574462890625)"/>
<path d="M0 0 C5.28 0 10.56 0 16 0 C16 5.28 16 10.56 16 16 C19.05846191 15.9685791 19.05846191 15.9685791 22.17871094 15.93652344 C28.91607206 15.87023942 35.6534476 15.82605913 42.39104843 15.79275131 C46.4760437 15.77187789 50.56070485 15.74356537 54.64550781 15.69824219 C58.58774345 15.6547747 62.52965777 15.63086105 66.47211456 15.62049103 C67.97604684 15.61310118 69.47996157 15.59867033 70.98375702 15.57707977 C73.09079459 15.54803188 75.19650529 15.54404429 77.30371094 15.54589844 C78.50284119 15.53701599 79.70197144 15.52813354 80.93743896 15.51898193 C84.62780791 16.09860602 85.76422763 17.06365519 88 20 C89.19267651 23.57802954 89.44744483 27.04964393 89.75610352 30.78173828 C89.82452454 31.57416931 89.89294556 32.36660034 89.96343994 33.18304443 C90.18921862 35.81181335 90.40936401 38.44101586 90.62890625 41.0703125 C90.78429775 42.90861009 90.93981214 44.74689729 91.09544373 46.58517456 C91.42165709 50.45028397 91.74481914 54.31563511 92.06616211 58.18115234 C92.47460472 63.08891171 92.89281536 67.99578159 93.31375217 72.90248299 C93.6386838 76.70811667 93.95703461 80.51428131 94.27366447 84.32061386 C94.42488134 86.12654513 94.57832126 87.93229191 94.7341938 89.7378273 C95.50060545 98.64627135 96.15647686 107.55389011 96.34350586 116.49560547 C96.37139222 117.19631731 96.39927858 117.89702915 96.42800999 118.61897469 C96.45255713 121.80160858 96.16710468 123.73806735 94.44294739 126.44064331 C91.16409584 128.53356562 88.33543556 128.53188788 84.56933594 128.45410156 C83.45655273 128.45497772 83.45655273 128.45497772 82.32128906 128.45587158 C79.87517098 128.45309025 77.43027953 128.42199786 74.984375 128.390625 C73.28615993 128.38316274 71.58793624 128.37746973 69.88970947 128.37347412 C65.4244399 128.35821651 60.95969247 128.31893389 56.49462891 128.2746582 C51.93659529 128.23370807 47.37847713 128.21546367 42.8203125 128.1953125 C33.87994226 128.15243936 24.94009628 128.08208875 16 128 C16 133.28 16 138.56 16 144 C10.72 144 5.44 144 0 144 C0 138.72 0 133.44 0 128 C-3.42197754 128.0314209 -3.42197754 128.0314209 -6.91308594 128.06347656 C-14.44873492 128.12974175 -21.98439674 128.17393342 -29.52025986 128.20724869 C-34.08950964 128.22812765 -38.65846102 128.25645071 -43.22753906 128.30175781 C-47.63660873 128.34520488 -52.0453913 128.36913478 -56.45465851 128.37950897 C-58.13721487 128.38690243 -59.81975543 128.40134017 -61.50218964 128.42292023 C-63.85825101 128.45194003 -66.21312473 128.45595675 -68.56933594 128.45410156 C-69.61374847 128.47567322 -69.61374847 128.47567322 -70.67926025 128.49768066 C-73.83252592 128.47079785 -75.76645041 128.1490208 -78.44322205 126.4410553 C-80.55482718 123.1300212 -80.49147924 120.28341737 -80.33911133 116.48901367 C-80.32337224 115.7430981 -80.30763315 114.99718252 -80.29141712 114.22866344 C-80.04802867 105.19192603 -79.32458658 96.18180702 -78.57421875 87.17578125 C-78.4242188 85.33117124 -78.27446896 83.48654088 -78.12495422 81.64189148 C-77.81284422 77.81365908 -77.49524886 73.98592915 -77.17407227 70.15844727 C-76.76408496 65.26289135 -76.37205331 60.36607395 -75.98445415 55.46870136 C-75.68158363 51.67526711 -75.3673627 47.88283603 -75.04990578 44.09059715 C-74.90044753 42.28446827 -74.75494476 40.47800734 -74.61356163 38.67122841 C-74.4152571 36.15377293 -74.20118433 33.6381279 -73.9831543 31.12231445 C-73.92848495 30.38513184 -73.87381561 29.64794922 -73.81748962 28.88842773 C-73.40191653 24.33548514 -72.3899637 20.90521594 -70 17 C-67.14429301 15.5721465 -64.72285644 15.88058514 -61.53076172 15.88647461 C-60.53545944 15.88625557 -60.53545944 15.88625557 -59.52005005 15.8860321 C-57.32322947 15.88672969 -55.1264933 15.89451486 -52.9296875 15.90234375 C-51.40796963 15.90420848 -49.88625116 15.90563212 -48.36453247 15.90663147 C-44.35648953 15.91045233 -40.34848274 15.92027896 -36.3404541 15.93133545 C-32.25171396 15.94155882 -28.16296799 15.94613108 -24.07421875 15.95117188 C-16.04946072 15.9619016 -8.02473902 15.97949493 0 16 C0 10.72 0 5.44 0 0 Z M-56 32 C-59.1276714 58.58520692 -60.88217092 85.31535356 -63 112 C-16.14 112 30.72 112 79 112 C76.00492116 71.95028024 76.00492116 71.95028024 72 32 C29.76 32 -12.48 32 -56 32 Z " fill="#000000" transform="translate(144,48)"/>
<path d="M0 0 C1.10879713 -0.00453111 2.21759427 -0.00906223 3.35999131 -0.01373065 C7.07697093 -0.02639513 10.79380441 -0.02475292 14.51080322 -0.02310181 C17.17523748 -0.0290858 19.83966027 -0.03583445 22.50408936 -0.04345703 C28.99173289 -0.06005475 35.47934008 -0.06556604 41.96700308 -0.06668179 C47.24233276 -0.06763292 52.51765048 -0.07174649 57.79297638 -0.07808304 C72.75868466 -0.09569273 87.72436428 -0.10492243 102.690083 -0.10342209 C103.89974771 -0.10330222 103.89974771 -0.10330222 105.1338501 -0.10317993 C105.9412812 -0.10309817 106.74871231 -0.10301641 107.58061102 -0.10293217 C120.66177298 -0.10211953 133.74281972 -0.12125238 146.82394835 -0.14945666 C160.26456229 -0.17820669 173.70512008 -0.19199577 187.14576554 -0.19026911 C194.68802396 -0.1896059 202.23016161 -0.19506776 209.77239227 -0.21662521 C216.19492874 -0.23486502 222.61728971 -0.23916155 229.03984091 -0.22560637 C232.31409364 -0.21909043 235.58794124 -0.22109645 238.86217499 -0.23631287 C242.41883239 -0.25176907 245.97461125 -0.24245332 249.53125 -0.22705078 C250.5563668 -0.23733791 251.58148361 -0.24762503 252.63766456 -0.25822389 C261.75596217 -0.17119794 269.72611933 2.24863948 276.48834229 8.56430054 C283.77824037 16.67245249 285.32255117 24.72724686 285.21490479 35.35336304 C285.21065994 36.93874374 285.21065994 36.93874374 285.20632935 38.55615234 C285.19517078 41.91836054 285.17007387 45.2802984 285.14459229 48.64242554 C285.13455691 50.92757793 285.12543203 53.21273451 285.11724854 55.49789429 C285.09524556 61.08784156 285.06074524 66.67758777 285.01959229 72.26742554 C279.73959229 72.26742554 274.45959229 72.26742554 269.01959229 72.26742554 C268.99771851 70.52054443 268.99771851 70.52054443 268.97540283 68.7383728 C268.91705917 64.38260491 268.83983081 60.02733463 268.75714111 55.67196655 C268.72406044 53.7934685 268.69597702 51.91487508 268.67315674 50.03622437 C268.63929843 47.32251665 268.58697013 44.60966978 268.53131104 41.89633179 C268.52172615 40.65358238 268.52172615 40.65358238 268.51194763 39.38572693 C268.34580277 32.66956059 267.45800339 25.90903757 262.76959229 20.82992554 C256.1849958 17.08867754 249.91639225 16.9778965 242.5196228 17.00672913 C241.47460252 17.00290358 240.42958223 16.99907803 239.35289466 16.99513656 C235.8577906 16.98483332 232.36285164 16.98879368 228.86773682 16.99276733 C226.35917001 16.98841939 223.85060452 16.98323596 221.34204102 16.97727966 C215.23920575 16.96527786 209.13643116 16.96273721 203.0335864 16.96507993 C198.07148747 16.96686488 193.10940187 16.96510965 188.14730453 16.96085548 C187.44035899 16.9602603 186.73341345 16.95966511 186.00504532 16.95905188 C184.56875563 16.95784009 183.13246595 16.95662596 181.69617628 16.9554095 C168.23412904 16.94453935 154.77210687 16.94669394 141.31005822 16.95279435 C129.00428535 16.95796269 116.69859165 16.94670933 104.39283444 16.92769613 C91.7465931 16.90830719 79.10038921 16.9000636 66.45413291 16.90381938 C59.35851617 16.90572987 52.26296681 16.90325877 45.16736221 16.88910484 C38.49427538 16.87592807 31.82137251 16.87846539 25.14827728 16.89151573 C22.70096407 16.89388229 20.25363971 16.89114402 17.80633926 16.88289261 C14.46188541 16.87243054 11.11796389 16.88052209 7.77352905 16.89320374 C6.8084367 16.88582945 5.84334435 16.87845517 4.84900677 16.87085742 C-2.15657705 16.92662142 -9.09451742 17.6035268 -14.41790771 22.51742554 C-17.94113522 28.71830594 -18.29844088 34.72759024 -18.39447021 41.70101929 C-18.41383636 42.57895645 -18.43320251 43.45689362 -18.45315552 44.36143494 C-18.51253509 47.14250223 -18.55916889 49.92361187 -18.60540771 52.70492554 C-18.64362587 54.60012504 -18.68267979 56.49530789 -18.72259521 58.39047241 C-18.81820201 63.01598683 -18.90238527 67.64158246 -18.98040771 72.26742554 C-24.26040771 72.26742554 -29.54040771 72.26742554 -34.98040771 72.26742554 C-35.07982863 65.61463704 -35.15213717 58.96228806 -35.20013428 52.30892944 C-35.22015861 50.04908711 -35.24738633 47.78929599 -35.28216553 45.52963257 C-35.33108849 42.26762192 -35.35346904 39.00630066 -35.37103271 35.74398804 C-35.39167786 34.74565948 -35.412323 33.74733093 -35.43359375 32.71875 C-35.43647781 23.55233885 -33.03060179 15.59452727 -26.68353271 8.79867554 C-18.62117741 1.54995242 -10.5655699 -0.03164649 0 0 Z " fill="#000000" transform="translate(98.98040771484375,207.73257446289063)"/>
<path d="M0 0 C5.82485779 3.51996782 10.54466582 8.98962934 12.5625 15.5 C13.36764105 23.33608208 13.68710392 31.11922577 8.5625 37.5 C3.75801361 42.54521222 -0.59927055 46.10562995 -7.70703125 46.8359375 C-16.22326573 46.92983204 -22.11345494 46.6177288 -28.40234375 40.62890625 C-34.7841668 33.72505269 -35.91792252 28.29832071 -35.7421875 18.9453125 C-35.04689797 11.08319245 -31.38995981 6.95041296 -25.53515625 1.9453125 C-18.47077988 -2.92213491 -7.84396301 -3.47595223 0 0 Z M-16.8125 17.125 C-18.92456506 20.21186432 -19.04945145 21.8282913 -18.4375 25.5 C-16.9375 28 -16.9375 28 -14.4375 29.5 C-10.7657913 30.11195145 -9.14936432 29.98706506 -6.0625 27.875 C-3.95043494 24.78813568 -3.82554855 23.1717087 -4.4375 19.5 C-5.9375 17 -5.9375 17 -8.4375 15.5 C-12.1092087 14.88804855 -13.72563568 15.01293494 -16.8125 17.125 Z " fill="#000000" transform="translate(387.4375,329.5)"/>
<path d="M0 0 C5.82485779 3.51996782 10.54466582 8.98962934 12.5625 15.5 C13.36764105 23.33608208 13.68710392 31.11922577 8.5625 37.5 C3.75801361 42.54521222 -0.59927055 46.10562995 -7.70703125 46.8359375 C-16.22326573 46.92983204 -22.11345494 46.6177288 -28.40234375 40.62890625 C-34.7841668 33.72505269 -35.91792252 28.29832071 -35.7421875 18.9453125 C-35.04689797 11.08319245 -31.38995981 6.95041296 -25.53515625 1.9453125 C-18.47077988 -2.92213491 -7.84396301 -3.47595223 0 0 Z M-16.8125 17.125 C-18.92456506 20.21186432 -19.04945145 21.8282913 -18.4375 25.5 C-16.9375 28 -16.9375 28 -14.4375 29.5 C-10.7657913 30.11195145 -9.14936432 29.98706506 -6.0625 27.875 C-3.95043494 24.78813568 -3.82554855 23.1717087 -4.4375 19.5 C-5.9375 17 -5.9375 17 -8.4375 15.5 C-12.1092087 14.88804855 -13.72563568 15.01293494 -16.8125 17.125 Z " fill="#000000" transform="translate(83.4375,329.5)"/>
<path d="M0 0 C5.28 0 10.56 0 16 0 C16 5.28 16 10.56 16 16 C10.72 16 5.44 16 0 16 C0 10.72 0 5.44 0 0 Z " fill="#000000" transform="translate(256,336)"/>
<path d="M0 0 C5.28 0 10.56 0 16 0 C16 5.28 16 10.56 16 16 C10.72 16 5.44 16 0 16 C0 10.72 0 5.44 0 0 Z " fill="#000000" transform="translate(176,336)"/>
<path d="M0 0 C5.28 0 10.56 0 16 0 C16 5.28 16 10.56 16 16 C10.72 16 5.44 16 0 16 C0 10.72 0 5.44 0 0 Z " fill="#000000" transform="translate(296,296)"/>
<path d="M0 0 C5.28 0 10.56 0 16 0 C16 5.28 16 10.56 16 16 C10.72 16 5.44 16 0 16 C0 10.72 0 5.44 0 0 Z " fill="#000000" transform="translate(216,296)"/>
<path d="M0 0 C5.28 0 10.56 0 16 0 C16 5.28 16 10.56 16 16 C10.72 16 5.44 16 0 16 C0 10.72 0 5.44 0 0 Z " fill="#000000" transform="translate(136,296)"/>
<path d="M0 0 C5.28 0 10.56 0 16 0 C16 5.28 16 10.56 16 16 C10.72 16 5.44 16 0 16 C0 10.72 0 5.44 0 0 Z " fill="#000000" transform="translate(256,256)"/>
<path d="M0 0 C5.28 0 10.56 0 16 0 C16 5.28 16 10.56 16 16 C10.72 16 5.44 16 0 16 C0 10.72 0 5.44 0 0 Z " fill="#000000" transform="translate(176,256)"/>
</svg>
