<?xml version="1.0" encoding="UTF-8"?>
<svg version="1.1" xmlns="http://www.w3.org/2000/svg" width="512" height="512">
<path d="M0 0 C1.03769531 -0.01160156 2.07539063 -0.02320312 3.14453125 -0.03515625 C13.66115864 0.00413377 23.2930555 2.18962039 32.625 7.0625 C33.30167725 7.40917725 33.97835449 7.75585449 34.67553711 8.11303711 C40.53108018 11.20875833 45.60817122 14.90143167 50.5 19.375 C51.44746094 20.20257812 51.44746094 20.20257812 52.4140625 21.046875 C65.57909582 33.22598072 72.64881278 52.00043075 73.625 69.6328125 C74.01985306 84.98272522 69.73378486 98.97471001 62.5 112.375 C63.180625 112.32859375 63.86125 112.2821875 64.5625 112.234375 C83.24839994 111.53862341 101.22747883 118.91033214 115.1796875 131.17578125 C127.46354545 142.81856244 136.4230101 158.61949563 137.67700195 175.80004883 C138.07654409 192.30862042 137.6139839 207.92902553 128.5 222.375 C126.5 224.375 126.5 224.375 122.625 224.75 C119.64680696 224.65794676 118.60377314 224.43985821 116 222.8125 C113.94176699 219.46787137 114.2469974 217.27445284 114.5 213.375 C115.55859375 209.8046875 115.55859375 209.8046875 116.9375 206.25 C122.4404747 191.92031659 122.47615288 175.63264664 116.5 161.375 C109.09324994 146.52220678 96.64628905 136.23412298 81 131 C70.72645836 128.15577367 61.85109481 127.98754369 51.5 130.375 C50.61183594 130.48070312 49.72367187 130.58640625 48.80859375 130.6953125 C46.39693263 131.11829924 46.39693263 131.11829924 45.5390625 133.0234375 C45.19617188 133.79945313 44.85328125 134.57546875 44.5 135.375 C42.72677151 137.67003396 40.79168625 139.82426231 38.875 142 C35.31869819 146.08919199 31.79733328 150.18357387 28.4375 154.4375 C24.93296693 158.87269746 21.29889247 163.18404009 17.63647461 167.48852539 C14.71982939 170.92090964 11.84299312 174.3810174 9 177.875 C5.25212202 182.4795358 1.43016556 187.01519191 -2.4140625 191.5390625 C-5.31244823 194.9555954 -8.171551 198.40004838 -11 201.875 C-14.74852646 206.4803325 -18.57084246 211.01704444 -22.41625977 215.54125977 C-25.2954532 218.93454109 -28.13204237 222.35767786 -30.9375 225.8125 C-34.89443418 230.67549424 -38.96435942 235.43200203 -43.05615234 240.18115234 C-46.85163367 244.59531766 -50.55277913 249.07833198 -54.22265625 253.59765625 C-57.24419944 257.28259143 -60.33035951 260.91068321 -63.41650391 264.54150391 C-66.29557843 267.93473475 -69.13211492 271.3577672 -71.9375 274.8125 C-75.39274457 279.05892758 -78.92706576 283.22788424 -82.5 287.375 C-87.59962052 293.29620821 -92.57736838 299.30551872 -97.5 305.375 C-99.18557747 307.43907933 -100.87413591 309.50069712 -102.5625 311.5625 C-103.69365234 312.94501953 -103.69365234 312.94501953 -104.84765625 314.35546875 C-105.39292969 315.02191406 -105.93820312 315.68835938 -106.5 316.375 C-105.54299194 316.38901855 -105.54299194 316.38901855 -104.56665039 316.40332031 C-73.57286782 316.97104337 -49.00351043 324.13957087 -26.5 346.375 C-25.62085938 347.22964844 -24.74171875 348.08429688 -23.8359375 348.96484375 C-8.52265296 364.72851901 -1.01231454 385.85749119 1.5 407.375 C2.11705811 406.2912207 2.11705811 406.2912207 2.74658203 405.18554688 C11.67538371 389.51125461 20.66756356 373.87774656 29.78222656 358.31054688 C32.69360701 353.33521451 35.59636412 348.35485472 38.5 343.375 C41.98616149 337.39719697 45.47324226 331.41994004 48.96484375 325.4453125 C54.33835166 316.24709571 59.69796111 307.04171165 65.00878906 297.80712891 C71.00794308 287.37688859 77.06023715 276.98036746 83.1875 266.625 C83.52779236 266.04873871 83.86808472 265.47247742 84.21868896 264.87875366 C86.29409518 261.36624131 88.38815495 257.8657152 90.5 254.375 C90.90307373 253.69703369 91.30614746 253.01906738 91.72143555 252.32055664 C93.67445811 249.17357913 94.23147829 248.45799762 97.9375 247.3125 C101.84309148 247.38101915 103.47299191 247.97119945 106.5 250.375 C107.97422987 253.32345973 107.85170604 255.06372503 107.5 258.375 C106.1375249 261.63047822 104.39397637 264.6378844 102.625 267.6875 C102.12395752 268.5734082 101.62291504 269.45931641 101.10668945 270.37207031 C99.58634 273.04880605 98.04715831 275.71368513 96.5 278.375 C96.0786377 279.10187012 95.65727539 279.82874023 95.22314453 280.57763672 C93.23755777 283.99304182 91.23233504 287.39632386 89.21484375 290.79296875 C86.02974926 296.15690072 82.89044296 301.54734219 79.75 306.9375 C78.5455966 309.00392006 77.3411693 311.07032618 76.13671875 313.13671875 C75.23252197 314.68818604 75.23252197 314.68818604 74.31005859 316.27099609 C72.54821521 319.29231748 70.78426522 322.31239749 69.01953125 325.33203125 C63.02150367 335.59837531 57.05280156 345.88043438 51.125 356.1875 C46.00713886 365.08396889 40.81352536 373.9315281 35.5625 382.75 C29.76839045 392.48210656 24.09946197 402.27646637 18.50631714 412.12463379 C12.82477114 422.12387533 6.99427558 432.0271823 1.09350586 441.8984375 C-2.73205706 448.31827118 -6.39596037 454.79524032 -9.9375 461.375 C-13.75821204 468.38760018 -18.05103653 474.4956142 -23.5 480.375 C-24.31855469 481.28507812 -25.13710938 482.19515625 -25.98046875 483.1328125 C-37.02353183 494.84465783 -50.3727244 502.99339273 -65.5 508.375 C-66.1300293 508.59945801 -66.76005859 508.82391602 -67.40917969 509.05517578 C-84.73153381 514.86945384 -107.15819341 515.08379347 -124.5 509.375 C-125.44093506 509.07698486 -125.44093506 509.07698486 -126.40087891 508.77294922 C-154.12907001 499.84670492 -173.36848868 480.83975448 -186.5 455.375 C-187.056875 456.34179688 -187.61375 457.30859375 -188.1875 458.3046875 C-201.85281464 481.74646895 -219.70815789 499.19941751 -245.5 508.375 C-246.1300293 508.59945801 -246.76005859 508.82391602 -247.40917969 509.05517578 C-264.73153381 514.86945384 -287.15819341 515.08379347 -304.5 509.375 C-305.44093506 509.07698486 -305.44093506 509.07698486 -306.40087891 508.77294922 C-332.3243119 500.42769167 -352.54650583 482.57466109 -365.25 458.625 C-376.63508031 434.98110066 -378.22124353 406.96111838 -369.73632812 382.14111328 C-362.66996053 362.51372655 -350.58401472 348.92132167 -335.49243164 334.95996094 C-331.23301482 331.01945534 -327.07357976 327.00707421 -323 322.875 C-319.31984558 319.14573644 -315.55015183 315.60891289 -311.55859375 312.21484375 C-308.43078203 309.41939912 -305.51746403 306.41322988 -302.57275391 303.42822266 C-299.90379581 300.73700005 -297.18802985 298.15627514 -294.3125 295.6875 C-293.69246094 295.13964844 -293.07242188 294.59179688 -292.43359375 294.02734375 C-291.04997146 292.84497561 -289.61878305 291.71739737 -288.16015625 290.62890625 C-285.77389301 288.66686759 -284.08041447 287.03461179 -282.5 284.375 C-282.43263094 281.27121117 -283.07284072 278.61737438 -283.76171875 275.58984375 C-288.8842522 250.6151477 -281.7643284 224.57418615 -268.5 203.375 C-265.72033871 199.48446164 -262.72603826 195.90139355 -259.5 192.375 C-258.81421875 191.61960938 -258.1284375 190.86421875 -257.421875 190.0859375 C-252.66159915 185.09646318 -247.45565773 180.86561042 -242.00512695 176.671875 C-237.71779466 173.36697291 -233.58364138 169.92776226 -229.5 166.375 C-224.37120986 161.92069267 -219.11979141 157.67872236 -213.75 153.51953125 C-209.55966768 150.25518754 -205.51043537 146.85727535 -201.5 143.375 C-196.92991884 139.4067822 -192.28498273 135.58129106 -187.5 131.875 C-182.00942368 127.62157401 -176.71321567 123.18488644 -171.4621582 118.64013672 C-167.48779257 115.2051692 -163.4418534 111.88669188 -159.3203125 108.62890625 C-155.53536109 105.60409051 -151.79963747 102.52107561 -148.0625 99.4375 C-147.31895264 98.82406738 -146.57540527 98.21063477 -145.80932617 97.57861328 C-144.3574005 96.38072252 -142.90549553 95.18280667 -141.45361328 93.98486328 C-138.97431339 91.94181111 -136.4881283 89.907288 -134 87.875 C-129.3233019 84.05379546 -124.66074852 80.21562334 -120 76.375 C-112.67537717 70.33960706 -105.33496785 64.32405759 -97.984375 58.3203125 C-91.56603561 53.0741848 -85.16452541 47.8079319 -78.76806641 42.53515625 C-74.77110491 39.24133915 -70.76613121 35.95794603 -66.75 32.6875 C-63.33206005 29.9023198 -59.96576284 27.06653624 -56.62231445 24.19311523 C-39.66686416 9.67005094 -22.89656366 -0.25598643 0 0 Z M-47.5 38.375 C-49.33182743 39.87683866 -51.16515585 41.37684845 -53 42.875 C-53.9075 43.6175 -54.815 44.36 -55.75 45.125 C-58.5 47.375 -61.25 49.625 -64 51.875 C-64.91523438 52.62394531 -65.83046875 53.37289062 -66.7734375 54.14453125 C-68.52817784 55.57999935 -70.28335155 57.01493796 -72.0390625 58.44921875 C-77.7034079 63.07823818 -83.35440553 67.72313906 -89 72.375 C-96.324645 78.41036619 -103.665032 84.42594229 -111.015625 90.4296875 C-117.4367988 95.67813196 -123.8405248 100.94744379 -130.24072266 106.22143555 C-135.00626741 110.14752838 -139.78109057 114.06198864 -144.5625 117.96875 C-148.38111148 121.09676153 -152.19054423 124.23584917 -156 127.375 C-160.66073456 131.21564015 -165.32330201 135.05379554 -170 138.875 C-171.25490234 139.90173828 -171.25490234 139.90173828 -172.53515625 140.94921875 C-174.20634649 142.31655622 -175.87782574 143.68354119 -177.55029297 145.04931641 C-179.84779556 146.92656231 -182.14278904 148.80684312 -184.4375 150.6875 C-185.17226562 151.28691406 -185.90703125 151.88632813 -186.6640625 152.50390625 C-190.10336141 155.32654713 -193.4369401 158.1359941 -196.5 161.375 C-195.54299194 161.38901855 -195.54299194 161.38901855 -194.56665039 161.40332031 C-161.9295629 162.00114431 -137.6712219 170.24046999 -114.24609375 193.625 C-94.69706811 214.43648718 -88.84515163 241.68946603 -89.5 269.375 C-86.23256978 266.1872632 -83.22982698 262.93539258 -80.375 259.375 C-76.96688985 255.16298347 -73.51071295 251.00121961 -70 246.875 C-66.62694716 242.90615387 -63.28822816 238.91482317 -60 234.875 C-56.25212202 230.2704642 -52.43016556 225.73480809 -48.5859375 221.2109375 C-45.68755177 217.7944046 -42.828449 214.34995162 -40 210.875 C-36.71176186 206.83516457 -33.37265239 202.84419573 -30 198.875 C-25.94987401 194.1058879 -21.95647887 189.29587568 -18.00390625 184.4453125 C-10.19208052 174.86638111 -2.34027163 165.32270048 5.66748047 155.90673828 C9.23028404 151.71171818 12.71325575 147.45585722 16.1875 143.1875 C18.76146822 140.05699811 21.37591194 136.96346829 24 133.875 C28.90331399 128.09718267 33.73476412 122.26758195 38.5 116.375 C39.44260307 115.23819396 40.38531677 114.10147965 41.328125 112.96484375 C52.46760881 99.38441497 58.6674182 85.13628498 57.27954102 67.2097168 C55.60247652 51.12594426 47.31462941 37.78286586 35.15625 27.3671875 C6.18498627 5.6387397 -22.8498957 17.83900848 -47.5 38.375 Z M-242.5 198.375 C-243.11230469 198.90480469 -243.72460938 199.43460938 -244.35546875 199.98046875 C-258.8066906 213.37347756 -267.82621692 233.41490748 -268.8828125 252.9453125 C-269.65813362 278.19353995 -261.68934985 299.40547641 -244.375 318 C-229.22377529 332.57652308 -207.49913654 341.56590124 -186.5 341.375 C-166.87130993 340.52157869 -149.61509202 334.08357469 -134.5 321.375 C-133.37271484 320.46621094 -133.37271484 320.46621094 -132.22265625 319.5390625 C-116.61797087 306.46847133 -107.69753862 286.88606056 -104.75 267 C-103.30422461 246.03625691 -108.46039017 224.45424944 -122.14453125 208.11328125 C-124.81180637 205.07478016 -127.62271375 202.21507996 -130.5 199.375 C-131.62921875 198.24771484 -131.62921875 198.24771484 -132.78125 197.09765625 C-163.57029573 168.03770548 -211.94832711 171.29634144 -242.5 198.375 Z M-279.3984375 304.078125 C-280.56237609 305.25541151 -281.72100695 306.4379631 -282.875 307.625 C-283.4525 308.21152344 -284.03 308.79804688 -284.625 309.40234375 C-285.7137327 310.50847629 -286.80039483 311.61665348 -287.88427734 312.72753906 C-289.74313613 314.62291215 -291.62279528 316.49779528 -293.5 318.375 C-284.26 318.045 -275.02 317.715 -265.5 317.375 C-268.08717212 312.85732426 -268.08717212 312.85732426 -270.67553711 308.34033203 C-273.38888889 303.59722222 -273.38888889 303.59722222 -274.5 301.375 C-276.91677916 301.14765424 -276.91677916 301.14765424 -279.3984375 304.078125 Z M-336.5 358.375 C-353.20772088 375.67574183 -359.09350237 396.85526614 -358.76953125 420.4296875 C-358.10573653 441.06291256 -347.66546283 461.2495198 -332.8125 475.40625 C-315.99703544 489.72211848 -294.73080797 498.71996409 -272.3671875 497.12109375 C-253.68029716 495.43643431 -236.52091013 489.09810688 -222.5 476.375 C-221.66855469 475.63636719 -220.83710938 474.89773438 -219.98046875 474.13671875 C-207.2795471 462.21619167 -198.06022394 445.73132337 -195.5 428.375 C-195.39042969 427.64023437 -195.28085938 426.90546875 -195.16796875 426.1484375 C-192.513167 405.54717595 -197.41386934 384.34733087 -209.5 367.375 C-212.86972695 363.08034989 -216.61876371 359.20604789 -220.5 355.375 C-221.62921875 354.24771484 -221.62921875 354.24771484 -222.78125 353.09765625 C-255.68595477 322.04086062 -305.81845588 328.4521797 -336.5 358.375 Z M-152.5 354.375 C-153.11230469 354.90480469 -153.72460938 355.43460937 -154.35546875 355.98046875 C-168.8066906 369.37347756 -177.82621692 389.41490748 -178.8828125 408.9453125 C-179.65813362 434.19353995 -171.68934985 455.40547641 -154.375 474 C-139.2344477 488.56625549 -117.48941392 497.58917769 -96.5 497.375 C-76.37212756 496.35246103 -57.59703549 490.07462394 -42.5 476.375 C-41.66855469 475.63636719 -40.83710938 474.89773438 -39.98046875 474.13671875 C-27.2795471 462.21619167 -18.06022394 445.73132337 -15.5 428.375 C-15.39042969 427.64023437 -15.28085937 426.90546875 -15.16796875 426.1484375 C-12.513167 405.54717595 -17.41386934 384.34733087 -29.5 367.375 C-32.86972695 363.08034989 -36.61876371 359.20604789 -40.5 355.375 C-41.62921875 354.24771484 -41.62921875 354.24771484 -42.78125 353.09765625 C-73.57029573 324.03770548 -121.94832711 327.29634144 -152.5 354.375 Z M-197.5 356.375 C-196.21077199 358.95345602 -194.91254281 361.50637152 -193.5546875 364.046875 C-193.20019531 364.71074219 -192.84570312 365.37460937 -192.48046875 366.05859375 C-192.11566406 366.74050781 -191.75085938 367.42242187 -191.375 368.125 C-191.00246094 368.82238281 -190.62992188 369.51976562 -190.24609375 370.23828125 C-189.33120092 371.95077295 -188.41566431 373.66292068 -187.5 375.375 C-184.66646105 373.95823053 -184.09023903 372.03623174 -182.625 369.25 C-180.32455839 364.90204492 -177.94454107 360.65294688 -175.5 356.375 C-182.76 356.375 -190.02 356.375 -197.5 356.375 Z " fill="#000000" transform="translate(374.5,-0.375)"/>
<path d="M0 0 C1.03680908 -0.01023193 2.07361816 -0.02046387 3.1418457 -0.03100586 C13.59625712 0.08731474 23.22113293 2.27749054 32.5 7.125 C33.17812744 7.47385254 33.85625488 7.82270508 34.55493164 8.18212891 C52.06935037 17.47004664 64.39416552 32.95978359 70.3125 51.75 C71.94995832 57.27339617 73.21625363 62.66593549 73.375 68.4375 C73.41367187 69.12457031 73.45234375 69.81164062 73.4921875 70.51953125 C74.1353869 90.35151276 66.57493001 108.86553425 53.375 123.4375 C40.21386976 137.194779 22.97221488 145.35105213 3.90893555 145.78100586 C-17.91011646 145.99025853 -35.2982792 140.66706516 -51.625 125.4375 C-66.73438248 109.82825825 -73.30495247 91.42161773 -73.09570312 69.92822266 C-72.43916065 48.78965035 -63.18400079 31.51346229 -48.1875 17.09375 C-34.31617243 5.23011458 -17.94612206 0.13610563 0 0 Z M-22.625 20.4375 C-23.57632813 20.88480469 -24.52765625 21.33210938 -25.5078125 21.79296875 C-39.61148199 28.96009235 -49.26087785 40.53023029 -54.625 55.4375 C-59.2621443 71.14500993 -57.20919096 86.75407214 -49.8125 101.25 C-41.6363567 115.2836788 -29.20371562 123.30224442 -14.125 128.6875 C1.30602061 131.99414727 16.66412955 129.82419433 30.31640625 121.68359375 C43.65626602 112.49968473 52.54256763 100.23972116 56.375 84.4375 C58.56357679 68.27027148 56.1003348 53.30283276 46.6875 39.6875 C37.19822968 27.50221269 25.45917716 19.87251064 10.375 16.4375 C6.90338848 16.03100968 3.49288347 15.95927232 0 16 C-1.37744385 16.01135986 -1.37744385 16.01135986 -2.78271484 16.02294922 C-9.98214896 16.19718036 -16.08431147 17.30301573 -22.625 20.4375 Z " fill="#000000" transform="translate(277.625,341.5625)"/>
<path d="M0 0 C1.03680908 -0.01023193 2.07361816 -0.02046387 3.1418457 -0.03100586 C13.5959667 0.08731146 23.22151666 2.27711836 32.5 7.125 C33.17885254 7.47457764 33.85770508 7.82415527 34.55712891 8.18432617 C51.32940826 17.08524673 63.34423736 31.42427422 69.72265625 49.19140625 C71.63390511 55.54168472 73.08549012 61.80394754 73.375 68.4375 C73.41496094 69.12714844 73.45492187 69.81679688 73.49609375 70.52734375 C74.10600847 90.36751078 66.58573455 108.85360666 53.375 123.4375 C40.21386976 137.194779 22.97221488 145.35105213 3.90893555 145.78100586 C-18.44345924 145.99537348 -36.15320696 140.33048918 -52.625 124.4375 C-67.75154504 107.91348274 -73.68870444 89.08342023 -73.00390625 66.97265625 C-71.9228886 47.05007707 -62.26453203 30.62935772 -48.1875 17.09375 C-34.31617243 5.23011458 -17.94612206 0.13610563 0 0 Z M-22.625 20.4375 C-23.57632813 20.88480469 -24.52765625 21.33210938 -25.5078125 21.79296875 C-39.61148199 28.96009235 -49.26087785 40.53023029 -54.625 55.4375 C-59.2621443 71.14500993 -57.20919096 86.75407214 -49.8125 101.25 C-41.6363567 115.2836788 -29.20371562 123.30224442 -14.125 128.6875 C1.30602061 131.99414727 16.66412955 129.82419433 30.31640625 121.68359375 C43.65893662 112.49784614 52.53811573 100.24055759 56.375 84.4375 C58.62544529 67.97658159 56.20353204 53.55305254 46.6875 39.75 C37.2459553 27.50246351 25.47188421 19.87540433 10.375 16.4375 C6.90338848 16.03100968 3.49288347 15.95927232 0 16 C-1.37744385 16.01135986 -1.37744385 16.01135986 -2.78271484 16.02294922 C-9.98214896 16.19718036 -16.08431147 17.30301573 -22.625 20.4375 Z " fill="#000000" transform="translate(97.625,341.5625)"/>
<path d="M0 0 C15.44368645 13.3707084 25.97162569 30.34539033 27.53515625 51.12890625 C27.56480469 51.80824219 27.59445312 52.48757812 27.625 53.1875 C27.66496094 53.87714844 27.70492187 54.56679687 27.74609375 55.27734375 C28.35600847 75.11751078 20.83573455 93.60360666 7.625 108.1875 C-5.53613024 121.944779 -22.77778512 130.10105213 -41.84106445 130.53100586 C-64.19345924 130.74537348 -81.90320696 125.08048918 -98.375 109.1875 C-113.49753183 92.66786671 -119.41516758 73.85877395 -118.765625 51.7578125 C-118.27870342 42.71278195 -116.9866846 32.88489162 -110.375 26.1875 C-107.62236809 25.32192629 -105.17968955 25.57828465 -102.375 26.1875 C-99.875 27.75 -99.875 27.75 -98.375 30.1875 C-97.75456778 34.53052554 -98.55178999 37.85390931 -99.875 41.9375 C-104.2130248 57.00642826 -101.56690127 72.33783385 -94.5 86.0625 C-86.70945431 99.42048282 -74.24146701 108.30055733 -59.3125 112.4375 C-58.00495018 112.71221754 -56.69186289 112.96160539 -55.375 113.1875 C-54.64152344 113.3215625 -53.90804687 113.455625 -53.15234375 113.59375 C-38.89003514 115.63453562 -24.31324786 111.56267276 -12.5625 103.4375 C-0.44394024 93.97482199 7.99487067 81.11110728 10.109375 65.64453125 C11.42039254 47.65659935 7.44285956 33.08204865 -4.375 19.1875 C-14.46325852 8.32756499 -28.66377601 2.16791612 -43.39453125 1.19140625 C-55.1960332 1.17593901 -65.47158141 4.27990457 -75.6875 10.0625 C-79.3426268 11.59255308 -81.59807562 11.25644086 -85.375 10.1875 C-88.19472931 7.82256574 -88.35350831 6.3594335 -88.8125 2.6875 C-88.29070926 -1.48682591 -87.49720003 -2.14540032 -84.375 -4.8125 C-58.35879857 -21.1492042 -24.08126697 -18.40172287 0 0 Z " fill="#000000" transform="translate(233.375,200.8125)"/>
</svg>
