<?xml version="1.0" encoding="UTF-8"?>
<svg version="1.1" xmlns="http://www.w3.org/2000/svg" width="512" height="512">
<path d="M0 0 C0.85435733 -0.00581376 1.70871466 -0.01162753 2.5889616 -0.01761746 C5.4714958 -0.03229516 8.35318882 -0.0182961 11.23571777 -0.00457001 C13.31522306 -0.00917585 15.3947251 -0.01552662 17.47422028 -0.02347898 C23.20394158 -0.04023891 28.93339777 -0.03189569 34.66312027 -0.01953411 C40.83634525 -0.01051315 47.00952346 -0.02443864 53.18273926 -0.0354538 C64.582214 -0.0522443 75.98158018 -0.05074445 87.38105226 -0.03980792 C97.91114844 -0.02975478 108.44121348 -0.02711464 118.97131348 -0.0318985 C119.6691768 -0.03220404 120.36704012 -0.03250958 121.08605081 -0.03282438 C123.91874205 -0.03406969 126.75143327 -0.03534328 129.58412448 -0.03666343 C156.16940655 -0.04890576 182.75463452 -0.03779558 209.33990824 -0.01627585 C232.9712227 0.00270729 256.60245094 0.00100881 280.23376465 -0.01811981 C306.76970493 -0.0395277 333.30559739 -0.04803762 359.8415451 -0.03567076 C362.66914367 -0.03438784 365.49674224 -0.03313649 368.32434082 -0.0318985 C369.02059297 -0.03158219 369.71684512 -0.03126588 370.43419582 -0.03093999 C380.95895126 -0.02638569 391.48367219 -0.03171938 402.00842285 -0.04181671 C413.97280025 -0.05323781 425.93707578 -0.05004233 437.9014492 -0.02869374 C444.01023517 -0.01815415 450.1188458 -0.01411096 456.22763062 -0.02729034 C461.81361349 -0.03915988 467.39925757 -0.03274183 472.98520947 -0.01138014 C475.01206214 -0.00689092 477.03894311 -0.00923186 479.06577778 -0.01888329 C481.80948366 -0.03095183 484.5520112 -0.01867005 487.2956543 0 C488.49106228 -0.014047 488.49106228 -0.014047 489.71061993 -0.02837777 C493.11884586 0.01834994 495.27334619 0.25358212 498.13855225 2.16470248 C500.0476184 5.12285187 500.14804087 6.91240186 500.1483984 10.42532253 C500.15821269 11.64445809 500.16802698 12.86359365 500.17813867 14.11967272 C500.16879916 15.47453686 500.15908358 16.82939845 500.14903259 18.18425751 C500.15292428 19.62213045 500.15856366 21.05999955 500.16580349 22.49785954 C500.18059697 26.45441131 500.17035385 30.41056667 500.15606678 34.36710584 C500.14498194 38.63251121 500.15689172 42.89785982 500.16590881 47.16326141 C500.17986353 55.52383587 500.17226713 63.88425959 500.15723323 72.24482691 C500.14038543 81.98483112 500.14358218 91.72479765 500.14732731 101.46481193 C500.15321071 118.85228637 500.13901935 136.23968848 500.11437988 153.62714386 C500.090491 170.48687201 500.08336207 187.34650339 500.09387207 204.20624542 C500.1052958 222.56463245 500.10719079 240.92297466 500.09277397 259.28136116 C500.09124817 261.24157814 500.08972781 263.20179512 500.08821297 265.1620121 C500.08745515 266.12644149 500.08669734 267.09087087 500.08591656 268.08452539 C500.08118236 274.867211 500.08301928 281.64987657 500.08727837 288.43256187 C500.09221876 296.71018743 500.08616065 304.98772166 500.06638407 313.26532637 C500.05654808 317.48563878 500.05136657 321.70581252 500.05927658 325.9261322 C500.06638315 329.79722582 500.05941374 333.66804088 500.04167295 337.53909803 C500.03766014 338.9321966 500.0385744 340.32532096 500.04519182 341.71840959 C500.12084271 359.15003454 496.15214388 373.58887866 485.64782715 387.50336456 C485.02907715 388.41086456 484.41032715 389.31836456 483.77282715 390.25336456 C476.22442154 398.24579403 466.41062102 402.12912813 455.56904221 402.59214413 C453.34642192 402.62829012 451.1260947 402.63198095 448.90319824 402.62361908 C447.63725279 402.62490072 447.63725279 402.62490072 446.34573269 402.62620825 C443.5375546 402.62784617 440.72943717 402.62236947 437.92126465 402.61688995 C435.9004059 402.61660769 433.87954705 402.61676658 431.85868835 402.61733246 C426.3861871 402.61761891 420.91370785 402.61174676 415.4412117 402.6047585 C409.71703453 402.59849964 403.99285683 402.59791916 398.26867676 402.59673309 C387.43519393 402.59362725 376.60172121 402.58542391 365.76824284 402.5753836 C353.4321386 402.56419929 341.09603388 402.55870617 328.75992584 402.55368817 C303.38922068 402.54324068 278.01852448 402.52565569 252.64782715 402.50336456 C252.65893021 403.8077095 252.67003326 405.11205444 252.68147278 406.45592499 C252.78278819 418.74227183 252.85776375 431.02853402 252.90688801 443.31520367 C252.93299232 449.63208856 252.96840679 455.9486365 253.02502441 462.26532745 C253.07931264 468.36020791 253.10924139 474.45476407 253.12221336 480.54986763 C253.13145884 482.87634449 253.14951297 485.20280341 253.17647743 487.52914238 C253.21272395 490.78550837 253.21777414 494.04053079 253.2154541 497.29706573 C253.23343048 498.2609169 253.25140686 499.22476807 253.26992798 500.21782684 C253.26305466 501.10818634 253.25618134 501.99854584 253.24909973 502.91588593 C253.2537087 503.68558307 253.25831766 504.45528021 253.26306629 505.24830151 C252.2615852 508.91907415 250.71763391 510.27688168 247.64782715 512.50336456 C244.21615945 513.23137508 240.85210757 513.17384476 237.35472107 513.13155365 C235.78446217 513.14219523 235.78446217 513.14219523 234.18248087 513.15305179 C230.66917446 513.17067599 227.15696783 513.15250339 223.64367676 513.13446808 C221.12728877 513.13960513 218.61090437 513.14688479 216.0945282 513.15615082 C209.9662351 513.17277207 203.83835085 513.16601313 197.71007317 513.14806259 C192.7302263 513.13403881 187.75046599 513.1301433 182.77060127 513.13350487 C181.70761107 513.13422103 181.70761107 513.13422103 180.62314631 513.13495166 C179.18354489 513.13597799 177.74394348 513.13703334 176.3043421 513.13811743 C163.5746164 513.1466851 150.84504468 513.1300067 138.11535645 513.10028839 C125.76014744 513.07144468 113.40516021 513.06437019 101.04992676 513.07978058 C87.59767231 513.09653626 74.14552316 513.10058393 60.69326597 513.08307022 C59.25925642 513.08122581 57.82524684 513.07939109 56.39123726 513.07756615 C55.68566282 513.07665406 54.98008838 513.07574197 54.25313289 513.07480224 C49.27809632 513.06919335 44.30311111 513.07250723 39.32807732 513.0791111 C32.63443696 513.08764348 25.94116471 513.07470614 19.2475605 513.04726219 C16.7868711 513.04035877 14.32615187 513.04030119 11.86546326 513.04747772 C8.51459748 513.05612641 5.16473148 513.04029308 1.81394958 513.01802826 C0.83292879 513.02626903 -0.14809201 513.03450979 -1.15884072 513.04300028 C-2.05547068 513.03195259 -2.95210065 513.0209049 -3.87590122 513.00952244 C-4.64933921 513.00833096 -5.42277721 513.00713947 -6.21965271 513.00591189 C-9.39497296 512.25761945 -10.47565807 511.17119873 -12.35217285 508.50336456 C-12.74408339 505.59265976 -12.88973227 503.06119442 -12.85553741 500.15119171 C-12.86135118 499.29683438 -12.86716494 498.44247705 -12.87315488 497.56223011 C-12.88783257 494.67969592 -12.87383351 491.7980029 -12.86010742 488.91547394 C-12.86471326 486.83596865 -12.87106403 484.75646662 -12.8790164 482.67697144 C-12.89577632 476.94725013 -12.8874331 471.21779394 -12.87507153 465.48807144 C-12.86605056 459.31484646 -12.87997605 453.14166825 -12.89099121 446.96845245 C-12.90778172 435.56897771 -12.90628186 424.16961153 -12.89534534 412.77013946 C-12.8852922 402.24004327 -12.88265206 391.70997823 -12.88743591 381.17987823 C-12.88774145 380.48201492 -12.88804699 379.7841516 -12.88836179 379.0651409 C-12.8896071 376.23244966 -12.8908807 373.39975844 -12.89220085 370.56706724 C-12.90444317 343.98178516 -12.89333299 317.3965572 -12.87181326 290.81128347 C-12.85283013 267.17996901 -12.85452861 243.54874077 -12.87365723 219.91742706 C-12.89506511 193.38148678 -12.90357503 166.84559432 -12.89120817 140.30964661 C-12.88992526 137.48204805 -12.8886739 134.65444947 -12.88743591 131.82685089 C-12.8871196 131.13059874 -12.88680329 130.43434659 -12.8864774 129.71699589 C-12.8819231 119.19224045 -12.8872568 108.66751953 -12.89735413 98.14276886 C-12.90877522 86.17839146 -12.90557975 74.21411593 -12.88423115 62.24974251 C-12.87369156 56.14095654 -12.86964837 50.03234591 -12.88282776 43.9235611 C-12.89469729 38.33757822 -12.88827924 32.75193414 -12.86691755 27.16598225 C-12.86242833 25.13912957 -12.86476928 23.1122486 -12.8744207 21.08541393 C-12.88648924 18.34170805 -12.87420746 15.59918052 -12.85553741 12.85553741 C-12.86958441 11.66012943 -12.86958441 11.66012943 -12.88391519 10.44057178 C-12.83850291 7.12829144 -12.57363831 4.86877654 -10.84272337 2.01281404 C-7.29907569 -0.13488668 -4.02199659 -0.04726167 0 0 Z M5.64782715 18.50336456 C5.64782715 175.58336456 5.64782715 332.66336456 5.64782715 494.50336456 C81.21782715 494.50336456 156.78782715 494.50336456 234.64782715 494.50336456 C234.64782715 464.14336456 234.64782715 433.78336456 234.64782715 402.50336456 C226.06782715 402.17336456 217.48782715 401.84336456 208.64782715 401.50336456 C196.28410506 399.25541509 187.35165835 395.68232226 179.64782715 385.50336456 C167.97793284 367.09710204 164.19068884 344.99657235 168.88366699 323.65399933 C171.47959623 313.42682703 175.50083534 305.02203037 181.64782715 296.50336456 C182.76157715 294.92555206 182.76157715 294.92555206 183.89782715 293.31586456 C197.67557324 279.22498788 215.44746253 282.14337672 234.64782715 281.50336456 C234.64782715 194.71336456 234.64782715 107.92336456 234.64782715 18.50336456 C159.07782715 18.50336456 83.50782715 18.50336456 5.64782715 18.50336456 Z M260.64782715 18.50336456 C259.65782715 20.48336456 258.66782715 22.46336456 257.64782715 24.50336456 C255.99782715 25.16336456 254.34782715 25.82336456 252.64782715 26.50336456 C252.64782715 37.39336456 252.64782715 48.28336456 252.64782715 59.50336456 C254.62782715 60.49336456 256.60782715 61.48336456 258.64782715 62.50336456 C260.24339682 66.09339633 260.85289709 68.37547986 260.14782715 72.25336456 C258.64782715 74.50336456 258.64782715 74.50336456 252.64782715 77.50336456 C252.64782715 88.39336456 252.64782715 99.28336456 252.64782715 110.50336456 C254.62782715 111.49336456 256.60782715 112.48336456 258.64782715 113.50336456 C260.2950875 117.20970036 260.95058636 119.36801751 259.89782715 123.31586456 C258.64782715 125.50336456 258.64782715 125.50336456 256.64782715 127.50336456 C254.66782715 127.99836456 254.66782715 127.99836456 252.64782715 128.50336456 C252.64782715 139.39336456 252.64782715 150.28336456 252.64782715 161.50336456 C254.62782715 162.49336456 256.60782715 163.48336456 258.64782715 164.50336456 C260.67717108 169.17967883 260.84859764 172.58020554 259.64782715 177.50336456 C256.18282715 178.49336456 256.18282715 178.49336456 252.64782715 179.50336456 C252.64782715 190.72336456 252.64782715 201.94336456 252.64782715 213.50336456 C254.95782715 214.16336456 257.26782715 214.82336456 259.64782715 215.50336456 C260.63883136 220.4583856 261.03049521 223.94521696 258.64782715 228.50336456 C256.66782715 229.49336456 254.68782715 230.48336456 252.64782715 231.50336456 C252.64782715 242.39336456 252.64782715 253.28336456 252.64782715 264.50336456 C254.29782715 265.16336456 255.94782715 265.82336456 257.64782715 266.50336456 C260.13942233 268.99495975 260.41911063 269.99637794 260.64782715 273.50336456 C259.16282715 277.46336456 259.16282715 277.46336456 257.64782715 281.50336456 C271.17782715 281.50336456 284.70782715 281.50336456 298.64782715 281.50336456 C297.65782715 280.18336456 296.66782715 278.86336456 295.64782715 277.50336456 C295.03651888 273.71179781 295.43342916 270.14655854 296.64782715 266.50336456 C299.32426672 265.61121804 300.90167092 265.36796246 303.64782715 265.37836456 C304.32845215 265.37578644 305.00907715 265.37320831 305.71032715 265.37055206 C307.64782715 265.50336456 307.64782715 265.50336456 310.64782715 266.50336456 C310.90067162 267.87420811 311.12387711 269.25052885 311.33532715 270.62836456 C311.46294434 271.39406769 311.59056152 272.15977081 311.7220459 272.94867706 C311.64782715 275.50336456 311.64782715 275.50336456 308.64782715 281.50336456 C322.17782715 281.50336456 335.70782715 281.50336456 349.64782715 281.50336456 C348.98782715 281.17336456 348.32782715 280.84336456 347.64782715 280.50336456 C346.44591813 276.89763752 346.321124 274.29312107 346.64782715 270.50336456 C348.14782715 267.56586456 348.14782715 267.56586456 350.64782715 265.50336456 C353.6032095 264.87898801 355.55380395 265.11047273 358.64782715 265.50336456 C360.82259116 267.04674548 361.46615351 268.14001729 362.64782715 270.50336456 C362.7989523 273.97924296 362.8670872 277.21136243 361.64782715 280.50336456 C360.98782715 280.83336456 360.32782715 281.16336456 359.64782715 281.50336456 C373.17782715 281.50336456 386.70782715 281.50336456 400.64782715 281.50336456 C399.65782715 279.52336456 398.66782715 277.54336456 397.64782715 275.50336456 C397.71165748 271.73737485 397.824656 269.48483786 400.27282715 266.56586456 C403.62464768 265.0663659 406.01762933 265.04958984 409.64782715 265.50336456 C412.08532715 267.00336456 412.08532715 267.00336456 413.64782715 269.50336456 C414.19124396 273.36162392 413.88529409 276.79096375 412.64782715 280.50336456 C411.98782715 280.83336456 411.32782715 281.16336456 410.64782715 281.50336456 C424.17782715 281.50336456 437.70782715 281.50336456 451.64782715 281.50336456 C450.65782715 279.19336456 449.66782715 276.88336456 448.64782715 274.50336456 C449.27282715 270.69086456 449.27282715 270.69086456 450.64782715 267.50336456 C454.36841075 265.02297549 456.24579285 265.03999253 460.64782715 265.50336456 C463.08532715 267.00336456 463.08532715 267.00336456 464.64782715 269.50336456 C465.35986479 273.45193695 465.41293594 276.37624778 463.1204834 279.75336456 C462.63450684 280.33086456 462.14853027 280.90836456 461.64782715 281.50336456 C462.8079834 281.95775909 462.8079834 281.95775909 463.99157715 282.42133331 C465.5539209 283.04975128 465.5539209 283.04975128 467.14782715 283.69086456 C468.16876465 284.09691925 469.18970215 284.50297394 470.24157715 284.92133331 C474.22283076 286.77042473 477.92536385 289.176825 481.64782715 291.50336456 C481.64782715 279.95336456 481.64782715 268.40336456 481.64782715 256.50336456 C479.66782715 255.51336456 477.68782715 254.52336456 475.64782715 253.50336456 C474.10195839 250.41162705 474.35423193 247.90906904 474.64782715 244.50336456 C476.7535251 241.81678442 478.7988454 240.40268573 481.64782715 238.50336456 C481.91494119 235.94940969 481.99631744 233.64062083 481.9407959 231.08930206 C481.93655106 230.35966248 481.93230621 229.63002289 481.92793274 228.87827301 C481.91112068 226.54459697 481.87346583 224.21178016 481.83532715 221.87836456 C481.82028349 220.29764786 481.80659453 218.71691763 481.79431152 217.13617706 C481.76120916 213.25824112 481.70941119 209.38094858 481.64782715 205.50336456 C480.67845215 205.23523956 479.70907715 204.96711456 478.71032715 204.69086456 C477.69970215 204.29898956 476.68907715 203.90711456 475.64782715 203.50336456 C474.43521838 199.86553824 474.25238163 197.32600457 474.64782715 193.50336456 C476.82056935 190.87320295 478.59456503 189.02999562 481.64782715 187.50336456 C481.64782715 176.61336456 481.64782715 165.72336456 481.64782715 154.50336456 C478.67782715 153.51336456 478.67782715 153.51336456 475.64782715 152.50336456 C474.44591813 148.89763752 474.321124 146.29312107 474.64782715 142.50336456 C476.78462 139.11396901 477.82530385 137.777539 481.64782715 136.50336456 C481.64782715 125.28336456 481.64782715 114.06336456 481.64782715 102.50336456 C479.99782715 101.84336456 478.34782715 101.18336456 476.64782715 100.50336456 C474.32159067 97.01400985 474.39710221 95.59853859 474.64782715 91.50336456 C474.68907715 90.76086456 474.73032715 90.01836456 474.77282715 89.25336456 C475.64782715 87.50336456 475.64782715 87.50336456 481.64782715 85.50336456 C481.64782715 74.28336456 481.64782715 63.06336456 481.64782715 51.50336456 C479.66782715 50.51336456 477.68782715 49.52336456 475.64782715 48.50336456 C473.96872806 45.14516639 474.25327816 41.79461579 475.33532715 38.25336456 C476.64782715 36.50336456 476.64782715 36.50336456 481.64782715 34.50336456 C481.64782715 29.22336456 481.64782715 23.94336456 481.64782715 18.50336456 C476.36782715 18.50336456 471.08782715 18.50336456 465.64782715 18.50336456 C464.98782715 20.15336456 464.32782715 21.80336456 463.64782715 23.50336456 C461.64239665 25.20026729 460.28799364 25.51606628 457.67907715 25.46430206 C452.05897173 24.91450914 452.05897173 24.91450914 449.64782715 22.50336456 C449.31782715 21.18336456 448.98782715 19.86336456 448.64782715 18.50336456 C437.42782715 18.50336456 426.20782715 18.50336456 414.64782715 18.50336456 C413.98782715 20.48336456 413.32782715 22.46336456 412.64782715 24.50336456 C404.7202404 25.93689332 404.7202404 25.93689332 400.71032715 24.31586456 C398.64782715 22.50336456 398.64782715 22.50336456 396.64782715 18.50336456 C385.75782715 18.50336456 374.86782715 18.50336456 363.64782715 18.50336456 C362.98782715 20.48336456 362.32782715 22.46336456 361.64782715 24.50336456 C352.23780437 25.83593859 352.23780437 25.83593859 347.64782715 24.50336456 C346.65782715 21.53336456 346.65782715 21.53336456 345.64782715 18.50336456 C341.02150511 18.35484089 336.39657473 18.24607438 331.76843262 18.17377472 C330.19494452 18.14363375 328.62162403 18.10271162 327.04870605 18.05072784 C324.78445127 17.97777965 322.52241901 17.9438865 320.25720215 17.91742706 C319.55601257 17.88645935 318.854823 17.85549164 318.13238525 17.82358551 C315.86699133 17.75779985 315.86699133 17.75779985 312.64782715 18.50336456 C310.34535821 21.40075662 310.34535821 21.40075662 308.64782715 24.50336456 C304.97618395 25.57147895 302.55785878 25.70559382 298.83532715 24.87836456 C296.64782715 23.50336456 296.64782715 23.50336456 294.64782715 18.50336456 C283.42782715 18.50336456 272.20782715 18.50336456 260.64782715 18.50336456 Z M194.64782715 307.50336456 C185.30066105 321.82048726 182.85209012 337.15708177 185.10876465 353.92914581 C187.43226282 364.24821123 191.87992908 375.11213397 200.64782715 381.50336456 C206.64635845 384.29046594 212.3951556 384.93426516 218.93031311 384.86412811 C219.82005024 384.86669139 220.70978738 384.86925466 221.62648624 384.87189561 C224.5837402 384.87680517 227.54047438 384.86038752 230.49768066 384.84394073 C232.62705981 384.84309385 234.75643984 384.8435708 236.88581848 384.84526825 C242.64964178 384.84612723 248.4132769 384.82851706 254.17705655 384.80754638 C260.20684935 384.78876345 266.23664669 384.78702786 272.26646423 384.78347015 C283.67723067 384.77415445 295.08791064 384.74954703 306.49863905 384.71942168 C319.49254242 384.68586295 332.48644997 384.66938795 345.4803859 384.65433538 C372.20291421 384.62299711 398.92536583 384.57024578 425.64782715 384.50336456 C424.40742294 381.37995651 423.11751916 378.30510628 421.71032715 375.25336456 C412.45895177 354.27440925 412.92152809 332.53862953 420.23376465 311.07367706 C421.30349294 308.37276088 422.42900401 305.86290403 423.73620605 303.28022003 C424.09469635 302.56993652 424.45318665 301.85965302 424.82254028 301.12784576 C425.09488495 300.59176697 425.36722961 300.05568817 425.64782715 299.50336456 C397.34507052 299.4332987 369.04232688 299.38038822 340.739501 299.34792805 C327.5981551 299.33245596 314.45686308 299.31135981 301.31555176 299.2770462 C289.86224442 299.24715443 278.4089761 299.22779205 266.95563084 299.22109908 C260.89058768 299.21718647 254.82565613 299.207984 248.76064873 299.18617439 C243.05208943 299.16581287 237.34368775 299.15953015 231.6350956 299.16404152 C229.54009011 299.16321618 227.44507936 299.15724863 225.35010529 299.14574814 C222.48845407 299.13080944 219.62739695 299.13441615 216.76573181 299.14260101 C215.93789497 299.13386249 215.11005813 299.12512396 214.25713533 299.11612064 C206.57415046 299.17546441 199.8401982 301.5142805 194.64782715 307.50336456 Z M441.2454834 309.26117706 C432.30952147 321.8021114 430.32287613 337.31923436 432.33532715 352.31586456 C434.33257886 363.21753016 438.76105359 373.62091214 447.33532715 380.94477081 C451.83551321 383.93447775 456.44707296 384.44463452 461.64782715 383.50336456 C468.60616265 379.89038267 472.92168568 374.64855628 476.33532715 367.69086456 C476.91669434 366.52941925 477.49806152 365.36797394 478.0970459 364.17133331 C484.07113362 350.04118628 483.52684887 333.15319455 478.1361084 318.90570831 C474.5793851 310.77472145 470.13313066 304.31291027 462.08532715 300.19086456 C453.26107624 297.70197328 446.64069845 302.55095516 441.2454834 309.26117706 Z " fill="#000000" transform="translate(12.3521728515625,-0.5033645629882813)"/>
<path d="M0 0 C2.4375 1.5625 2.4375 1.5625 4 4 C4.70476018 8.93332128 4.77041398 10.84437903 2 15 C-2.15562097 17.77041398 -4.06667872 17.70476018 -9 17 C-12.34238038 14.85744848 -12.89167954 13.39717502 -13.9375 9.5625 C-14.00779003 5.55596849 -13.53249114 4.05645482 -11 1 C-7.44544736 -1.79286279 -4.2131487 -1.05328717 0 0 Z " fill="#000000" transform="translate(295,239)"/>
<path d="M0 0 C2.4375 1.5625 2.4375 1.5625 4 4 C4.70476018 8.93332128 4.77041398 10.84437903 2 15 C-2.15562097 17.77041398 -4.06667872 17.70476018 -9 17 C-12.34238038 14.85744848 -12.89167954 13.39717502 -13.9375 9.5625 C-14.00779003 5.55596849 -13.53249114 4.05645482 -11 1 C-7.44544736 -1.79286279 -4.2131487 -1.05328717 0 0 Z " fill="#000000" transform="translate(423,111)"/>
<path d="M0 0 C2.9033447 2.60556576 3.87407924 4.13654335 4.4375 8 C3.94702329 11.36326885 3.01736344 13.28431844 1 16 C-2.22938367 17.61469184 -5.50856753 17.58079278 -9 17 C-12 14.9375 -12 14.9375 -14 12 C-14.625 8.5 -14.625 8.5 -14 5 C-9.47064013 -0.48290932 -6.9543317 -1.67863179 0 0 Z " fill="#000000" transform="translate(372,111)"/>
<path d="M0 0 C3.74785043 2.08213913 4.79482295 3.2947039 6 7.4375 C6 11.40316899 5.44976383 12.93779521 3 16 C-0.75047482 18.50031654 -2.55856266 18.53603554 -7 18 C-9.92539902 16.00823896 -11.58729794 14.55075925 -12.515625 11.0625 C-12.70247194 8.82033669 -12.61585026 7.16639525 -12 5 C-8.36438899 0.84501599 -5.54577572 -1.06195705 0 0 Z " fill="#000000" transform="translate(447,187)"/>
<path d="M0 0 C2.4375 1.5625 2.4375 1.5625 4 4 C4.7099846 8.9698922 4.79117716 10.84919686 1.9375 15 C-1.71939665 17.48980198 -3.65420914 17.55310065 -8 17 C-10.60248618 16.15595043 -11.64196906 15.4603255 -13.3125 13.3125 C-14.33096265 9.88676201 -13.86045982 7.44183926 -13 4 C-8.89584932 -1.03089438 -6.29304756 -1.41051066 0 0 Z " fill="#000000" transform="translate(295,188)"/>
<path d="M0 0 C3.34238038 2.14255152 3.89167954 3.60282498 4.9375 7.4375 C5.00779003 11.44403151 4.53249114 12.94354518 2 16 C-0.6740203 18.10101595 -2.04284685 17.99846976 -5.5 17.875 C-9.405988 16.898503 -10.83194553 16.38216497 -13 13 C-13.70476018 8.06667872 -13.77041398 6.15562097 -11 2 C-6.84437903 -0.77041398 -4.93332128 -0.70476018 0 0 Z " fill="#000000" transform="translate(448,136)"/>
<path d="M0 0 C2.4375 1.5625 2.4375 1.5625 4 4 C4.7099846 8.9698922 4.79117716 10.84919686 1.9375 15 C-1.71939665 17.48980198 -3.65420914 17.55310065 -8 17 C-10.60248618 16.15595043 -11.64196906 15.4603255 -13.3125 13.3125 C-14.33096265 9.88676201 -13.86045982 7.44183926 -13 4 C-8.89584932 -1.03089438 -6.29304756 -1.41051066 0 0 Z " fill="#000000" transform="translate(423,60)"/>
<path d="M0 0 C2.58971247 0.86323749 3.66500737 1.53101032 5.25 3.75 C6.46967318 7.40901955 6.46967318 10.59098045 5.25 14.25 C3.66500737 16.46898968 2.58971247 17.13676251 0 18 C-3.91624485 18.32635374 -6.70577509 18.2353669 -10 16 C-12.4915904 12.2626144 -12.45793285 10.42668417 -12 6 C-8.52603239 0.67324966 -6.27054364 -0.37623262 0 0 Z " fill="#000000" transform="translate(370,59)"/>
<path d="M0 0 C3.74785043 2.08213913 4.79482295 3.2947039 6 7.4375 C6 11.40316899 5.44976383 12.93779521 3 16 C-0.75047482 18.50031654 -2.55856266 18.53603554 -7 18 C-9.92539902 16.00823896 -11.58729794 14.55075925 -12.515625 11.0625 C-12.70247194 8.82033669 -12.61585026 7.16639525 -12 5 C-8.36438899 0.84501599 -5.54577572 -1.06195705 0 0 Z " fill="#000000" transform="translate(319,59)"/>
<path d="M0 0 C1.875 1.125 1.875 1.125 3 3 C4.11438862 7.62899888 4.39727266 10.80477284 2 15 C-1.6894 17.4596 -4.71832808 17.7996897 -9 17 C-12 14.9375 -12 14.9375 -14 12 C-14.68577608 7.73294881 -14.50023114 5.79347009 -12.1875 2.125 C-8.25393812 -1.69617439 -5.11612766 -1.09631307 0 0 Z " fill="#000000" transform="translate(449,239)"/>
<path d="M0 0 C3.42104997 1.97660665 4.72952628 3.15251566 5.9375 6.9375 C6.02456823 11.20384318 5.22726785 13.68182342 2.3125 16.8125 C-1.04305003 18.53562029 -3.28017365 18.52208089 -7 18 C-9.93052231 16.00475077 -11.64521503 14.57163515 -12.4453125 11.02734375 C-12.64529931 7.46091226 -12.30896766 5.40165795 -10.125 2.5625 C-6.58300058 -0.04191134 -4.41063875 -0.43241556 0 0 Z " fill="#000000" transform="translate(396,187)"/>
<path d="M0 0 C2.85801731 1.98818595 4.61901083 3.47604331 5.484375 6.9375 C5.7545711 10.90037614 5.23136937 12.66346274 2.9375 16 C-0.76272533 18.51930235 -2.6031656 18.7066341 -7 18 C-10.43250143 16.0598905 -11.70166193 14.85772196 -13 11.125 C-13 7.25173287 -12.12269877 5.2206464 -10 2 C-6.85837151 -0.38330438 -3.85102133 -0.5501459 0 0 Z " fill="#000000" transform="translate(345,187)"/>
<path d="M0 0 C2.93052231 1.99524923 4.64521503 3.42836485 5.4453125 6.97265625 C5.63409202 10.33922437 5.25759307 12.59815481 3.4375 15.4375 C0.19100111 17.51858903 -2.15247539 17.93249957 -6 18 C-8.88017082 16.78392788 -10.45238499 15.69696456 -12.375 13.25 C-13.32835544 9.81792041 -12.91654656 7.42177384 -12 4 C-8.40355554 -0.12533335 -5.35681029 -0.86091594 0 0 Z " fill="#000000" transform="translate(294,136)"/>
<path d="M0 0 C1.875 1.125 1.875 1.125 3 3 C4.11438862 7.62899888 4.39727266 10.80477284 2 15 C-1.6894 17.4596 -4.71832808 17.7996897 -9 17 C-12 14.9375 -12 14.9375 -14 12 C-14.68577608 7.73294881 -14.50023114 5.79347009 -12.1875 2.125 C-8.25393812 -1.69617439 -5.11612766 -1.09631307 0 0 Z " fill="#000000" transform="translate(321,111)"/>
<path d="M0 0 C2.85801731 1.98818595 4.61901083 3.47604331 5.484375 6.9375 C5.7545711 10.90037614 5.23136937 12.66346274 2.9375 16 C-0.76272533 18.51930235 -2.6031656 18.7066341 -7 18 C-10.43250143 16.0598905 -11.70166193 14.85772196 -13 11.125 C-13 7.25173287 -12.12269877 5.2206464 -10 2 C-6.85837151 -0.38330438 -3.85102133 -0.5501459 0 0 Z " fill="#000000" transform="translate(473,59)"/>
<path d="M0 0 C2.4375 0.9375 2.4375 0.9375 4 3 C5.32609753 7.49833084 5.63011703 10.7901753 3.4375 15 C0.48250382 17.42461225 -1.19280447 17.92230213 -5 18 C-8.0015563 17.23216002 -9.58776001 16.39802482 -11.8125 14.25 C-13.37474861 11.28995 -13.34464317 9.30857448 -13 6 C-10.74882074 -0.23403487 -6.04031418 -0.73068317 0 0 Z " fill="#000000" transform="translate(371,213)"/>
<path d="M0 0 C1.9375 1.125 1.9375 1.125 3 3 C3.51089992 7.52511354 3.5262565 9.90172556 1.5625 14 C-1.71257003 16.55615222 -3.81039427 16.61115827 -7.875 16.34375 C-10.84547497 15.86323199 -12.16731801 15.44357599 -14 13 C-15.80355971 6.52840338 -15.80355971 6.52840338 -14.04296875 3.1796875 C-9.53121757 -2.46340914 -6.48828034 -2.31724298 0 0 Z " fill="#000000" transform="translate(424,163)"/>
<path d="M0 0 C2 1.5625 2 1.5625 3 4 C3.17180166 8.12323993 2.97259419 11.71617567 0.4375 15.0625 C-3.09779087 16.42222726 -6.31625361 16.77322201 -10 16 C-13 13.875 -13 13.875 -15 11 C-15.59312026 7.44127844 -15.23827569 5.55179633 -13.8125 2.25 C-9.69015725 -2.867391 -5.80312979 -2.36423806 0 0 Z " fill="#000000" transform="translate(373,163)"/>
<path d="M0 0 C2.93052231 1.99524923 4.64521503 3.42836485 5.4453125 6.97265625 C5.63409202 10.33922437 5.25759307 12.59815481 3.4375 15.4375 C0.19100111 17.51858903 -2.15247539 17.93249957 -6 18 C-8.8125 17 -8.8125 17 -11 15 C-12.85868914 10.89539482 -13.34637101 8.96619282 -11.8125 4.6875 C-8.5402462 -0.16446253 -5.62197959 -0.67851478 0 0 Z " fill="#000000" transform="translate(345,136)"/>
<path d="M0 0 C1.9375 1.125 1.9375 1.125 3 3 C3.51089992 7.52511354 3.5262565 9.90172556 1.5625 14 C-1.71257003 16.55615222 -3.81039427 16.61115827 -7.875 16.34375 C-10.84547497 15.86323199 -12.16731801 15.44357599 -14 13 C-15.80355971 6.52840338 -15.80355971 6.52840338 -14.04296875 3.1796875 C-9.53121757 -2.46340914 -6.48828034 -2.31724298 0 0 Z " fill="#000000" transform="translate(296,35)"/>
<path d="M0 0 C2.79669249 2.61024633 3.72283341 5.21205654 4 9 C3.00814715 12.47148497 1.80225574 14.72598557 -1 17 C-5.16013014 17.85041334 -8.85451454 17.6425894 -12.5625 15.5625 C-14.70112824 11.7501627 -14.7925722 8.26890375 -14 4 C-10.15163882 -1.30808439 -6.12121174 -1.42099558 0 0 Z " fill="#000000" transform="translate(398,239)"/>
<path d="M0 0 C2.5 1.4375 2.5 1.4375 4 4 C4.76430005 8.33899506 4.80920078 11.75507572 2.375 15.5 C-0.58989249 17.37256368 -2.48392794 17.92967856 -6 18 C-9.56142534 16.76719892 -11.43265682 15.9126825 -13.4375 12.6875 C-14.13948837 9.33355555 -14.04495329 7.27418698 -13 4 C-9.03082692 -0.57056294 -5.706797 -0.72467263 0 0 Z " fill="#000000" transform="translate(474,213)"/>
<path d="M0 0 C3.59006454 0.80332137 4.97678728 2.4476028 6.97265625 5.44140625 C7.64904683 8.46421371 7.42824466 10.25228738 6.97265625 13.44140625 C4.92397122 16.5144338 3.56380809 17.26531847 0.03515625 18.31640625 C-3.37828659 18.45573045 -5.09547362 18.18468038 -8.02734375 16.44140625 C-10.62807464 13.40722021 -11.03544245 11.90303206 -10.96484375 7.87890625 C-9.27500582 1.68283384 -6.60713452 -0.38284331 0 0 Z " fill="#000000" transform="translate(420.02734375,212.55859375)"/>
<path d="M0 0 C1.76953125 0.8359375 1.76953125 0.8359375 3.76953125 3.8359375 C4.43522001 8.03906539 4.43108919 11.65663856 2.33203125 15.3984375 C-1.49188955 17.5435638 -4.94976019 17.60709456 -9.23046875 16.8359375 C-12.35832358 14.80283186 -13.03981369 13.43332335 -14.16796875 9.8984375 C-14.24448103 6.14933567 -13.57899155 4.73244896 -11.23046875 1.8359375 C-7.3164847 -1.63073409 -4.74489533 -1.25199915 0 0 Z " fill="#000000" transform="translate(474.23046875,162.1640625)"/>
<path d="M0 0 C2.72250034 1.88480793 3.70354088 3.26873416 4.9375 6.3125 C5.02707708 10.16431438 3.83373033 12.64869974 2 16 C-0.61753731 18.24360341 -2.01189426 17.9995752 -5.5 17.875 C-9.405988 16.898503 -10.83194553 16.38216497 -13 13 C-13.70476018 8.06667872 -13.77041398 6.15562097 -11 2 C-6.84437903 -0.77041398 -4.93332128 -0.70476018 0 0 Z " fill="#000000" transform="translate(397,136)"/>
<path d="M0 0 C2.5 1.4375 2.5 1.4375 4 4 C4.76430005 8.33899506 4.80920078 11.75507572 2.375 15.5 C-0.58989249 17.37256368 -2.48392794 17.92967856 -6 18 C-9.56142534 16.76719892 -11.43265682 15.9126825 -13.4375 12.6875 C-14.13948837 9.33355555 -14.04495329 7.27418698 -13 4 C-9.03082692 -0.57056294 -5.706797 -0.72467263 0 0 Z " fill="#000000" transform="translate(346,85)"/>
<path d="M0 0 C3.59006454 0.80332137 4.97678728 2.4476028 6.97265625 5.44140625 C7.64904683 8.46421371 7.42824466 10.25228738 6.97265625 13.44140625 C4.92397122 16.5144338 3.56380809 17.26531847 0.03515625 18.31640625 C-3.37828659 18.45573045 -5.09547362 18.18468038 -8.02734375 16.44140625 C-10.62807464 13.40722021 -11.03544245 11.90303206 -10.96484375 7.87890625 C-9.27500582 1.68283384 -6.60713452 -0.38284331 0 0 Z " fill="#000000" transform="translate(292.02734375,84.55859375)"/>
<path d="M0 0 C1.76953125 0.8359375 1.76953125 0.8359375 3.76953125 3.8359375 C4.43522001 8.03906539 4.43108919 11.65663856 2.33203125 15.3984375 C-1.49188955 17.5435638 -4.94976019 17.60709456 -9.23046875 16.8359375 C-12.35832358 14.80283186 -13.03981369 13.43332335 -14.16796875 9.8984375 C-14.24448103 6.14933567 -13.57899155 4.73244896 -11.23046875 1.8359375 C-7.3164847 -1.63073409 -4.74489533 -1.25199915 0 0 Z " fill="#000000" transform="translate(346.23046875,34.1640625)"/>
<path d="M0 0 C2.375 1.5625 2.375 1.5625 4 4 C4.70476018 8.93332128 4.77041398 10.84437903 2 15 C-2.15562097 17.77041398 -4.06667872 17.70476018 -9 17 C-12.06458538 14.95694308 -12.82153128 13.55920198 -13.9375 10.0625 C-14.01401228 6.31339817 -13.3485228 4.89651146 -11 2 C-7.14808282 -1.12317609 -4.72449837 -1.50781863 0 0 Z " fill="#000000" transform="translate(346,239)"/>
<path d="M0 0 C3.07302755 2.04868503 3.82391222 3.40884816 4.875 6.9375 C5.01557453 10.38157601 4.82078724 12.07090749 3 15 C0.27030417 17.01477549 -1.65173681 18.10274868 -5.1015625 17.83984375 C-9.09264298 16.97631906 -10.69288632 16.46067052 -13 13 C-13.5493667 8.13418066 -13.73490373 6.1023556 -11 2 C-6.84437903 -0.77041398 -4.93332128 -0.70476018 0 0 Z " fill="#000000" transform="translate(320,213)"/>
<path d="M0 0 C2.35235238 3.23448453 3.0174078 5.12961008 2.9375 9.125 C1.79896026 12.61652188 1.09824425 13.98614124 -2 16 C-6.30636204 16.77577846 -9.75181136 16.73064701 -13.5625 14.5 C-15.56888733 11.01063073 -15.90504609 7.86562059 -15 4 C-10.36464062 -1.88815921 -6.93428982 -2.84801189 0 0 Z " fill="#000000" transform="translate(322,163)"/>
<path d="M0 0 C2.375 1.5625 2.375 1.5625 4 4 C4.70476018 8.93332128 4.77041398 10.84437903 2 15 C-2.15562097 17.77041398 -4.06667872 17.70476018 -9 17 C-12.06458538 14.95694308 -12.82153128 13.55920198 -13.9375 10.0625 C-14.01401228 6.31339817 -13.3485228 4.89651146 -11 2 C-7.14808282 -1.12317609 -4.72449837 -1.50781863 0 0 Z " fill="#000000" transform="translate(474,111)"/>
<path d="M0 0 C3.07302755 2.04868503 3.82391222 3.40884816 4.875 6.9375 C5.01557453 10.38157601 4.82078724 12.07090749 3 15 C0.27030417 17.01477549 -1.65173681 18.10274868 -5.1015625 17.83984375 C-9.09264298 16.97631906 -10.69288632 16.46067052 -13 13 C-13.5493667 8.13418066 -13.73490373 6.1023556 -11 2 C-6.84437903 -0.77041398 -4.93332128 -0.70476018 0 0 Z " fill="#000000" transform="translate(448,85)"/>
<path d="M0 0 C2.72250034 1.88480793 3.70354088 3.26873416 4.9375 6.3125 C5.02793144 10.20105181 3.90231738 12.63923929 2 16 C-0.92825517 17.89940876 -2.58447455 18.01696022 -6.0625 17.875 C-9.59115184 16.82391222 -10.95131497 16.07302755 -13 13 C-13.70476018 8.06667872 -13.77041398 6.15562097 -11 2 C-6.84437903 -0.77041398 -4.93332128 -0.70476018 0 0 Z " fill="#000000" transform="translate(397,85)"/>
<path d="M0 0 C2.35235238 3.23448453 3.0174078 5.12961008 2.9375 9.125 C1.79896026 12.61652188 1.09824425 13.98614124 -2 16 C-6.30636204 16.77577846 -9.75181136 16.73064701 -13.5625 14.5 C-15.56888733 11.01063073 -15.90504609 7.86562059 -15 4 C-10.36464062 -1.88815921 -6.93428982 -2.84801189 0 0 Z " fill="#000000" transform="translate(450,35)"/>
<path d="M0 0 C2.60489823 4.0257518 3.15311081 6.06602406 2.375 10.8125 C1 14 1 14 -2 16 C-6.20312789 16.66568876 -9.82070106 16.66155794 -13.5625 14.5625 C-15.70328981 10.74630947 -15.78545124 7.27285474 -15 3 C-13.22970548 0.47100783 -11.92754696 -0.55221871 -9.1875 -1.875 C-5.6372557 -2.0778711 -3.25810677 -1.42171932 0 0 Z " fill="#000000" transform="translate(399,35)"/>
</svg>
